<mxfile host="app.diagrams.net" agent="Mozilla/5.0 (Macintosh; Intel Mac OS X 10_15_7) AppleWebKit/537.36 (KHTML, like Gecko) Chrome/135.0.0.0 Safari/537.36" version="27.0.9">
  <diagram name="Page-1" id="QwaSKFHBgorIu-CgGrfA">
    <mxGraphModel dx="2201" dy="886" grid="1" gridSize="10" guides="1" tooltips="1" connect="1" arrows="1" fold="1" page="1" pageScale="1" pageWidth="850" pageHeight="1100" math="0" shadow="0">
      <root>
        <mxCell id="0" />
        <mxCell id="1" parent="0" />
        <mxCell id="cj13jpOk3JOB_9JHsXTW-26" style="edgeStyle=orthogonalEdgeStyle;rounded=0;orthogonalLoop=1;jettySize=auto;html=1;entryX=0.457;entryY=1.013;entryDx=0;entryDy=0;entryPerimeter=0;" parent="1" source="cj13jpOk3JOB_9JHsXTW-12" target="cj13jpOk3JOB_9JHsXTW-14" edge="1">
          <mxGeometry relative="1" as="geometry">
            <Array as="points">
              <mxPoint x="621.25" y="405" />
              <mxPoint x="621.25" y="405" />
              <mxPoint x="621.25" y="326" />
            </Array>
          </mxGeometry>
        </mxCell>
        <mxCell id="cj13jpOk3JOB_9JHsXTW-7" value="Factory info:&lt;div&gt;1. type of factory&lt;/div&gt;&lt;div&gt;2. type of process&lt;/div&gt;" style="text;html=1;align=center;verticalAlign=middle;resizable=0;points=[];autosize=1;strokeColor=none;fillColor=none;" parent="1" vertex="1">
          <mxGeometry x="303.25" y="205" width="120" height="60" as="geometry" />
        </mxCell>
        <mxCell id="cj13jpOk3JOB_9JHsXTW-5" value="" style="edgeStyle=orthogonalEdgeStyle;rounded=0;orthogonalLoop=1;jettySize=auto;html=1;" parent="1" source="cj13jpOk3JOB_9JHsXTW-1" target="cj13jpOk3JOB_9JHsXTW-3" edge="1">
          <mxGeometry relative="1" as="geometry" />
        </mxCell>
        <mxCell id="cj13jpOk3JOB_9JHsXTW-1" value="PLATFORM" style="shape=parallelogram;perimeter=parallelogramPerimeter;whiteSpace=wrap;html=1;fixedSize=1;" parent="1" vertex="1">
          <mxGeometry x="103.25" y="165" width="140" height="40" as="geometry" />
        </mxCell>
        <mxCell id="cj13jpOk3JOB_9JHsXTW-6" value="" style="edgeStyle=orthogonalEdgeStyle;rounded=0;orthogonalLoop=1;jettySize=auto;html=1;" parent="1" source="cj13jpOk3JOB_9JHsXTW-3" target="cj13jpOk3JOB_9JHsXTW-4" edge="1">
          <mxGeometry relative="1" as="geometry" />
        </mxCell>
        <mxCell id="cj13jpOk3JOB_9JHsXTW-3" value="APPLICATION" style="rounded=0;whiteSpace=wrap;html=1;" parent="1" vertex="1">
          <mxGeometry x="303.25" y="165" width="120" height="40" as="geometry" />
        </mxCell>
        <mxCell id="cj13jpOk3JOB_9JHsXTW-15" style="edgeStyle=orthogonalEdgeStyle;rounded=0;orthogonalLoop=1;jettySize=auto;html=1;" parent="1" source="cj13jpOk3JOB_9JHsXTW-4" target="cj13jpOk3JOB_9JHsXTW-14" edge="1">
          <mxGeometry relative="1" as="geometry" />
        </mxCell>
        <mxCell id="cj13jpOk3JOB_9JHsXTW-4" value="BACKEND" style="shape=cylinder3;whiteSpace=wrap;html=1;boundedLbl=1;backgroundOutline=1;size=15;fillColor=#dae8fc;strokeColor=#6c8ebf;" parent="1" vertex="1">
          <mxGeometry x="587" y="130" width="82.5" height="110" as="geometry" />
        </mxCell>
        <mxCell id="cj13jpOk3JOB_9JHsXTW-29" style="edgeStyle=orthogonalEdgeStyle;rounded=0;orthogonalLoop=1;jettySize=auto;html=1;" parent="1" source="cj13jpOk3JOB_9JHsXTW-12" target="cj13jpOk3JOB_9JHsXTW-28" edge="1">
          <mxGeometry relative="1" as="geometry" />
        </mxCell>
        <mxCell id="cj13jpOk3JOB_9JHsXTW-30" value="Document&amp;nbsp;&lt;div&gt;( Unlimited Agreement,&amp;nbsp;&lt;div&gt;application,&amp;nbsp;&lt;/div&gt;&lt;div&gt;invoice,&amp;nbsp;&lt;/div&gt;&lt;div&gt;certificate of completed work)&amp;nbsp;&lt;/div&gt;&lt;/div&gt;" style="edgeLabel;html=1;align=center;verticalAlign=middle;resizable=0;points=[];" parent="cj13jpOk3JOB_9JHsXTW-29" vertex="1" connectable="0">
          <mxGeometry x="-0.1083" relative="1" as="geometry">
            <mxPoint as="offset" />
          </mxGeometry>
        </mxCell>
        <mxCell id="cj13jpOk3JOB_9JHsXTW-12" value="DIDOX SERVICE" style="shape=parallelogram;perimeter=parallelogramPerimeter;whiteSpace=wrap;html=1;fixedSize=1;" parent="1" vertex="1">
          <mxGeometry x="543.25" y="485" width="155" height="40" as="geometry" />
        </mxCell>
        <mxCell id="cj13jpOk3JOB_9JHsXTW-22" value="Sign document" style="edgeStyle=orthogonalEdgeStyle;rounded=0;orthogonalLoop=1;jettySize=auto;html=1;" parent="1" source="cj13jpOk3JOB_9JHsXTW-14" target="cj13jpOk3JOB_9JHsXTW-12" edge="1">
          <mxGeometry relative="1" as="geometry">
            <Array as="points">
              <mxPoint x="783.25" y="305" />
              <mxPoint x="783.25" y="505" />
            </Array>
          </mxGeometry>
        </mxCell>
        <mxCell id="cj13jpOk3JOB_9JHsXTW-14" value="CREATE DOCUMENT" style="rounded=0;whiteSpace=wrap;html=1;" parent="1" vertex="1">
          <mxGeometry x="543.25" y="285" width="170" height="40" as="geometry" />
        </mxCell>
        <mxCell id="cj13jpOk3JOB_9JHsXTW-16" value="" style="edgeStyle=orthogonalEdgeStyle;rounded=0;orthogonalLoop=1;jettySize=auto;html=1;exitX=0;exitY=0.5;exitDx=0;exitDy=0;entryX=0;entryY=0.5;entryDx=0;entryDy=0;" parent="1" source="cj13jpOk3JOB_9JHsXTW-14" target="cj13jpOk3JOB_9JHsXTW-12" edge="1">
          <mxGeometry x="-0.0018" relative="1" as="geometry">
            <mxPoint x="603.25" y="405" as="targetPoint" />
            <mxPoint x="603.25" y="325" as="sourcePoint" />
            <Array as="points">
              <mxPoint x="523.25" y="305" />
              <mxPoint x="523.25" y="505" />
            </Array>
            <mxPoint as="offset" />
          </mxGeometry>
        </mxCell>
        <mxCell id="cj13jpOk3JOB_9JHsXTW-17" value="Send document" style="edgeLabel;html=1;align=center;verticalAlign=middle;resizable=0;points=[];" parent="cj13jpOk3JOB_9JHsXTW-16" vertex="1" connectable="0">
          <mxGeometry x="-0.2375" y="-1" relative="1" as="geometry">
            <mxPoint as="offset" />
          </mxGeometry>
        </mxCell>
        <mxCell id="cj13jpOk3JOB_9JHsXTW-9" value="Doc ID" style="rhombus;whiteSpace=wrap;html=1;fillColor=#fff2cc;strokeColor=#d6b656;" parent="1" vertex="1">
          <mxGeometry x="535.75" y="405" width="170" height="50" as="geometry" />
        </mxCell>
        <mxCell id="cj13jpOk3JOB_9JHsXTW-25" value="Check INN availability" style="rhombus;whiteSpace=wrap;html=1;fillColor=#fff2cc;strokeColor=#d6b656;" parent="1" vertex="1">
          <mxGeometry x="278.25" y="285" width="170" height="50" as="geometry" />
        </mxCell>
        <mxCell id="cj13jpOk3JOB_9JHsXTW-31" style="edgeStyle=orthogonalEdgeStyle;rounded=0;orthogonalLoop=1;jettySize=auto;html=1;entryX=0.577;entryY=0.017;entryDx=0;entryDy=0;entryPerimeter=0;fillColor=#d5e8d4;strokeColor=#82b366;" parent="1" source="cj13jpOk3JOB_9JHsXTW-28" target="cj13jpOk3JOB_9JHsXTW-33" edge="1">
          <mxGeometry relative="1" as="geometry">
            <mxPoint x="303.25" y="684.9999999999998" as="targetPoint" />
          </mxGeometry>
        </mxCell>
        <mxCell id="cj13jpOk3JOB_9JHsXTW-32" value="Doc was signed" style="edgeLabel;html=1;align=center;verticalAlign=middle;resizable=0;points=[];" parent="cj13jpOk3JOB_9JHsXTW-31" vertex="1" connectable="0">
          <mxGeometry x="-0.0059" y="-2" relative="1" as="geometry">
            <mxPoint x="1" y="-2" as="offset" />
          </mxGeometry>
        </mxCell>
        <mxCell id="cj13jpOk3JOB_9JHsXTW-28" value="USER" style="shape=hexagon;perimeter=hexagonPerimeter2;whiteSpace=wrap;html=1;fixedSize=1;" parent="1" vertex="1">
          <mxGeometry x="560.75" y="645" width="120" height="80" as="geometry" />
        </mxCell>
        <mxCell id="cj13jpOk3JOB_9JHsXTW-33" value="DIDOX SERVICE" style="shape=parallelogram;perimeter=parallelogramPerimeter;whiteSpace=wrap;html=1;fixedSize=1;" parent="1" vertex="1">
          <mxGeometry x="133.25" y="765" width="155" height="40" as="geometry" />
        </mxCell>
        <mxCell id="cj13jpOk3JOB_9JHsXTW-38" value="Pulling (DATA BY DOC ID)" style="edgeStyle=orthogonalEdgeStyle;rounded=0;orthogonalLoop=1;jettySize=auto;html=1;exitX=0.02;exitY=0.085;exitDx=0;exitDy=0;exitPerimeter=0;entryX=0.228;entryY=1.002;entryDx=0;entryDy=0;entryPerimeter=0;" parent="1" edge="1">
          <mxGeometry relative="1" as="geometry">
            <mxPoint x="113.25000000000014" y="454.99999999999994" as="targetPoint" />
            <mxPoint x="115.81000000000009" y="554.27" as="sourcePoint" />
            <Array as="points">
              <mxPoint x="114.16" y="553.9200000000001" />
              <mxPoint x="114.16" y="454.92" />
            </Array>
          </mxGeometry>
        </mxCell>
        <mxCell id="cj13jpOk3JOB_9JHsXTW-56" value="IF answer is ok" style="edgeLabel;html=1;align=center;verticalAlign=middle;resizable=0;points=[];" parent="cj13jpOk3JOB_9JHsXTW-38" vertex="1" connectable="0">
          <mxGeometry x="-0.2894" relative="1" as="geometry">
            <mxPoint as="offset" />
          </mxGeometry>
        </mxCell>
        <mxCell id="cj13jpOk3JOB_9JHsXTW-43" style="edgeStyle=orthogonalEdgeStyle;rounded=0;orthogonalLoop=1;jettySize=auto;html=1;entryX=0;entryY=0.5;entryDx=0;entryDy=0;fillColor=#d5e8d4;strokeColor=#82b366;" parent="1" source="cj13jpOk3JOB_9JHsXTW-35" target="cj13jpOk3JOB_9JHsXTW-42" edge="1">
          <mxGeometry relative="1" as="geometry" />
        </mxCell>
        <mxCell id="cj13jpOk3JOB_9JHsXTW-45" value="Answer is OK" style="edgeLabel;html=1;align=center;verticalAlign=middle;resizable=0;points=[];" parent="cj13jpOk3JOB_9JHsXTW-43" vertex="1" connectable="0">
          <mxGeometry x="0.2799" y="-2" relative="1" as="geometry">
            <mxPoint as="offset" />
          </mxGeometry>
        </mxCell>
        <mxCell id="cj13jpOk3JOB_9JHsXTW-47" style="edgeStyle=orthogonalEdgeStyle;rounded=0;orthogonalLoop=1;jettySize=auto;html=1;entryX=0.5;entryY=1;entryDx=0;entryDy=0;fillColor=#f8cecc;strokeColor=#b85450;" parent="1" source="cj13jpOk3JOB_9JHsXTW-35" target="cj13jpOk3JOB_9JHsXTW-44" edge="1">
          <mxGeometry relative="1" as="geometry" />
        </mxCell>
        <mxCell id="cj13jpOk3JOB_9JHsXTW-48" value="Answer is DECLINE" style="edgeLabel;html=1;align=center;verticalAlign=middle;resizable=0;points=[];" parent="cj13jpOk3JOB_9JHsXTW-47" vertex="1" connectable="0">
          <mxGeometry x="-0.0843" relative="1" as="geometry">
            <mxPoint as="offset" />
          </mxGeometry>
        </mxCell>
        <mxCell id="cj13jpOk3JOB_9JHsXTW-35" value="BACKEND" style="shape=cylinder3;whiteSpace=wrap;html=1;boundedLbl=1;backgroundOutline=1;size=15;fillColor=#dae8fc;strokeColor=#6c8ebf;" parent="1" vertex="1">
          <mxGeometry x="103.25" y="545" width="82.5" height="110" as="geometry" />
        </mxCell>
        <mxCell id="cj13jpOk3JOB_9JHsXTW-36" style="edgeStyle=orthogonalEdgeStyle;rounded=0;orthogonalLoop=1;jettySize=auto;html=1;entryX=0.5;entryY=1;entryDx=0;entryDy=0;entryPerimeter=0;fillColor=#d5e8d4;strokeColor=#82b366;" parent="1" source="cj13jpOk3JOB_9JHsXTW-33" target="cj13jpOk3JOB_9JHsXTW-35" edge="1">
          <mxGeometry relative="1" as="geometry" />
        </mxCell>
        <mxCell id="cj13jpOk3JOB_9JHsXTW-37" value="Answer is ok" style="edgeLabel;html=1;align=center;verticalAlign=middle;resizable=0;points=[];" parent="cj13jpOk3JOB_9JHsXTW-36" vertex="1" connectable="0">
          <mxGeometry x="-0.1658" y="1" relative="1" as="geometry">
            <mxPoint as="offset" />
          </mxGeometry>
        </mxCell>
        <mxCell id="cj13jpOk3JOB_9JHsXTW-41" style="edgeStyle=orthogonalEdgeStyle;rounded=0;orthogonalLoop=1;jettySize=auto;html=1;entryX=0.774;entryY=0.017;entryDx=0;entryDy=0;entryPerimeter=0;" parent="1" source="cj13jpOk3JOB_9JHsXTW-39" target="cj13jpOk3JOB_9JHsXTW-35" edge="1">
          <mxGeometry relative="1" as="geometry">
            <mxPoint x="283.25" y="435" as="targetPoint" />
            <Array as="points">
              <mxPoint x="167.25" y="475" />
              <mxPoint x="167.25" y="475" />
            </Array>
          </mxGeometry>
        </mxCell>
        <mxCell id="cj13jpOk3JOB_9JHsXTW-46" value="Answer" style="edgeLabel;html=1;align=center;verticalAlign=middle;resizable=0;points=[];" parent="cj13jpOk3JOB_9JHsXTW-41" vertex="1" connectable="0">
          <mxGeometry x="-0.4059" y="2" relative="1" as="geometry">
            <mxPoint as="offset" />
          </mxGeometry>
        </mxCell>
        <mxCell id="cj13jpOk3JOB_9JHsXTW-39" value="BANK SERVICE" style="shape=parallelogram;perimeter=parallelogramPerimeter;whiteSpace=wrap;html=1;fixedSize=1;" parent="1" vertex="1">
          <mxGeometry x="67" y="415" width="155" height="40" as="geometry" />
        </mxCell>
        <mxCell id="cj13jpOk3JOB_9JHsXTW-42" value="CREATE DEPOSIT" style="rounded=0;whiteSpace=wrap;html=1;fillColor=#d5e8d4;strokeColor=#82b366;" parent="1" vertex="1">
          <mxGeometry x="288.25" y="415" width="170" height="40" as="geometry" />
        </mxCell>
        <mxCell id="cj13jpOk3JOB_9JHsXTW-44" value="ROLLBACK" style="rounded=0;whiteSpace=wrap;html=1;fillColor=#f8cecc;strokeColor=#b85450;" parent="1" vertex="1">
          <mxGeometry x="288.25" y="485" width="170" height="40" as="geometry" />
        </mxCell>
        <mxCell id="cj13jpOk3JOB_9JHsXTW-54" style="edgeStyle=orthogonalEdgeStyle;rounded=0;orthogonalLoop=1;jettySize=auto;html=1;entryX=0.03;entryY=0.621;entryDx=0;entryDy=0;entryPerimeter=0;startArrow=classic;startFill=0;" parent="1" source="cj13jpOk3JOB_9JHsXTW-35" target="cj13jpOk3JOB_9JHsXTW-33" edge="1">
          <mxGeometry relative="1" as="geometry">
            <Array as="points">
              <mxPoint x="73.25" y="600" />
              <mxPoint x="73.25" y="790" />
            </Array>
          </mxGeometry>
        </mxCell>
        <mxCell id="cj13jpOk3JOB_9JHsXTW-55" value="After 12 hours&lt;div&gt;Doc sign status&lt;/div&gt;" style="edgeLabel;html=1;align=center;verticalAlign=middle;resizable=0;points=[];" parent="cj13jpOk3JOB_9JHsXTW-54" vertex="1" connectable="0">
          <mxGeometry x="-0.1271" y="-2" relative="1" as="geometry">
            <mxPoint as="offset" />
          </mxGeometry>
        </mxCell>
        <mxCell id="cj13jpOk3JOB_9JHsXTW-59" style="edgeStyle=orthogonalEdgeStyle;rounded=0;orthogonalLoop=1;jettySize=auto;html=1;" parent="1" source="cj13jpOk3JOB_9JHsXTW-57" target="cj13jpOk3JOB_9JHsXTW-58" edge="1">
          <mxGeometry relative="1" as="geometry">
            <mxPoint x="-480" y="185" as="targetPoint" />
          </mxGeometry>
        </mxCell>
        <mxCell id="cj13jpOk3JOB_9JHsXTW-57" value="CREATE DEPOSIT" style="rounded=0;whiteSpace=wrap;html=1;fillColor=#d5e8d4;strokeColor=#82b366;" parent="1" vertex="1">
          <mxGeometry x="-710" y="165" width="170" height="40" as="geometry" />
        </mxCell>
        <mxCell id="cj13jpOk3JOB_9JHsXTW-62" value="" style="edgeStyle=orthogonalEdgeStyle;rounded=0;orthogonalLoop=1;jettySize=auto;html=1;" parent="1" source="cj13jpOk3JOB_9JHsXTW-58" target="cj13jpOk3JOB_9JHsXTW-61" edge="1">
          <mxGeometry relative="1" as="geometry" />
        </mxCell>
        <mxCell id="cj13jpOk3JOB_9JHsXTW-58" value="BACKEND" style="shape=cylinder3;whiteSpace=wrap;html=1;boundedLbl=1;backgroundOutline=1;size=15;fillColor=#dae8fc;strokeColor=#6c8ebf;" parent="1" vertex="1">
          <mxGeometry x="-470" y="130" width="82.5" height="110" as="geometry" />
        </mxCell>
        <mxCell id="cj13jpOk3JOB_9JHsXTW-64" value="" style="edgeStyle=orthogonalEdgeStyle;rounded=0;orthogonalLoop=1;jettySize=auto;html=1;" parent="1" source="cj13jpOk3JOB_9JHsXTW-61" target="cj13jpOk3JOB_9JHsXTW-63" edge="1">
          <mxGeometry relative="1" as="geometry">
            <Array as="points">
              <mxPoint x="-175" y="355" />
            </Array>
          </mxGeometry>
        </mxCell>
        <mxCell id="cj13jpOk3JOB_9JHsXTW-61" value="Journal:&lt;div&gt;Type of transaction&lt;/div&gt;&lt;div&gt;Replenishment amout&lt;/div&gt;" style="whiteSpace=wrap;html=1;fillColor=#f5f5f5;strokeColor=#666666;fontColor=#333333;" parent="1" vertex="1">
          <mxGeometry x="-270" y="155" width="190" height="60" as="geometry" />
        </mxCell>
        <mxCell id="cj13jpOk3JOB_9JHsXTW-63" value="Posting" style="shape=trapezoid;perimeter=trapezoidPerimeter;whiteSpace=wrap;html=1;fixedSize=1;fillColor=#f5f5f5;strokeColor=#666666;fontColor=#333333;" parent="1" vertex="1">
          <mxGeometry x="-730" y="405" width="420" height="60" as="geometry" />
        </mxCell>
        <mxCell id="cj13jpOk3JOB_9JHsXTW-68" value="" style="edgeStyle=orthogonalEdgeStyle;rounded=0;orthogonalLoop=1;jettySize=auto;html=1;" parent="1" source="cj13jpOk3JOB_9JHsXTW-65" target="cj13jpOk3JOB_9JHsXTW-67" edge="1">
          <mxGeometry relative="1" as="geometry" />
        </mxCell>
        <mxCell id="cj13jpOk3JOB_9JHsXTW-69" value="" style="edgeStyle=orthogonalEdgeStyle;rounded=0;orthogonalLoop=1;jettySize=auto;html=1;" parent="1" source="cj13jpOk3JOB_9JHsXTW-65" target="cj13jpOk3JOB_9JHsXTW-67" edge="1">
          <mxGeometry relative="1" as="geometry" />
        </mxCell>
        <mxCell id="cj13jpOk3JOB_9JHsXTW-65" value="Transit (Company account)" style="whiteSpace=wrap;html=1;fillColor=#f5f5f5;strokeColor=#666666;fontColor=#333333;" parent="1" vertex="1">
          <mxGeometry x="-580" y="475" width="120" height="60" as="geometry" />
        </mxCell>
        <mxCell id="cj13jpOk3JOB_9JHsXTW-73" value="" style="edgeStyle=orthogonalEdgeStyle;rounded=0;orthogonalLoop=1;jettySize=auto;html=1;" parent="1" source="cj13jpOk3JOB_9JHsXTW-67" target="cj13jpOk3JOB_9JHsXTW-72" edge="1">
          <mxGeometry relative="1" as="geometry" />
        </mxCell>
        <mxCell id="cj13jpOk3JOB_9JHsXTW-67" value="Turnover account" style="whiteSpace=wrap;html=1;fillColor=#f5f5f5;strokeColor=#666666;fontColor=#333333;" parent="1" vertex="1">
          <mxGeometry x="-415" y="605" width="120" height="60" as="geometry" />
        </mxCell>
        <mxCell id="cj13jpOk3JOB_9JHsXTW-75" value="" style="edgeStyle=orthogonalEdgeStyle;rounded=0;orthogonalLoop=1;jettySize=auto;html=1;" parent="1" source="cj13jpOk3JOB_9JHsXTW-70" target="cj13jpOk3JOB_9JHsXTW-74" edge="1">
          <mxGeometry relative="1" as="geometry" />
        </mxCell>
        <mxCell id="cj13jpOk3JOB_9JHsXTW-77" style="edgeStyle=orthogonalEdgeStyle;rounded=0;orthogonalLoop=1;jettySize=auto;html=1;entryX=0.5;entryY=0;entryDx=0;entryDy=0;" parent="1" source="cj13jpOk3JOB_9JHsXTW-70" target="cj13jpOk3JOB_9JHsXTW-76" edge="1">
          <mxGeometry relative="1" as="geometry" />
        </mxCell>
        <mxCell id="cj13jpOk3JOB_9JHsXTW-70" value="Profit account" style="whiteSpace=wrap;html=1;fillColor=#f5f5f5;strokeColor=#666666;fontColor=#333333;" parent="1" vertex="1">
          <mxGeometry x="-730" y="605" width="120" height="60" as="geometry" />
        </mxCell>
        <mxCell id="cj13jpOk3JOB_9JHsXTW-71" style="edgeStyle=orthogonalEdgeStyle;rounded=0;orthogonalLoop=1;jettySize=auto;html=1;entryX=0.5;entryY=0;entryDx=0;entryDy=0;" parent="1" source="cj13jpOk3JOB_9JHsXTW-65" target="cj13jpOk3JOB_9JHsXTW-70" edge="1">
          <mxGeometry relative="1" as="geometry" />
        </mxCell>
        <mxCell id="cj13jpOk3JOB_9JHsXTW-72" value="User Wallet" style="whiteSpace=wrap;html=1;fillColor=#d5e8d4;strokeColor=#82b366;" parent="1" vertex="1">
          <mxGeometry x="-415" y="745" width="120" height="60" as="geometry" />
        </mxCell>
        <mxCell id="cj13jpOk3JOB_9JHsXTW-74" value="TAX" style="ellipse;whiteSpace=wrap;html=1;fillColor=#f5f5f5;strokeColor=#666666;fontColor=#333333;" parent="1" vertex="1">
          <mxGeometry x="-810" y="720" width="80" height="80" as="geometry" />
        </mxCell>
        <mxCell id="cj13jpOk3JOB_9JHsXTW-76" value="NET VALUE" style="ellipse;whiteSpace=wrap;html=1;fillColor=#d5e8d4;strokeColor=#82b366;" parent="1" vertex="1">
          <mxGeometry x="-660" y="720" width="80" height="80" as="geometry" />
        </mxCell>
        <mxCell id="cj13jpOk3JOB_9JHsXTW-78" value="" style="shape=image;verticalLabelPosition=bottom;labelBackgroundColor=default;verticalAlign=top;aspect=fixed;imageAspect=0;image=data:image/jpeg,/9j/4AAQSkZJRgABAQEASABIAAD/2wBDAAQDAwQDAwQEAwQFBAQFBgoHBgYGBg0JCggKDw0QEA8NDw4RExgUERIXEg4PFRwVFxkZGxsbEBQdHx0aHxgaGxr/2wBDAQQFBQYFBgwHBwwaEQ8RGhoaGhoaGhoaGhoaGhoaGhoaGhoaGhoaGhoaGhoaGhoaGhoaGhoaGhoaGhoaGhoaGhr/wgARCACXBAwDASIAAhEBAxEB/8QAGwAAAgMBAQEAAAAAAAAAAAAAAAYEBQcDAgH/xAAYAQEBAQEBAAAAAAAAAAAAAAAAAQIDBP/aAAwDAQACEAMQAAAB2aWVkWZRrCaGL6aupFDCRrKCgV+EOKaMC9YwlHUDmZ2yl+K9lLbGZ2tjuU3kuyqRpdOEruNxQrKaIS0lWspuAwCJGNEKSvRrM+rF1QzJpsZBH8D2Kc0v4siQcRMt5bwWwZBVnl2K9wlgVEZWCNQttnEnZ/K5CzLsuxJt5b8VvqNBAq1YymrbGsoYys5AWIdhUebKiT2kLBJwQScEEneCILBDOJHMezOJY+Gb6prMMnE1BJwQaxhj0gDcqep4KxoqqKa6s+Degyzysf0Uxio14nPQhBJazF2X69Z6JH0jHflL5KfV9RAKy7iOV12d2jtI81gqbHP5lWQxFiBIdyVNhP4iXFfhUWl1QKRJ1ETNGRnKzmydASZrSRmlq7AiQ9HBN5O5SH3dSVLrdGEq8t2YaR7FnLlGr9JJVqxtAQ/r2Gf12ohm057Ey6+cyo0kirkzKySefpzBnaAWFnTRc10bpW65e1xjny0LfHNc7DNtBr87QeGijaBLdCazlmYPtwnrepkq9RvoqfU6MKnQX8hQ0ensOnAkV8i4kEcJBHCRWyiE/i7Ak+HkECQ7hnWmcCyQRxZBHCRHI5VV7aRm0p/BcqngsXlvRSVdgOIILXZli6weiVB9vZCzWPJZnbGwlJ3h0M3NHqxLM4tnErPbNvIJFfIt45rpSZnXmsYfrCrd/J24t2lt4zUx0r5cv2xrLWxZ7s1OuaafT3YltV3MszdwprTNW4V9D1Iljfd81N6NlAc48zrUaX3tLKqqYYEcJcLusilu7OxHZ5Zm59b2PTUUWz3HzYVl56WKL3yJqrfefveM6vUdi5+mT0VmMJMZfi4Z0h81iBFnrMWLmptmsZW7pcjPaxj+o5eV3LnLeK87hc3t3Q92YXms5tMXmr8y2fqrqbGxdvV2XTp1XadOAAAAAGbSedpkl3M/rZT1rN9l5vyq1agAoAEeRHK9KaOOSO1QJNi1bNFZUpQ0xNlqG3t6I1VJZERdIpLpUdYauks1eZ6y5h+vrFS1HvTGkjYc/b94zO/9WSpjD3mw0SI8i2o4z4MvsoqK50iCoK0utfMltrNUiKH2Vz7IPdG6TmcOtJkInCV6nodwl1WJ9+rMKtYaJ4SbGGTnmNnvOiRUyPnWimP6HZL+q1rLY2iYt2auJsKV/rFqjs0Xuvws1m6oVVqa4KVBLplej15q8eJaWVUzO73OmcRpFriJP2HKoWm+yLdUtcNPtUc7IxY5dnegCL11l1M1ts1t7pHWxyFuhl0Ip6Ox0FapH8pk6XShH0nUr5BISOSAjkgI5ICOdV+LDiscYd/GUtu45kgljkgI5ICPHsI5ziChk29c3Y9Rkho94OtdQUErzMS7UvedRHSzvEp0WLHWqCNWr6WssdvCRMpu8pcXNd7HItd1KzpnV8rfwyhwRtkEhYMDvOIa/ZdopOtr1K7jczkUZcyAthx72tiqNQUFfY2UtfbQLWxRuSrifV3Pha5lXGcR5/tmsWuTVAhedVZjpWkeZubKVGGRqUxLlxGpWG0pRm++8tfDsuaeIjd7Wii2dsRJHvhZk7A5TcerKb54BIptQIzJjY+N5rtU7TVWGiB31zsM5fiazn5o5Oucy3urhHvbu0uUml1AlQa7Ty3Po2lEZ9z0X5KiaJB7dOBIr5FxII4SCOEgjhIi+qqKToxVBzlR79JhHLZBHCQRwkRyOVZPr4ppXeacYc3jYxpbmtx1m11uUd3F5r3s1doFHpaRCTWs1EQrv58shdZviF5lrGJUyx8Skid5nGruRA7rxnVM4SOM2xjNNSPGavUDlx64oajS67GofFg7kFBeIVlov2N9moLHa21ZIyMFULbHP4pUs9C6VkV1Y2cq/wA7j0iRoNY3Uq94ffNrKJ7qNSNLsfcsJIeYsSVhqkWQO/rjKqXF73rPWWbI1lujkXOsyYFy6x6YM2uuyv8AFnVy83ZOud8pdVIrpbFzVmHXOwI/O5yi0XnLn6olBcTEVNez9vZzhopZ11K+Rvsd5VZ8zYNj9mak9wUmXr5iRXyIkEcJBHCQRwkKLMu41RzJ3LpyiSfjHndiRypBHCQRwkRyOc1e38ZKd74kalPYTeJHrdBUpfnXraJA+8bIqG2pmqr0N91l88bqtuae5+zaoYjD3zpJ1NNvNZTrnjYmfOs4hikQO9vH78V4mWi3QRoUCq50/rGduesscCzRM6a/uUaqkm5zbnTvbZFBNrMyoZdrFCsGBiyfzZrSlR0UukzVOGX3tVubm8uM+W862lYg8NRmtkCNLZueV8TTKVJn2M3Ll0zbm4zLvqXnrP7SGr4ryjSY8iPbym4mzRoxjtjWomUx41Tnlr+lpLTqdXWclOtnKbhL2r2ZLCjZzOF42gy+ks2szi3lcDKPFmtGbxZdSMp+Vq8JEVI2uRAn0AAAAVcQp1DVF55g+Yu/ub2VMjlmOmbz6AzoACPIjkKvsV3L3ZJl7qTO1B7HxSjVkrJeqPlL3lxkEFqUHRaCJFXpdKoIvG5uvakwVZc1qHjV815Rqe8q05VuC0M1dob5EeRbUSSJFfwl2lkWd4V82V7q3TUpC1VZWSJY16dqyZ4m6OLe2ePQqkxq1FdvWb68eFT89Xn2+c2kXbSn7rHjyKwu40JrTzRQmJazr162U9nWec20jculllyoWBeUPkw2QY1NfS+4UTqjVFso65naNPfHpQrZo8C1XuE0QrK+665rkBx9S1FxCtdc0XjpBjui+HTiJkxo5qsVr1LRTl3Hm4SfD12m0Xq4ehPrnuEVUB+7FJZkjp5o5ICOSAjkgFr1Dkx4+cviWnyo7L6ZKNkqOSAjkgI8ewjlTEsauPnuruA5wrKy8XGRMls7SiZCimcoxadllvFbv7hlxBsKVJ33j0PsmKHCzpG5VaZU2CT+MHtV1IJCwambNlzjm+DKgvbDCmlqC19N5qUnTfGao+NEjWIPPQvMuTMD32XItHlztYxZucpM1i9/oEdEKc1WkZ3T6XKXPrxi92K97LkwormkR86zB0venTGfzG37jWYsjn51M2sG+xzrGWtw87xkOh3ErOq9N0mvsuo5FlyJs8WOPSlsE6ZVJSO0aFTQqnrrn8qLvhLGd6ew1zsCOXKYpu3Pn6F+oeOVvGXImsI3Jk+twK9h7QtxW2JXlO0HhK49KyX08pIr5BII4SCOEgjgkerawjLGd0jWKC/p0mVTfK2VZII4sgjhIjkcjULFEyQ75l52LMF3+1QUGn10qoNkwWLHr1Shc4PpVBee5UUla68LEljs+dK0R76Z1k2tR5Gs5resXWXKW9wj2TpFfIXjOAAAAAAAAAAAAAAAAAAAAAAAAAAAAAAAAAAAAAAjgSAAAAAAAACOBIAAAAAAAAAAAAAACPIAAAAAAAAAAAAAAAAI4EgAAAAAAAAAAAAAAAAAAAAAACPIA//EAC8QAAICAgEEAQQBAwQDAQAAAAMEAgUAARMGEhQVMhEWIDMkECU1ITA2QCIjNFD/2gAIAQEAAQUCFEu59h87D52HzsPnYfOw+dh87D52HzsPnYfOw+dh87D52HzsPnYfOw+dh87D52HzsPnYfOw+dh87D52HzsPnYfOw+dh87D52HzsPnYfOw+dh87D52HzsPnYfOw+dh87D52HzsPmhm5+w+dh87D52HzsPnYfOw+dh87D52HzsPgxm7+w+dh87D52HzsPnYfOw+dh87D52HzsPnYfOw+dh87D52HzsPnYfDDNuHYfOw+dh87D52HzsPnYfOw+dh87D52HzsPnYfOw+dh87D52HzsPnYfOw+PqlZV+1t59rbz7W3n2tvPtbefa28+1t59rbz7W3n2tvPtbefa28+1t59rbz7W3n2tvPtbefa28+1t59rbz7W3n2tvPtbefa28+1t59rbz7W3n2tvEKadez2HwHzsLHw5rvSdK3XfR91CZzzsG4UQLU3njvDmgS1NJ6q23Z09Wb+72N2yxSLz147Vm4GRokuF6vZtPNrsVuFtDSe6aakxW2jsgDC24v0mm+wqLVmbaSlmWb1yY0KtNuMrG18oVpdtmWsVrIzDDa7Fbndr6sXbKwm7SY2pSatEqs393tFmEUXEoHHQwmBFFtpq/bc1FqwYspqHsnAZb2HIvUO6gfV6aAj2hvMUY8pbX74XMVoAtC+bG87qJi4LB2N0ybftZmS9oQ69NORKi9Y0rUztTSd6ZYI1XD+ebtXYWy9wywgrZlm/HqI865m3npxx+fi077rbjjbISwvh6QWsG5MDvDmgW0NJ338ZKlf47SPUR51xbFz3mG+H5b3rWdR6Y3WWLxU+nziLTMrBNc7FYsWwttlpWTwZrav8jfCwAdkCveneDi01SyAa3hN1gfT9YSt25Yt6TRPBmtq3GQSvK2a+0nUTOnp9TeWEl/ezaJsVDzRdbc1FpM7vgLBNc7Uk1e1VRMkLBxhps8Gp07qDQy4Xv2I/ekfsJbWurFuaMIkqrjf78B872q26eoS0A1eqaFjZjeasbQT1ijpduwtkRWtapwu19rXq2iFUBNlm2kjaDoN1CbGEpzmJsVqOmRIcCtbp9cnC7X2tTTd1ZKh1FkFO8Pp+ajabz61m+gpWGWubDp1aVeUTtozceew2+J5lgIXZ2Fbp9ck6pOTJKBo9ZsLoX9zt9prqNHuFvY+XdAYfrLKvjYp+odjdAC/WSHTMLLEpzmKBB8K/rWbJlSn3CEgu11mn5Hja/fuP11IhGLM8W1en968a3U/gjKsRetgtOvLUDkGq6gWK7UDKdG66aGRdMfzx8Z1rBoRfttQPiWcATH0fYds1/HY1U08DDduVZewBXE3VrWbbeV5n6+t0UqDnhF1TDMVq1CAn2frRfYYb4fk2is+O4CaFZNVqzpZCftGYCsaueqZiuBGtPZHmrZPJfkb4XUntJVMSL6inZgrLNVzIEdmiYT1qyehQJGatk8iwxYrtV1GPaNqqz3V5CzHSKmXCecxirPYBsgBfrJVy7FTXQFY1czovo1VXIgxtBdNIVcewZmjYsVpZtSK4tY2gphcrrL0rUa8IG37Tf78AOXdxyzjlnHLOOWccs45ZxyzjlnHLOOWccs45ZxyzjlnHLOOWccs45ZxyzjlnHLOOWccs45ZxyzjlnHLOOWccs45ZxyzjlnHLOOWccs45ZxyzjlnHLOOWccs45ZxyzjlnHLOOWcXdNKnWrsDXjXkGvGvINeNeQa8a8g1415BrxrylRBlKFIKGbrx7CJbQBwhLu45ZFAcTxrxwPGvHA8a8cDxrxwPGvHA8EYDNJAczyrxyNKvHI0q8cjSrxyNKvHI0q8cjSrxyNKvHI/HLCwl28cs45ZxyzjlnHLOOWccs45ZxyzjlnHLOOWccs45ZxyzjlnHLOOWccs45YWEu3jlnHLOOWccs45ZxyzjlnHLOOWccs45ZxyzjlnHLOOWccs45ZxyzjlnHLOOWccs45ZxyzjlnHLOOWccs3CXLxywHz6nLOwVsI+Y6Wfom268VZSuX242Dt55tLVxRWsrlNNAB3m9uns3FVFzugnfMr2lfVesA9OMN11gjWkV3XzrumKxhSpS6nLOwVcd2olSfSpBaHsD1bekZ3lDahFVWRkmbamd7Bq3pd2Beo5TObqaO1K2+idh29FwfVrXUy1lZugsrFhZlGa/UlVT1ic7S2o62RbAsgwCGUejEdVSjspr2LO7Peg3hHd9P7sH0z+Ot5nh1Voj03XgjLX74WsldCebXsYXJ5dNnsnpWIrGya3K3MWrDbyfWov8L1GXhpfPdasOlN7lWD+erOxUE8+RZkVo+aeriwghJ5xmwjfG2E9vIT+uqZQHp909zYsGWVrruR7Fays3QEedZfPaORzVq0Ah7Ywqbbzx7Zy1daqd9/D+c1NL9UNghaX7ByVyzdeCkYSrgXWLHncCQFGtvvyN8LBL2AEQgBdBrxtdPTUBarcJN9OI6qlHbC7VEo3XirKZxYRb1Gxq165xNKzykTGykvUIlvTQ2QXT68VX2IDIzW7alWJVwLrEAe9pqMcNOPRM453ao7BLwYBLHZBNqpotQTDcXGjFmlpUVReb/fgPm/0wEqR6ckIBqSsF9RYnXLWtAsGKs7dcFB1ixMhcFUJVsLNHqnWk1BWEjuLn4RV7jNjGosg11jVzYrLZSb1YJeMRPdMBKl6FecVenNCw1TaspODs/Jra2KKToXtELQmNWFrLAzMax1IzlUcuJBb7rWs20EVe8W3WrLRJeVY4Gzp69qtr6dKVdWjRJq5YplmWq+kYr6/aFi+xuvsEz+hKoBytsbCslXPuMFFcwn6iYOnlg6XX1+6EfK1DZjvlVbjT/Tts1NeLHwihV4GNMVEOKrvVdvVcfJBa9OAmqmP5tpFnE222mRQ2FdkG50RtnVe0mPVMmDUa0EngBV+kLe9T24JaLJLdGDy4fqwKx2Mxtqik4zEDrSKO9auIJkJWwJsqv5sJ3BbJlFvzPRSOnFB9xnddYJklRyWAgixF38jfC6XcbSrgvL56ewGnZVbhzdlmdTaFi+wdMLAvUWJ12IWsGaus8Ja2rnW2ktu71TolRAfl4q9O2WfHX2KEk0T1iW66wTI5Star0dPx0yg6xFarKU0qewMmWDZSnrbWwXMi6u/6Ceq5dFs1hv8AfgAx7mHEVJrsJt6Aym1LY4R1NhMYNGV2UDCbW+GOHmsrAfEaHDHNcOy8McYOopm9CiNc6jmcMc+oOadnWCmLhOMvCCHFHJQhCI4jLCPDInDHIyBMvDHOGOGZSWIywmni7aLkuGOcMc4Y5wxyDSRTMHUUz/08S5lG9F2AGuGOcMc4Y4c6isuKOcEZEUVSHqCYRygmEcoJhHKCYRygmEcvGXXzdHUu79RUoQkmGYw6ASEBa7oJhHKCYRygmEcoJhHKCYRygmEcthVV3BMI5QTCORUwmiRMJtETCbREwm0VMJtETCaJEwm0RMJokTCaJRR1HhjnDHOGOcMc4Y5wxzhjnDHOGODkubZmE1yF4QQBJdqHDHOGOcMc4Y5wxzhjnDHCij2ziMcVzqOZtlOJzkWUhyreOGwrmScMcgwmQx3a9SYNgZGciykNnU0uOyrDT4Y4OS5tmaSWnxRwzCa5C8IBgmu1AvCCAJLtQ0wns/DHINJFMwdRTPoLQ1zKt62KPLwxwHzsirqKI00N1ZuP3cDvWUNLzPXSrGj6YZB5wS2NrvUPK6kQOKsfZtSOsDMWutx3Tmgk1BW7o1RP1CMBuXO+oFOFFYguobvUdQalNMl4N0PT5TP1p3LRc4AnfraGAWT9RrXZo1tKr4FzC+bZTlcgFloqFINZBeNJTC/j6uWA72ZyxsrGzbT1WNmcYtAAWx+FeiWupNeoUnEnUVrvdnq3ckFkfUBxUy9mzBxbZWT1JgMVuv3+0ahkTtoWw7NrfSh2HT2q5bB3crYpqlaxKyKi/wAL1Gaa1LA7lhZ9Kd3rB/PJc47sTbsKSssiytxu2U6CysWRsMOl9fQDL59u5MLAr9iFOuCxWOiS0slOZuxs9XDe0ztljfDdsp0BNFY6kw3w/Pf+mBeWto0ABrWFQoB4dbLb2l4RV6n/ADN8H0wPBUjBu3VTAfo/6J7U9aySkG7NNmyuheJYpgT6YIu7C5VvFvBZ9dPVEluAwAFYXJhaOKgANawjA8iVI9lqahQDw6kS7dFTg5XWgTnaNS9bbLSGrVlHoorQAFsRCNu8hruXZFBTqLf78B87RD2S7ymnldU7Jj7ozQmKj4141HbsFSfbU6U8CMVEtlrq7wI2Nbtwq9JuLK9S4CLaDZGWKDuqU1XwEZUA4LXTKELEiHJaWFbt2Z6QrSGqcxGGQ+QtHp43ikqGNWK9ApBRTp1NOyFSsrD1r6anUuQJKmjqkKlAyBen2TqlqWNNEpPqIKB9wlRMnEzTtksy1zLKgqcs3HOla1gRaeUXIdO60JdF2JS1B4nRTHXqd2olUhq1EvApXpVxjoQ132Kf/ryCU+GChZsI2VcilZMoW9fMRhu9PqbSTH88cW2SyItzVwwsbsRq/wBkJtvcoofVarFxWFiHcbOFbqAl/LExBM64zjMN2SEIVwxmhZQV4qSQZefhvh/sHiSYkah9RwtMeJTUkPHQrZLH/M3wuK4loomo+Em+nicT9MdlvwWzKxqGCsFHEwoUBexivb2zW18a1exqWHXkxNi1VoeuAeJJiRqH1HPTsAmCu2msWmPErtDsy6q7w9nqisBUqeIn2+WQiqkMWVEycTFUbzPQi9arVlg5v9+AALu4BYd2vXadYSr4NspIKnKmqurNV1fgFhG0RN6t6qSyTKNhHgFnALOAWOWNcgReSrYQsosNcAs8lHzi3NWExWUQKJuIP6Fc1JjcAs3cVOj8As4BZIikGjW1UufgFjVtVJlYbQUXSbQsMaIomNp+uTKM6JVUWErEPALHbCvryrtJMgUs6x4rNtVKFhABIbCLWkmUrEfALOAWaCPmDtY+cAs4BZwCzgFnALCxAEYYKtBPpVMPCLFiKODgEfdwCzgFnALOAWcAsdYSr4DOmSPALOAWcAs4BZwCzgFnALOAWcIsHBcsOAWFCPUeAWcAs4BZwCzgFnALOAWcAseaRrQ/xuBSzrHitWtWmWIwzjwCzgFnALOAWcAs4BZwCwoR6izNRMKdhXPknb1QzuuIV+RsK2aS1pXNm4BYG3qjmataxNhaSzYXXEK/IP1xEx3VUQ2xBjpJyvsdsWlYsUcVyjatatMrLSCYEm0LDHDpICTZRsIxtqqbGwh1oVxUnM5YVyBNsoaTTer35bCPm4BYD55chGN7qFWJ3rp9SxBDxnkaljafR4ZWO1y14y9QUgNQJKew9TWNkyYMFd1mbaMvp1kFcaRN9OU9GRFe6Yvtqq15kw3okrZMjD5bUqhSSsjxhbSk6Xyzjbr+m4bO+9YaaSV0r4nU9aR4fTvtJfR4w19xWTpq/XkAHYJzHT/Rkt90+EJ6zpr/AOR1wukGk3iWlpYHZqr7XaSwgYK3mdqSo25bQ7QUlEwb2Ga/fN1nNanWXQ2jfZhtFbulQEe3582qlVg2UX+F6lLMFGGJLS26T+vqx/P+ikGC9ObmaytUwlt8nKVsu5qTC5NwUU20ZfWoEtbZrydHsfJpatoRKdmtOSYgmZYX3CQm+mQ6FR4b4f7HUQByqLv/AIvfa7SUEYzX6V3vdB+Zvg7FbYVolsrBOA5dEQYXSRlTNHqZvWFexa2B5o20YQ6TkjZDtVLkxkmG1loU6RV9J/3K2KKBh00dQtFxuHlTiC3UUEYzXpiKg6erVTGbMv49zYykK4CdlCkNGExXfeOFX/rdj+L/APp1Hv8AfgDi7ucWO1AXjySXJjqybyzKwzhrqxeuCKnVDnireZ6lLwUU1kZPAVsADqk45OiUIAlQGbiwxAEJVQT0iBlklE5PEp1JELXIFUDWKh0tTDUHziz0aP1dRWcN6hDaS9YsB0tIkXcSBhH0wYnaqguRAmMWvQJ7ExXLmZggsBKvqg10/QI7WJVLE2CsQEqtVqgOSnVkQlWhJZZNdfPTpxArWqpuc4s2ccZqBlYhVFvTM6uDa8dcji2u3PAiUEEYSKrbo16zj6FuoZbvapQDQWgYfdziyTA9ar6wpq79rxk/KLIQz6KiNsM5AnWzrNGAwr5ByJhmtBQXAFXtPNTkKJaA9b1qTdNASanOLCmHuPOLOcWc4s5xZziznFnOLOcWWaIrSAK9cai1WqA7FQocwdrri5xZziznFnOLOcWc4s5xYUw9xtE1rUCqmlizo0Z7dq13G/XLzVBVLDPIgZxFSpCkxWLGZRApXrvVoHXExRU0gutXAPIZhKU4VGSVK0iaVWGJioUOZyqUbiqtpbZK5YyqSSqW40aMdzAApo0af0brlmWN1tf69NBZQ+zD5ucWA+bLA1ALXYjnTeG7J1ySmI28XmssrtWsm88KvApcDaZsbherk7aiTMhYisR5B4ZH/wAU7hd53+kr8EUlLCbRW2xIriuhzOe8WA9YWQ66Ot/XWWV2rWTdeGhrBdQc+sbaEisK6HM7FzJfcr4UVknZN/0JerCMtdCOwS9WEYF4IrGa/eE2y7/E5dLgUYi4qwba4cReHYBH8xMiNP8A6DDIlYG+H52luvUim6ESa12I52L0ISsW6wF07ULeC6iXLL8jfB54NeBS4G0zPqNaO3LYShdXq3gLWk2CylqERdRLlkxdaC4sbbAXbUSRQ3A2VdX38kpYBHW24bTZb0cSLMDbAe9CErFwsACFoJ4j9iKvilaCdkPqJYk5ziKA+ol57auBrse6U9epbDaY3+/AfPqr/C3u9TLX1idgansJD6YXgZHp5evZkl1Tr+1MmALI7OrfuPDMEjEWMqJsBx7mesO3VbZL17MknRDsbVc5DdPgRWrWbGxfEnTsKCuqtFNuoCoGzvK5WLdJA7iNvcNOaqDrGr3LzX0b6hTXYeAqWyKtO0BW9TfX0/VetSU2qGr6hiszV0zZDWlscZa+lOsavcut+Ue0S8lwrzyREKyvEt6dM8n5PlerQV6b7+mA2+a/fOW954wqzqAe9a6EKmJ6+SrVnNxNpyqS1IJKL/C9V/8AH11A2d10l9PVD+bKa4q633r2CqYiZJIS3T41Q2l5DvjVkNNg69ezJICQmup+oCD0pXQkl1DVopt1EFA210cYTMEFBF9yWvtcSIHeo5gGai2OAQ/k4RoY7jkl09d/8Xvd6mShlEa9NrcJW+pFsracJ9J/kb4OsAUXVVYbaTmOHREXPXoHqO2nOR6qbtZ2JEbacJ9J7ryFtK+xfZQZsJKwqq+acKz+fY719dVH+WWUNYSphL2NRQyiNenaHX9OVyBeYywkLmx1KdwM7ldRmmMYbzZeOr/0vB/F/wD8uo9/vwBo9xJDLBSrr0Skpq0sirqmT1OGojpq0RHqmvsSeuR8ROtQRKyIDkHUUrDaayteO1FF2KqHqyQpxJFPW62xqsisCtRhVG5o5EYIM7p63bDVag4b1tf4ideihMvEca1XXqFZpa1w2klNRZqq9so9iDB6pr7Em6tCSytekkXdHVSI4mm9gkkgLLVdeoXYl5NuqqWEU000IgqK1Y2lVNYnWIIE8RPFqiuTNzRzm1oiaDDQlEeGcqYTeRAQrAQEyVXFoEKuE5hfIiE7Xsl2a3TJqteKIYFj3TroNMCqo7nBac4yT20o1X+0IMM5LJrzXXHTi2UA57bs4QaCOrimX1AhMN12jkKj/GUT3V6jSiXiMRU2ZVuhqj+gleaOc0c5o5zRzmjnNHOaOP1yVniqCaYlKuvRK1U1zhmVlHAJqqIRDUVoD80c5o5zRzmjnNHOaOFLHteUVshq1iSZp09bM7lWg8wGuSAFWprkzcscDUVoDt1aDpVoAUC5VoPMJqrIaVCukI/EwJekrVTsVNc0WaypNNVNc4ZytRfxWvTS3uuQkkmqpXxhT1gz+Ot5IqSrCVyuRfntVOSiaCVfvZY8vNHAfO0e9agq1YlKV5UBW2hpLi6iHulJ1HuFWEvMuB5ZratxYvDaaGktTWO7VKwsdpERspsNM3kAW1nYQrVGOoxLUyhvJXtryFYZtoaS6V3A9QrZNlMC8XnPW/rr3IIPP2g01VbMs3HLiyRA3fxVcZmaAdW70Hj2Cy8k7MbFYayANIduxBolyeRTXcPHVttzn74442dhCtU3efSuA6s1vfUJdqMNu/VW8IRQduxBrNfvA5oml3Vm88sGwFeVBhLNIWFYCAUnw7TRZ81N1jaipnllpVb/ALFcfz/pEw5k8xfiXbXbjB9QhpurDJMkRQXcWb156vOw6sphGBBEJxcwdshiMz6q+O3CaAIEiWGG+H5wutztnbOYGoXo9JitzxYJcnkU13Dx0LKTLH5G+Fg74IFrU23t9Qk4WrMkC+/7a5VqxKUpYgFC+L2GtW/YrTMQLtgYDCtqZtfVu9B4xdAFVWsrIkrlghFrJdlUlyeRSXOpLI2kmGHLeAYp2uylBdMMYUmgi98ccWLU3me+F65W0LJzf78B87yC5KskopPJeBxsyIRoBdl6TtZjH0zbk7+lYbqfNmNFSmYI4wz08Vk1VaRNNhaUkLLciqGdmzJ/c+XpAkbCLDk2RqPEZO9GRWuk5Fis3WeB5FLCxlQq6X+51RgnTh0ZjqQ/83qFyOt9TJwsIzpf5jSm1PFU7OCLtWhjM9DuKhsCAq6O0NaZHLqG3ZEWL0md2BiRJ0qbh11JEKxqC0eMCi+q9FWMz1C5zX7z/T6G4vuaJhj6H4Rm6iq1xTxc3dXKT/l0X+F6r/4+n4/vOkOz1A/n/RMkBdRKDA5S85u8K/PUpgGTqfqI0ILKylDqir3WegB43vieF5JtRlatsC30ymGE+p/pGNDH6bjhvh+bjAvuSRYLdTva8sdsyF81Q2BAVdHaGl5xa6m/I3wsrAVYqgvsx1nQg6Qm/OuUOikClJKKT1ktZHUsXAOdNGVry2tSawcrHbMyeqpQSgaX+Y1KWo6pzi3bDWWfnTmGxUVDYEBVzvp+n6xWAttSXXtG9extdF0tTFcCHLdkRYpGGneR/wDFZgsG+ot/vwBJd25blpdRdWRVVzk5JZwi4jpKtYuqupoCoFd+Ets/JLB6iGJoQYGAQ1YTjokty3LXCLYuSWEjo0eSWCjEMQqrrEIioXO/esMmsxvshwrhEpGMYxJuMZF5JYKMQQmquQ21w7XEIYBATWVmZUDEyxicYBwWHBJUZty3LXALjAsBXJJLSMSMTa3LctATWVnySzc596NU12rV0xZun0yTSZikgmaWSq9th9Zs24Es1oynYNQNWyLJIG1YwnLu5JZySxtDdgf105iWr5rRHVfQ4lmIHdgVgcavxs9ZsJz1siYRI3EuiWuhGnituKh1ietkIINbAHklhZy7eSWcks5JZySzklnJLOSWbqK6WyrhOEetCGBUC0jKgYmWMTjAOCsOSWcks5JZySzklnJLCzl2sAE5AFcmqTaq8jsIquTAourFdRdWXJLIKrjMwqu3kd9kWEVXJrLAT0KMQQLqJxjq0AkMmsyScIF2ZUDE2VV3cXSVU344fHAOCsNKLxP2R0aCSozMLBbzf02NcAVNbnLl5JYD5/8A52v3/wC2P5/9I3w/6hvh/wBzf78//8QANREAAQEFBAcHBAMBAQAAAAAAAQACESFB8AMQMaESEyBRYYGxBBQicZHR4SQwUsEyQvFiYP/aAAgBAwEBPwG6sn3iJcmfEH7R2tymhH7b5/eEU9+0bp3TchFCIvEbjDbm9CCwdfWb9jG52wIIQv8Ap+Pv7ZvR7vxov5Zr6fj/AL0zVpqv6Pr/ABMap3jfU/jNNaLzoqzLAPiTuzOdHL0+cl9PxnnF3zkmtRouZfUs8ckNQ7xPqXzkvp+NS+cl9Od9Qd85IHs73x3/AKd85JoWYdobYgnbUnbQvw2AmIO5IYKVb0ca33GNcV/Z/mt3NHFGfPojjW6/cjhW+6TlNHD16o4o+/6WLSCNhanAU9Hs9rJnf19l3e1/HfXXFN2TbAeRv/XyhZNth7ITTJZaIaRsLU4M7667kez2smd/SFQXd7Un+NOrNai1I/ijZthqIr/U12e2D/DTvdHs9qH+Gqemuz2of4d/T3TXZ7UP8NO91hsTKPuj7qe0cEUca3IqaGPNMwAW5Q6IPnca9bgnwejDPJGD1hdgjjdNDFyZ8RCEQ9V+r5PukbjB9SfeEWmoxRaai80C5FpqZoItE41gtJpkBxUyntNT3LTaIe/FFpqMaEEW2nY41+lpNP0n1QWk0MCtJpmeH+oFoEAGnPQbMjR2vf7k0B1QiBc55d5ZoF9xhXHYxWO2+aECuF81J20LtZZfhn1oI2lj+GfWgtZY/hn1oJtqzaEGXJlqzAc0y+uqaIJLg5WbTLJeQ9adi52hnUM+K1lj+GdQz4ppuyaDgznUM+KDdkBFnOoZ8Vp2P4Z1DPitZY/hnUM+K1lljoZ1DPimywf4h20+e0bpbQ4fYM/Jf2BX9XIxrgPa6V01P0W7ldWaOFb0cVNHA8+iMTW64V6OQxemYO5KVx7O3w9cI1vR7O3vE58fbzR7M1wnP0qKtLFpiJrBM2TVoy8VwTTJZaINx7O3HCc+KPZm44TnhuCasSy0H1Fd2b3j1nurmV3Zvh64H3p6Z7O28EulPLzp6Z7O2HPdKc34edPWiWPCdlkuL0B4QODkff7BuKmnx5oQdcC4v8skILFGMaxv+P2h4nJ7xyumt6MH1IIwrg+6snrCuCGMVLkpqSMK4ozqa+bsEZ80Z8LjB6MM+rl85KunujcYP55IwzyVZIqarJ9xhn0ejCuD9ndzuAeXeSBe479oo+6N00BHmmYgKSAeXeWaBesEYVxdcE9bk+9loMF5D1rnlxYHpWTuK7w/FkRqnOfNNNabWEVLZG5CN4iVjsa//kVU1r/+RVTXeNzI9Kzem7QNh2iAmLTQDtEVWOKaOkSVr9zIrrzetf8A8isaL13iYZFVPktfIMj0rNG1Ba0tEVmte/FkelZLvG9kV05c1r97I9Ky5rvD8WRVS+/JG6aEUI4X4nYFwg7h7IQA4ILdUrhAvQhXG4xzzRVZOW9TQLi/i9AOU7gYvUnVi9TepOuNkxHxijn+kbFj8xPMv5o2LE2xPPqrSzDODQND2TNmGxFp1VFNAMtEAvu1TJiWxvydQRsWHfzHx78M0bMabg0IrUsHBsUHcv2jYsF7mxGuWHNGxYODYn0dy/aNiwcGxH2dy/e0UYoxU9qTrjdNPihC4Fxf5ZIByxRjXH/wf//EADERAAECAgcHAwUBAQEAAAAAAAEAESHwAhAxQVFhoQQSICJxgdGRscEUMEJS4TIDYP/aAAgBAgEBPwGoVksFS5SyshXPzUIrBDgxTow+0Sysh94lpw4ATRLhfXbR+y+t2n9kNt2g/kht20E/6Q23aG/0vrdo/ZfXbQz7y+u2j9kdt2gE8yO27SPyX120D8pCO27SPyX1u0fsvrdo/abVT/6Uv+lLepcTQZGKMXrnRvssjFGNsujGrmnoyG/PRlz+2iG9ei91VIOnpu65kN54rmFi5lzpqTNOKcm3iZGNqfgaq90IcDI8yxTIxqn4qKpRfv8AxExU6IT6VWTkrmWPZD/LIXdkLJxVk51zpVermQt9PZCwIeF+CNq3hPRClR9vbyhSo35IEHT5TgWq0Dt7BClRh2QpUYPl/VvgTMshSouxThgt6jPXwt6jM9EKQg+XuhSow7e/jhFg7oeELu3yrhwYqdELVRgfRCxkF+KNnZU4ktmjeUXb1/ipMrNUITlUYK9kI6aoRZCM5OrWZCM9fCFnBSLAowLJ57PU8HV7VXiq1pvaowRtVzzir5wdQ4IBNFlCejoCfTzWIqFs2smx4iW9HTRbrpwuystqEdNUKrkS3o6pcpOSsJTsH66IwU+3lCLTc9YQ5VZw2rCo8wirY13Mr3rurIRimOKakL5sW6cUHCINyCpB1zO7pjimL2pjimpYpqWKNE4qN/E13EKr1eghCs512o8Ag3VEchE3onmJVGDT+3lYBXplaEbEb+9Qn0ZXzhULEIH094oQE4rDt8eFOrohwypxFLuiXpGoUmnJCkHnDyhS+ECDPVOxTvUKQE5eVRpAN2/qflImxGmFvBEuCOqp0gXbP2RO8XHDSDhkTzE5uhDTThZ1bGbEEPGiCCuREOzKlF80YklEOG66qkXcqzVCDZeGre/roypcr5Jojr8hBXK8KjFpx8IRqnVlbp7oq8dULH6r8mz+QhPo6E+iFquU+/hCLZshdnUIgTc6vnB1/NV/PlCoRbtqhFu2qE+yEVcFOrLCcfCEdNSyEZzbh/mqNhOH8VLl10RDOMOB2TMhahHTVCyq5EwfJ1TgTkjAlEsH66KkN1wrUItn4eo1PbwHmTMN51uZqwOr+EmDowVlRgIqwoIVbua3c1uoAi9EOgt3Nbua3LnW7e63blu3utzNbua3OG77YquRgjBY1GA4DUYgibXRiScasZveoxHrqjF6h49mQsborpxdYZIWMiHDZMqRdNBlbrqiHCMS82MrmX5PUCQ0JZkKRwlmQJww0QM+vlWK2pyLpd0KRBsTw6LeOEu6FIhoTHyhSZoYaF0CRdLvxCDd9UIIQ00VzcDOjG1XoQ00QQqIh2ZUuYnNGJJRDhuuqMahBpub/wAH/8QATRAAAgEDAQQGBQkFBQcDBAMAAQIDAAQREgUTITEUIjNBUdEyYXGSoSNCUnKBkZOxwRAVNGLhBiRzo/AgMENTssLxQHSCNURUolBj0v/aAAgBAQAGPwKbS6A6+PU9Q9ddpH+GfOu0j/DPnXaR/hnzrtI/wz512kf4Z867SP8ADPnXaR/hnzrtI/wz512kf4Z867SP8M+ddpH+GfOu0j/DPnXaR/hnzrtI/wAM+ddpH+GfOu0j/DPnXaR/hnzrtI/wz512kf4Z867SP8M+ddpH+GfOu0j/AAz512kf4Z867SP8M+ddpH+GfOu0j/DPnXaR/hnzrtI/wz512kf4Z867SP8ADPnXaR/hnzrtI/wz512kf4Z867SP8M+ddpH+GfOu0j/DPnXaR/hnzrtI/wAM+ddpH+GfOu0j/DPnXaR/hnzrtI/wz512kf4Z867SP8M+ddpH+GfOu0j/AAz5053kedC/8M+v112kf4Z867SP8M+ddpH+GfOu0j/DPnXaR/hnzrtI/wAM+ddpH+GfOu0j/DPnXaR/hnzrtI/wz512kf4Z86lxJH6fH5M+A9ddpH+GfOu0j/DPnXaR/hnzrtI/wz512kf4Z867SP8ADPnXaR/hnzrtI/wz512kf4Z867SP8M+ddpH+GfOu0j/DPnXaR/hnzrtI/wAM+ddpH+GfOu0j/DPnXaR/hnzrtI/wz50Myx+kv/DPj7a7SP8ADPnXaR/hnzrtI/wz512kf4Z867SP8M+ddpH+GfOu0j/DPnXaR/hnzrtI/wAM+ddpH+GfOu0j/DPnXaR/hnzrtI/wz512kf4Z867SP8M+ddpH+GfOu0j/AAz512kf4Z867SP8M+ddpH+GfOmiklQByo4R+v21/F/5X9a/i/8AK/rX8X/lf1r+L/yv61/F/wCV/Wv4v/K/rX8X/lf1r+L/AMr+tfxf+V/Wv4v/ACv61/F/5X9a/i/8r+tfxf8Alf1r+L/yv61/F/5X9a/i/wDK/rX8X/lf1r+L/wAr+tfxf+V/Wv4v/K/rX8X/AJX9a/i/8r+tfxf+V/Wv4v8Ayv61/F/5X9a/i/8AK/rX8X/lf1r+L/yv61qS4DsyEcY/WPXXaR/hnzq4/wAT/tFQQwxb+5uCRGmrTy5kmrixvImtbhUz1JM5U8Mq1WtnZXt/vW+VlJu3OmMfb38qlmur+W3tETqLDJu8eJJqwnkkmdumqFYcGlj1cPvFJaX9p0Z5ULRMJdYbHMcuddJt9nvLYl9IkV8uRnGrRjlU1rYWnSDAAZmaXRjPIDhxNHRdSQM10+p24uE1HgPCt3s68lvrHckzM8u8CPnhhv0q8urW1aO20sI51mw/hq0+H21DqbiUHOrgw7OMkEHpO8ujV9UY41aSWly9tbSDXJo4OwxwGe6tpW1rcyXFtEoCPM2vTL3jPf3VYlNoXNxtGWZQUZ8pIPndTuGKmtbC06QYADKxl0Yz3DhxNNLO7km4l7Q8QNXKkitOtd3B0Qj829gq6lSVp7iJpl3sj8QATxq2s47drm9aPetruiQF8S5HwxRm/d8/SA+jcevxz9H10bK+thbzbverpk1qwzjwFXT2MirOqZBJHCtnrs26vH3mTOLpmwVx3au/P0a2dJ0txFJdBBCnVGNJ5+NbJ3Gt9byAxq2NfV76uLKaAWl5HHrXr61IPf3d9WJTaFzcbRlmUFGfKSD53U7hisZGakuZdnMtnG2Gcy4fGcatGP1qO0sbfpVw0e8IL6FVfHNYTebMk3mmXUOOkc9J/Wt1s28lvrLdEzF5N4Efuw36VLdy7SuDflvkVjfCFs8ECd9C4vLi5t9EeX3VwyL8Klu7uabdzHeKJ5S+7j7uf31DLI7pbT27tFBnhpBGGI8TW0xtG6vElib5EWzNoVccM6eGfrVsSLIL3DLvWjuN3rOk8MgcvWKm3Wzmkhtx1nebSW4cdPDj8K2ZcJNLFY3DfK7o4kII6uO/7q2iwuJn2fAgP94J1qe/n1se2obm5sdzZSlcSb3LKDyJX+tTW2z7TpTwAGUtLoAzyHtqOUxSQFh6Egwy0/1R+tXp3cssnTtxGhl1am4cvoiktL+1FtLIhaMrLrVsc+4cak2nuPQDnd6/A451BaW1pv5ZoN8PlNIHHv4Vei1sBJ0SQo2qfTqx4cOdWlxYWj3JuQCozpC/WPdW04JoTa3dtFk6ZNQ4qcEGrF5GLu0CEsxyTwq5mOvqj/hyaDz8altbC06QYFUzM0ujGeQHDiaaSZnYmeX0zxA1cql+t+g/ZtCIwxtbW0AfG849/Hl3/Chdrs5yJAu5RZMls+PgPXRsr61FvNu96mmTWrDOPAU9+th/doy28+W48DjgMcfhUdpY26zzPFvevLuxp+41ZvcW81vI92kZQS47/EcxW0Uuo41ihm0Lh86eA4cvjUcVnZm5ZgSWZ9CL9uDV1c3MTQvauY5YwdXW9X3ikivdntbiRSVdJN4B6m4cK6Tb7PeWxL6RIr5cjONWjHKpbXZ9qLl4QDKzy6AueQ5HjVvMsB1SXQtnjZsGNs4NQWW7zvYmk16uWMd3209+th/doy28+W48DjgMcfhVrbW8cbW0kBkOXxkZHHl3eH7B9Zfz/wBvicVcS2t01ukUTOd36THu491LPC3y7RxqrHj1mwM/GtnyJd3M6TTiGZZpNWcjn6qvrhry5g0TvFAsUmkLp7yO/wC2tjwb1oDdK7XDxnDdTw8Mmr+DeyXEUdn0mLetqII4YzUG1De3Es43bzKz5RgxGRp5Dn/tj6y/nW7tJ+jEsNTgcdPfj10ba3uZ7m3W3LTiWTXu27uP38Kk2x024S60tMiB/kwByXTyq0n6VJbWjQh2SFtDFj/N4Vth47mWSGJyttOW6xHD53t76iWG/vZJsZVJ5pdL+zVwNXM64LRRs2PYKg2ob24lnG7eZWfKMGIyNPIc6vY768vYY4449CW7yeBycJ9lRta3DXEJ9GR5CxP2moz0ySC0VeKwtpZm+t4Vewvczy2on0wTiTDlfrD199JDaXd6Y7Uby413TsCT6KY+NOIGCSEdUsMgGtqw3FzLdbuVcM5/l+FbTG0bq8SWJvkRbM2hVxwzp4Z+tWzzJEtzLIF37rIAF4el66vrhry5g0TvFAsUmkLp7yO/7asJektbBv4jd8GbHDge7jW0IIZ5bu0hC6WlfViTvXVWzLOTXYNca3nEcmWAXuDVfW7yy3ECWnSo962phjmM1ZyybYuFvJWBbIbctn/hj5vq8afckCTHVJ5Zq1jttpz3e1N6u+h3upSPnZX5oq+ie5uILe00IqwyaMsRkk1Hab9hcG/Nm049LSO/24q0t1uJ57e7R+E0msqy8c5NJ9U/p+y4/wAT/tFWVyttHei3LB4Hx1gfb31NIuy4NnKRpXTjWfbjhW0rm5XG9dVi4/MA881iXZ8l3s+IAoiSookbxbJ+FW25s9xPHdo+7kkXkO/Iq2ubm1NpDao4GqQMXZuHd3Umz7e1Rt22EuWkGjRnmV55q9mt7XpcN3obhIF0MBjjnurEccZuhcu7xluDqW7j3VFdvZDZ0UcTI/XUtLn6vhU2yI7MOQjIk+9XSy58OeagkvLWKSeNFGplyRir9bqwjupppGMV1K4Kop5cOYxWz7OKzlXSNFzu5kDaQO4576eKDZLWgijO6Uyphj4cDRnu9kzTXsvaTGaPgPBetwFXs1ta9Lhu9DcJAuhgMcc10fbVtHI2/kk0nrDiedCayupbPTHu1SNEIVfVkVtG2kZ5Zpt7u4zo7yeOfXUF7bW/Sc2ogliDhWGOOePCo9/CuekB5LaOTGqL6JbxqG7h2ZHa2zwtE6IVyvEcW/pmrmLZkENvNIBxAxqwc4NWG+s+hJbTCV2aVWzgchirTo+zZJI7W43mrexjWMd3H11sm7gtMNAztJG0i8MjHOrraUlrunFtuoIDICW454kcBRnu9kzTXsvaTGaPgPBetwFdLNtF0rnvdPHNTW8mzo2v+JN3LIra+Pd3/lUO0YbMyF7bczQbxQy8c5zyoSiOAXG91bjP/D+jq+l66hvWshs+OKNlYa1LS5+r4U95f7ImnuckR/Lx6Yl8F63xoQQxHVMyCVdQ6q561G2MjwoSPQx3d1Ws5vZ5YY4mDOVjHeOrjHfV9FFZdMSeZpUkEij0u5s1sKEfKm0m1SkHlwPnV+t1YR3c00jGK6lcFUU8uHMYrY8/RczWCmN4DIvWyMageVX093H0NZ7XoypqDH6xxwq3hk2Dab1MCS4JUqcd4781e3Fra9Miu9JwJApRgMd/dUfTt30jHX3fKn+qP1q8ljIM1vtYzIn08AZH3d9Wd9fRdEggjfdrqEjOWHPq54YqfZvR9RfebuYOCrqTnlz/AEq0u5ew6Du9Q63HIPIfnW02ueAurh3hx1tS6Rx4VsRbqHpMMUZ31srjrcOB8CBW0H6JHBb31t8ksBBCkA+Ht58qso5PSSBAcHPdV1BbLrlcDSM476veiwdLW60ng4XSyjBHHn9lSwXON+s7l9PEcW8al+t+g/ZtCXc7yC7thErqw4MAeGOZrZaqN4I91voVfjIAOKVb7RgsI7WzkiMWmIrqBzzIHP2DNTQMPlZRKEUHOosxwKtmuNnR7Qtd2ApRhvFfwH9KszIS6jaCSou81lI8+jnvIq/bdara5l30cwYY5AYxzpbm5tenWKw6d2XACPnng862tDu47aN5t9Ey8EU8OpjmOXhQknt1s7NFO+Mj5Yt4ADl9tC1t4I2jhYqLp36oXPenpZ9VX19bw9LtrnSWwwRo3UYwQ1dIGhp1v+lyR5xx1ehx76g2lJB0ezigeNtbDUrZHMVdQEYlImGknHEscD41s+8gi30SQdHl6wUxtkcwf2D6y/n/ALYjvIUnQHIDjPGpNn7L2eZEkhZBodVCfeae0ntmspkRN2XdWyy+z2VZdMtBaQ20m9c70NrYDhjHdV5FZ2guo55WlifehdBbmGz6/CtlvZgXE9kGV0zp3gbng+2r642hF0Xf2/Ro49QYhe8nFQbMurVYo1KCa43oIZV8Bz44/wBsfWX86xsqMyTOwUkMAVXvIzQtv3VLaxHJaV5kbUfE4OSak2RDbKyENGl1vRgIfEc84q0sre0luNmxxjebuVUL4+acnlUi21gtlLGAIkmZSp908KsekWXQoraYSszSqxJHcMVclLaKOadGVpAvHrVBsy6tVijUoJrjeghlXwHPjipN1Yrd27AaDHIEZfrZp49rQxStLO05j5qhPcKt7OzsXfZar8okMipq/l4nlWmWxaxVOCKWU8P/AImrl7tNE89w8jcc8M8PhimaKIzOOSAgZ++r2SfZkkcd3Kp1b6M6ABjjxq+iisumJPM0qSCRR6Xc2asLRY+kkdWVg+NA8fXV5FZ2guo55WlifehdBbmGz6/CrHZ9hG86f/cvFIqN68ZPea3A2W1jFGvUzIhz9xrZ+0Y7ULdQahJbGQcVb+bl4Ve3O0YujCa36MkeoMQveTjhUGypLRY1jKK1zvRp0qeYHPPCpooYhGu6zHOWyNfhpqKCbZyW9wHUtd71cLg8176uriztemRXQUlRIEKOBjv7qjcaDtBbvphXPVLfRz7Kgu7y26HHbIwjQyBizNzPCk+qf0/ZP8q/p+r6I9Vdq/w8q7V/h5V2r/DyrtX+HlXav8PKu1f4eVdq/wAPKu1f4eVdq/w8q7V/h5V2r/DyrtX+HlXav8PKu1f4eVdq/wAPKu1f4eVdq/w8q7V/h5V2r/DyrtX+HlXav8PKu1f4eVdq/wAPKu1f4eVdq/w8q7V/h5V2r/DyrtX+HlXav8PKu1f4eVdq/wAPKu1f4eVdq/w8q7V/h5V2r/DyrtX+HlXav8PKu1f4eVdq/wAPKu1f4eVdq/w8q7V/h5V2r/DyrtX+HlXav8PKu1f4eVOpkfio8PXTdE1Jq58c/nRaIspP+uHhRaIspP8Arh4UWiLKT/rh4UWhLKT/AK4eFFoiyk/D2eFFoiyk/wCuHhRIuLyP+WO5ZFH2Cjm4vJP8S5ZsezPKlhywjXljhj7aCRuyqOQ4eVSfKN6Xq8BXav8ADyozKW3h/wBcqMyltf8AruozKW1/67qMylt4f9cqMylt4f8AXKjMpbeH/XKmlRnDtz8PuoTMW1/67qEzFtY/1yoTEtr/ANd1CYltf+u6hMS2v/XdQmJbX/ruoTEtr/13UJiW1/67qEzFtY/1yrtX+HlQ+Ub0l8PGu1f4eVdq/wAPKu1f4eVdq/w8q7V/h5V2r/DyrtX+HlXav8PKu1f4eVdq/wAPKu1f4eVdq/w8q7V/h5V2r/DyrtX+HlXav8PKu1f4eVdq/wAPKu1f4eVdq/w8qHyjekvh412r/DyrtX+HlXav8PKu1f4eVdq/w8q7V/h5V2r/AA8q7V/h5V2r/DyrtX+HlXav8PKu1f4eVdq/w8q7V/h5V2r/AA8q7V/h5V2r/DyrtX+HlXav8PKu1f4eVdq/w8q7V/h5V2r/AA8q7V/h5V2r/DyrtX+HlXav8PKu1f4eVL8o3onw9Vdq/wAPKrj/ABP+0VfwQsVtrSPVMw+c/cn6n7K2TYS56NIjSSrnGvSBgfGtpQ2PUh6AbhE7kcEjhUG0rfIvo93I82o5kyRnP31NaQ3NjabgDU103pE9wGRULA7sy3YtpjAdXt0n1j863dvbXOzpni7KT0ZR48zxp1Jlk2rIdUd02VwxPDr8gPVUVhZbnf7jeyySglR3chUXSLaNb2WfcRjV1G/m9lS/vUW4gRNfSIzpX1ggn41ELPG0IhdR71YPlOrn1VuoNmvs27ZDp3kYGte/BBNXUjWsk1yJWxtMeiOt6WfSwPUMcK6ZtOGK53UPGRhzFbQnt1S1muEMrqB6C44KPXira1urm0glZQwRepnPqJq+ghYrbWkeqZh85+5P1P2VCIF13U2EgTxbyFbbaZ2m3Exd2PNjoBNWk12tvupp4W0xg5j6wIz4/Cr1f7Qsoj0J0USthcY62PXmmN9cCOOK4eGN52wSBy5+qrZtpyo2yntyYSX+SaTPeeXKtrRWA30Ns4NsHbAwRyye6rW2muLC6Fxkf3VuMZAzx4mrsQXWzrZbdzGEuX60hHPv4D762dJAYYHvQTquHwkeOftq5guZ7SXcx73fwP1NPr48Kj/dUsF3NLMsK4fKgnxxVmL/AHRItZMPECAeI7jS3tpBbvau3VhyRIVzjOrl9laFnsLOLRkPdP6Z9QyKhlvreOQFjlfSGoHHCp72zt44IIMwRaBjWfnN+lW9jaWUKXFyeLhfQjHpH9PtqDZ2zurPMNKn/lRjm1XsFuryHeSooAyT8pVsP3TJYTvwhlkiA1HHt/Otpy39ndX26maJd0OEKr4cRx7+FbMt9kuLh7pepLPx6qjiT662mm0YowUA0SRHquMju5irLpyW/R7pxHiPOqNiOGT31tSbaWxri8PSWIkEOepgeJ4/ZVtIYIZrVE+SyOCrU+0baBbdLjqwoox8mO/7edP9UfrV6Le3i6RJtI28fMAtgdZqhs9o7h+kIzRSQgrxHMEEmpdpaY9+iuQMdXgSKt7OzWDMttvS0gPV4+2to9HFqgtJmQF1Y68D28PbVld2/R4d+AXe4fCR8PjW1reR7eYwQ5EtueowKmtn/wDt0/KruQxpKFUdR+R41cW2zxbolqF1tKCdTEZwMcqcsNLG5lyPDrGpfrfoK25cvLDKLebSqFG/l/m5Vs2KMKRcy6Hz4ac8K2kyrbrBZSSLxBy2FyO+rLaE6W24nMYeNQdQ1d+c/DFXNrs3cItsF3jzAtljxwACKtppIkRRdm1uxz0nlkHwzirpML0Wztt7M2OOruH3VBcy3GznjkZdVvFJ8qgP28ceyrizt1gWGARszsDnB5jnTSWwjL5HGV9Kr6zTWcs9ndfI70S2p4DjyIyaW9tILd7V26sOSJCucZ1cvsq5ttmC3UWwXePMCcsRnAxVhbrbpDf3WrKyNqWMLzPDnV7bXiwm4gtukRvGCFYce721ZXirHvZzDqGOHWxmryytejokCIwkkUtz9Wat5oWjtpumCCXGTxD44ceVJvipfK6iowM5/wBxYyGSSWSWOYkueXLAHhXRLwby2gtt5u88GYtzP3VtmytHZEjkiWE57MSYzitmzbPTcl7lYZcHtAwPOr+5v1MkvSHjiOeyVeA0+FbDtr1i8cqSNOM9po4DNTWVqNFrJbCYR54K2rHD/bH1l/Oty0rxIWGvQcah9GpDsdNFnDCVuNB6hfuHtqTakuf3i0bzifUdSnjjHqq1vtqPm3FuHaJjhMkeka2uLSOU2sr/AN0jwSdHDkPCrYfumSwnfhDLJEBqOPb+dXvRbqF7qGJzoDgkEDwqDaVvkX0e7kebUcyZIzn76vpL7ZM+0E3cYjKx5HI54kio5IHjs7XUUCv1NLd49tR3l3OJrFIydGr5M/zGryOSIts2WbNvHL9DyzX9ytY4YrDizKPSlPIfYKdFcxlhjUvMVtmKMsQsycWbJPU8a2sZ7GXarq50TR/8Lh6Pqx/LmtmmCeG54LvpHz1lx3ev21f3N+pkl6Q8cRz2SrwGnwrZ8m0JXKJnernAlxw61X77LGnZuFEQ+YZO8r6q2VYbS0YkEklwsRIV9PIezjV/DZjTbix6SsfcrDwqxurqG9jmdlZr/uZj3H+Xu5Yp1VzGxGAw7qs7ew3ibSEyarl8rr8csfSz4VtL94Jvo7bRHEhPBcjJPtqPZxlfR+8zaltXWMQ44z8KsY7BdzDdJIskYPDKjINJ9U/p+y4/xP8AtFXUVnJPHJKGIBuX0aj4irF7GX+82mdO/YsGB5gnnV5PtUxmW4h3GiLOlE9pqCwvZbc2URXU651yKvIEchyq4u9ni2lFyF3kc5IwRwyCAajjlmjF5HIJkdUwoYHhw8O6obvabQJ0dGWNICTxbmSTUti09rLDICu/fO80n+Xlmre52Y8TPHbi3dJiQGUcjkd9Jv7lDfRXG/jOnqL/AC+OKeTaTwCPRpWCLrD2kkUP3XJHbyhg3FOq/qNQ3e1GgXcIyxxwEn0uZJNPsuGS16IQyCZtWsIf5eWftqKxtmUIrRhtZ5op/pV1bQlQ8sZRS3KohIis6KBnFXUVnJPHJKCQDcvo1HxFW+8e43kK6VcXLg8efHNbTWWWRku8quZmbqlQOOe+ra0mktAlu8Z1KWzIFPfw4UXsXtpISvoTgjQ3iCOdLBIRO+ovI5HpMeZqJtmtbmMDDQTDA9uQKvYpZkN5duJHbHU4Ywvs4YqxucWcRtX7FCdJBGDxx+lXX7vFpLDPIZRv8gxsefIcfhVjPFJE13a59NcJJkceXKpWvxbKG4LHCMgfaedQ9C3cM8EyzR5HVJHcahvr424VIWj3cZJ5+0ULG1uLdLVW6k3HeBc5xjl9tXd1bdGkW5C9abOqPA7vH4VLau8bkM5icHnk548KtraTBkjXrEcie+p72QqYzAsUY7xxyaNyzTxzMoUmKdk4fYauIYLpo7mR2ZX1GRR1sjgfjVo20zaxw20m9xAWJdhy58quzstrYxXL7z5bIKMeeMc62b+75UNxYhh8p6LhvS5cqvobqaHe3GBGi+hH9uMmrPpzW/R7STeZjzqkYcuHd8anW3mtZonOUaXIaP1YA402zbKQbzclA78OJ5mool5RoFp/qj9aveiHXcx7TaeHSNQ4Ac/VVte3m7lMcbbmG1y/PmxJx91S7MtDDNFMHaJ1J16Sc8V7vv8Asq0u4v7wnQjHoi9LmOPs4Vfaf7wb2V5oxFxIUgDjWxTbCG9ntI2zFx0sMel9nsq7mVorn94W2NMOcpgH4cfbVnHqV9EKrleXAVNaxukbzYVS5wM5qebZ25MN5pBabIXWox1cc/hUkMh3uJnbej0Xye6pfrfoK2pbxNHPFfnepuuLqeHMcscPGtlzyblxA28MduxYsMY1cQMeytpLGRcNfvJLEIuOFK4ya2fZQETzIIm6nghGT8Klu9j7q76aoZomyCNPDV/SprTWbue81zMYl+cfnfZwqeK8PS7m/wBTS9H48OXfjkKtIE6LPGoHykS5kaMfyngPvq5uUImS8SPQE5gLnJPhzq3CPCHimEoSY9V8dxqC9m3ESGFk0HIXRnmp7/txS2NtNFb2gJaK4kHXMec8By+/7quLjZu6VbtAxF1lQdPDUpHq7jirCcT5vrYMwknXQk6nny5Vd3G0isMlxb7qLT6O77yCefP1VaWMpggjgMbpIxPyyIefLhV9dP8AJxXMabrVw1Bc5NNbhkjm6WbqFpeCOuvVULvp1NoPV5cx/uILxUsPkFdVUzPxDf8Ax9VRX9kYOk7rdSxyE6GHPn7avlvZV6VesGZ4xwQj0cezFWj7Ve2EVq2sCHPXfuJzyq7XZkltuLlzJ8rnVGx54xzrZ37tkUT2IIXecnB9LNTX20GjNxIgjVYs6UUe3/bH1l/Otzs50jdmGsuxXqd+CBSQS21jBaKMYhkYn4rUmzIZrcWDZAkOd4qHuxyq0W1W2ksbdOxmkZct3ZwDnFTJI9vZz/8ACeEmQD25FWjbTNrHDbSb3EBYl2HLnyqWN0XEqlWIHHjUFhey25soiup1zrkVeQI5DlTvZSW00DgYjnyug+ogcaZLllnlllaaQ6eGo+FW/R0tZLKIZ3MrlQz+vAPCm/eCW6H5u5ct+YFSi4KtNLO8rFfWfKn6MEMuOqHOBVzPOllu7qRWfTK2VwMcOrV2mzmtnhuJWlBlLAoTz5c/hVla2bRukZxM0meI78evNXa7MkttxcuZPlc6o2PPGOdWVhs8wtbRdusrld76uAPfRW6hs4o1X5MQux/QVZXWq3TaNtnIGd2wPMeNXVztUxmW4i3OiLOlU9pqLZtxLbmyQqDIud4yryGOQ5VMgeOK2aLCMud4H/Kks76W03AZS8yatbYPhyBqe62WbdukKu8SfI4jvGKSNZx01bjpW9K8DJnw8O6o7zahhBhQrFHCSRx5kk0n1T+n7J+L8H+mfoitF3eRwORnElxpP50xtbpJwvpGOfVj40VtrpJmXmEuNWPjWSWA/wAQ0LiS6VYG5SGfqn7c1uRcLvdOrRv+OPHGaZba6SYrzEc+rHxrm/vmtd1OIU+lJNpH50HhkMiHkyykg1zf3zTRCTMijJTenIFc3980OlXKwauW8n05+NbwyEJjOrenGKPRLlZ8c93Pq/Wub++a3O9+Wxq0b06seOM0yS7RgR1OCrXWCPjQkgl3sbcmSUkGjJPJu4xzZpSAK5v75os7MqjiSZDSvG5dGGQVkJBp41lzInpKJTkVzf3zTxJNqlT0kEpyv2Zrm/vmub++aEdxdJE55K9xgn40vS7pLfV6O8n05+80VtLyO4YcSI7jV+Rrm/vmub++a5v75rm/vmjDHdo8w5oLjLfdmh0q5WDPLeT6c/Gt7vPk8Z1b04xRNpcrOBz3c+r9aUzzbvUdI1SkZPhzrm/vmub++a5v75pVubpYWb0Q8+nPxrm3vmnVtRGkfOPrp1sBGgU6XETYwfA4pjGukvxYgnjTGNdJfixBPGmMa6S/FiCeNMY10l+LEE8aYxrpL8WIJ41JIBus9Z21Y++ukNaQT7zrbz0tXrzUknR7e3jxh29EY9dbtl1R49EnhX93fUi9XqSHAx3VJxb0vpnwFM0a6S5yxBPGmMa6S/FiCeNMY10l+LEE8aYxrpL8WIJ40xjXSX4sQTxpjGukvxYgnjWolYTK2M69OpvOmMa6S5yxBPGmaNdJc5YgnjWJl3g54Yk1iZN4OeGJNYmTeDnhiTWJk3g54Yk1iZN4OeGJNYmTeDnhiTWJk3g54Yk1iZN4OeGJNYmTeDnhiTQ4t6S/PPjXN/fNc3981zf3zXN/fNc3981zf3zXN/fNc3981zf3zTrDNvDGcOFlzpPr40sdxdJE7clefBPxoyTy7tBzZpSBWu2m3yfSSbUPzrm/vmub++a5v75rm/vmub++a5v75rm/vmhxb0l+efGi0jlVHMmQ0eiXKz457ufV+tbhrpBOf+GZ+t92a13U4gTxkm0j866RvxuMZ3m+6v35oR29/DLIeSpc5J+Nc3980YI7pHmHOMT9b7s1u7q9igf6MlzpP50JLaXexnkySkg/Gtd1OIE8ZJtI/OukG5UW/wDzN/1fvzSxw7QgkduAVbrJPxrm/vmnWGbeGM4cLLnSfXxoR3F2kLnkr3GD+dc2980sdxdJE7clefBPxoyTy7pBzZpSBWu1nEyfSjm1D86Mk8u7Qc2aUgVrtpt8n0km1D866OLpDP8A8vf9b7s1zf3zRhju0eYc0FxlvuzQ6VcrBq5byfTn41vDIdGM6t6cYom0uFnA57ufV+tLxb0T88+qub++auP8T/tFTXVzGriJM8V5+qpIr0fK3fXuNHV4/R9ndWzUFp+7khdgkpUDe8PRGP1raU8V1uYoZJIo4d2CG0+J51/ZcCdo1ZlGAqnB0njxFf2gWCeSeUSKpXSoMgwp7h4cK2M+z7OW2YTiNi0BjwpHo+uryWzu1tVhmaKKPdAhtP0jz+6lW9RGMFkGC81DFuJH3VtpMMttHJG4WNC2Cy8eAqwttmyNbi4LlpGhwwCjuDVtiW6fpBgskYNjBYDVVvcLcT3MrlTJb9BYJg89Lae721fS7RtJLhJ0QQOsBlAAHFeHLjUkF6hW3gu30xk8gDkA+qun2EYjs4oTFvFXG+Oe7xA8amlG+xEM4aFkz4AZFW092c3VxbSPJx9HiuF+yora3jQXV4+7VtPoj5zfdWzdlbMYWwkDfKadWlVH51tNb2ZLlcDdPjS2MjmOVbPee66RFczCKSLdgBSRwwef31fWyCXeLDJnMLAcB44xVjf9KDRIkWq33YxoOBz55raq2tz0Vd3DqYIGPI451Lv8T3yXDWyADG8ccqv1kfeym3jeV/pMS2aa8huJhNxaO1WxZkI7hq0/HNQLMk6ySorYEDNjPrAq7aLZr30l1qMjYDY9vfj2VaGWRLmOKAfKkZ7qn2o6pFLdDUoPAJH80fqas5Bfteb2ZUkTohWLBPzXx+tXtva3XQ4rTSMrGGLsRnv7q2fa3EixXE+reywRGXAX6K476urOZ557cxZSd7cwtx4EchVlZw2ZtIYZ48XjLwH2jjk8uOKkvbuPfTzARqpGst/KoqK22inASmbcg8F45C+ulka2OzdNuyiNxgzcefDhw9tRbQb+HS6iS1Xx64y/291QRLfdEVlJIjh3srewYPCtoTud9Laz7pHaMpq5YJX7atFW4ub5JX0SiSxaPR/MDpHxrbEv7tS/PSGjYySBeqOAVeFW0lkCsBTqK3Meqn+qP1q6ihKCaXanRo20DqDHP11a2lzcm7iukcqzIFZWX2d1T3xl/vSrIQ+kdzHHCrW0t7rcJJZ71zoBOc92a2ri+MItp2SLTGp5DvyOVbNnN0lm9yAXIj1seHzF41tm2lle4WGDUkkkO6bip4EYHhWz/wD26flV3LCQHVRjKg9/gavIbe66LDaBB1Yw2tiM8c91PvMa+ky5x46jUv1v0H7NsSrdSfI2qsq6VxybA5d1RXl1tCOOS4WPBeLgmfADm1dDa5luomg3gaa33TAg48BkVLtM3uJIdZCbpcMFY8+H5Yq3LTS2Vi8OozRQbzr+B4HFbPkW6hu9d7Gm9RBhlz8DW12kuZJQLnTpKrx6q8eVQRLfdEVlJIjh3srewYPCr+Zjvprefcxu8ejVnGCV+2lae9W7typ3geMKVP8ALj9ajv7e7RN42VtmjGjRnlq55q9t7e6NnDaaRlEVi7EZ7+6oNThZ02kLWVlXg4zVpbB/kXt3Zlx3gipdpm9xJDrITdLhgrHnw/LFWLC5kjU2hk0AL4rkcu/9g+sv5/7mWCLfjq9bMbx8PUTW2YbdBHGkqAKO7qCtqSXcSSyS3UqMWGeqOAFf2dhu/lIwkzYbjqK8FqeKBQkc1oJHUctQbGf9wPrL+dBLvjErByM8Djx9VHaGz4xHaQwNHvAuN8fV6h41LPKimaSGSZpMdbXxOc1Z7V2rjWtuvp8Rk+A8a2tuLcxNeya4bbgNI4fce+rVL7Zkdqs7buOWOQNhvA8OFX8dtvhcRwyYJhYDIHjjFW81tGqywCF0cDjnIq9uI9nR3UciRhGklCjgOPcfGt88MkGmQxPEsRco45jq1FtW89FEwm9U8M/ynvq8llg3EV1NvEtyPRHrHxqSRY0FvYHQuF9KXvP2CnjfIVxg6Tg1tmG3QRxpKgCju6grbXQLOK+ieVtUkp0nVjio+kB9lbM6BdsIUUaiyZMg8PVW1JLuJJZJbqVGLDPVHACtnXO1DqW1DHMh6vDIyavb+3j6NbXCqsQ0414+fitjWl/J0sBZZGLJgOwHDh9tbS6GAgbZxnKqPngnBrZ8t5ssdFBjc3G9+UDH55HtPjTxsSA4xwOKsrOGzNpDDPHi8ZeA+0ccnlxxW13uUWUxmOJNQzhdOf1qKwP8L++Gh092gcdNbMNsix7+OVJAoxkAAik+qf0/Zcf4n/aKWHebtd4jt1c5AOcVJAzvFq+chwRVu+0r/pKW760RYQnW8Txq7W1vTDa3TF5I91kgnnhu6tlRb/PQG1Z0enwI8eHOtpf3h06a2rVH1THwxzqGfaV50s2+d0oi0AHxPiauegX7WsNy2uRN1kgnnpPdUE9lctb3MUe61su81r/NUrPKZ5531yykY1Grae3n6Nc25Oh9GoYPMEVdz3lx0npcIjkGjT91Qw/vJjaw4woiw5A7i39KMtltBrfWulkaPeL7Rx4Gk2faXJhUNqkZk17zvOeI5ml6RewywgY3aWuj46q3V1Ek0f0XGRUF3DbwxiJT8mI/nZ4NVvemThDGyBNPee/NW80M3R7m3JMb6dXPmCKvYLq+eWW6xl9HVTHguatWvLzfw2raok3Wk57ix76lhzp3iFc+GatrKe/3llDpym5wzY7tWeVXN7Z3u5edVXS0WocPtoQXca3h1tIzyoOLnmae8giiXKBURY8aDxyftzRt7LaJgsyxIXdZdAe4N/T9k/QdpNDFMxYo8W8Kk89JzwptmW0hiQxbvWRk01m3CNot3w8MYqCCbaOejFGh0wYAK8tQzx+FSXNje9GlmUCbMOsMR34zwqz3V1Kt1a50Tv1yc881cC/vGuDMunqLuwg9VR215tJp7NCOpuQGbHIFqa9gvo0OjRGr22vdjvx1u+lS4vj0lJNaTRR6Mf8Axyc0l1tO7F20aMkaiLQozz8aVYbaC3IdWLCIcQDypLnZ062hWHc6TFqXT3Y4jFX8E1y00F4dZyvWV/HP2eFRNdbRMyR/NSLRq+tx4/Crh9nX3REuDqlXdB+t4jwqK2gzu4lwM1IW4AIP1q/6Fl5Onm4hlBxp4DB/pSXTydPuYkKhNG5WHPPPPrVNs6wudUD6iYzHpaLJzpLZ8e7H21DdWfy0kVtuXiPV08e8+PDlV6tn/eJLqVpXU9TdZGNJ9fCtmrsqXXeWCFSXTgAeYYdxq6ktZ2uZbqDRcq6adB449n1fjVvbTX9ujwxhCJZAjcB3jPCp7WLaEHXAyyOH08eZwakvrWfodtcgLI7R6845Nj5vtpogS8W8Zo5G4FgT4VL9b9B+y5aynzLcRbmWBk8M4bPcONWFlbuRtCyKFQV4AqObfy1BddI3u0VUxywGPC6f+0evjmpNkRtqupNakEY0ZOcn1cftqJdnXJiuggje3lTUox871e3vqK2jctfC8F1KpGOtnj7F9dXbCfG/O8ktmTrI3AZ1eFdIsbnd3pi3W6MWrWM54cvvraFpdSPI922rdY62v6Ybw4eHCk/eV089zGNMdsi6A+fnH6X6V0JLuSGPXlbVF65Gc4WT6P2VNNZS9FvpgFeApvBJjkw5ffQsdTptBZ9+p9IvJnOr2VHdX028v0jMQt0TCtnvX1eJqbZEjf3qTWoAHPUScj1caspN70e7hTctFo17xDjiOXhz/YPrL+f+5cQSCKQjqsV1Y+yprhtoxyCdw0q9FxnHDh1uFXJsL42sVydUqboNx7yp7qs0spDbSWfYvjV6jkd+amubqfpV1KApfRpAUdwH+4H1l/OujxXHRwWBfqatQ+jzFL0i9hlgAxu0tdH/AHU9pHfMmznYkw7sasHmobwq2ntrtIUt1xHG8GsA/S5ipoby/LM/oSQR7op8TVvLtO+6Utu2uNFhCdbxPjTxyDKOMEeqoLe4vmmsYGBSLdAE45At3081jtFoBIBqjkj3ij2ceFbpWaRmYvI7c2Y8zUFzDeJEIB1I3g3g1fS5jjTdOuUuT83TDu8fE08Zk3rPK8jNpx6RzTCCQRSEdViurH2VNcNtGOQTuGlXouM44cOtwq4/d190eK4cuyNDr0seek5qzt7GbdRQHrZTVvB4eqrk2F8bWK5OqVN0G495U91WNtZ3C28Fr8x4t4H8M8RTdLvI5xjq6bfRg/eatTJeHp1scrcCIcfHq+FXE17N0ue4XQ7aNI0+AFR2k1+0mz42BEW6GogclLeH2VNvLg9Fki0boLgg/S1c6jtrzaTT2aEdTcgM2OQLU91s676JJKoWUGLWGxyPtpbRZXDrJvhP87eZzqoXd/ddLmVNEeI9CqO/h40n1T+n7Jxu0wH+j/KK7NPdqK1maIXEpwiacmle70oGbSuI9RJ9grpN5oih4cSn6UZ7jdRwgZ1MKjntgjxSDKnRiuzT3aW0fTv2XVpEeeHr8KNyHTc6tIbdHrH1cOP2UxtND6DhhowV9oNdmnu12ae7XZp7tCO5KiQjOlYi5x48BSTW26kifkyip7aHdvNBjeKE9GuzT3a6F8n0rRr0aO6pIXyZIm0vptXbB+wULqbRHCcYLJjn6udObUo279MGPSV+w0sUckZZ20qd2dLH1NjBrs092tyZY9QbRndnTq8NWMV2ae7XZp7tR2zBN9IpZV0dwowzSRq6nDfJ8FPrOMCuzT3aaK4dA6eniItp9uBwpJ52iET+gQudXsxzp+iaHKcGBTSR9h40HuQiKWC+hnieVbqfG9xnQkJcgePAV0qNoTb4zvOGK31loli1Fc6Mca7NPdpIrrhI41KqwM/D7BTzxgCJPSMkRTHvChFbMhkIyoMRXUPVkcaaKd0Dp6eIi2n2kDhQeNY2VhkEDnXGNPdoyWYWRAcat0QPsyONdmnu12ae7TfJr6I7vbUgjQHdtobMeONdmnu12ae7XZp7tdmnu12ae7TySIgRBknT3Uk0UcbpIoZTo5inmljRUXmRHn8q7NPdovbBHUMV9DHEc6k+TX0vD1CuzT3a7NPdrs092uzT3a7NPdpXu9KBm0riPUSfYKdhoVUfQdaaet9vtrs092uzT3a7NPdrs092uzT3a7NPdrs092uzT3a7NPdpXiEbo3EMoBBrs092hiNfSXu9ddmnu12ae7XZp7tdmnu12ae7XZp7tdmnu12ae7W+vjFDH61rfkRiLTq1EY4UIrZkMhGVBiK6h6sjjRiuHQOvpARltPtwOFBkSMqeRArs092uzT3a7NPdrs092uzT3a7NPdrs092hiNfSXu9dNNc7uKJebEU0dsVMijJRoihx7CKMLyRhw2kndnSD4asYpOlFEL+ioj1E/YKkvFaM20fpto9H7OdLFArF25ZtXUfeVrs092lhikjLsdK/J9Vj6mxg01vP2ygEqluz8PsFLLAgKNy1RafgaTpRRC/oqI9RP2DjTXcemSFThisRJB9mM1HEuQ8raU1Wrrk/atZKIB7Kl6E0c26bSxC8M08crLrj9PTCW0+0gcKV4ljdGGQQOdGK4dA6+kBGW0+3A4Us1w0Sxt6J051ezHOn6JocpwYFNJH2HjW8u93GmcDq8z7KY2mh9Bww0YI9oNCBZIzIW0D5PqlvDVyrJjT7qWKKSMs50qd2QrH1NjBoR3JVZCM6ViLHHjwFdMLQ9Fxned1MtqVZ14lWjKnHsIpfk19E93srs092rj/E/wC0fs2U6IqvJfAuQOfVNbH1PKuq509SVl+afDv9dX5kuodFrG0dtC0g1O/e+PgKilXd3CouUYdYA4qK4QZaK2Zh9matri1i2nJdHS7tJKm6cHn1dXD7q2jmS4H90V+rcOvefA8vVX9nMs7K8Ej9ZyRqwOXhVw0SGT+4BnRObENwq2iWG42ebi6SEs+nVpPPGCfCriU38ptt1nTMd4UP0snj9lWFzC2023s8atLcON3IrfyZ4fdRaGDfbQueConpPjx8B66SKSWJbu4kOGY4RXY5J9gq5htLqKbVbx4YSAmV+sW+2p57mynttA6m+KgMx5Dgas2N9bzzzQyb6RZAcyErw/QCr97VrLTNO0qiQMSeXD1cvXX9np7aJQZTI+mQ9VWA+PfVzY7Sht2maAPvYlxrTlg5qGw2cgWytZVMsw9EafmL666P0G4KZxvxp0fnmrvZ81lqEcb/AN41roI558c/ZVrZTTzQRpYrM+6fQzseHOrSz6dI/SLwRb7k6p4Z8fXVmizSyp0WTAlfWRxHeeNPc7q0kgG8kmilBLSdY6uPL4GrfcWFxNFKisHTTgZ9pqay2ZAsl9dZZh3Ln571aG8IboSaUkI459VbU21LHuJHt/koTzCqDjV66sLh7ueaSWaBpN5JqVskHgO77K2idkvHEVSNZzMuoFscMAeqngmiDNHcuJg/WBkDZzV5/wC9m/6quL+zl2lMytqS41BIfS5aM8vsqG9smtkHRt2d7k8znkPOto2t8iLNbyxLKY/RZGI41scpwcXyBfZg5qcbGtYJd9qMx1/O9nf94rYdns43UltLG2rdYWVgo5cTwq9hmjvYrFocobiYa1bvAYMTitkxLPe67gat1AxLPgcgSeqK2hay9JEUYjZEuXDOuc9+T+x/qj9auIEuJF321uj688UTHIeFWVvFcTywXUcmpZZC+kr35NXE5mk3wSXEms6vSPfVpbm6nihax1uI5CuTqFbYMt3dAQ3LrEEmK6OA/wBYrZG+nud/cLkpbDry4HHj3Vty1k6SIorcMiXLhnXKnvya2f8A+3T8qu5IXaN1UYZTgjjV+ktzcRR2u7WNIpCnEjOT402ptZ6TLk+PWqX636D9s9+19ddJi3rRnfHA0k8CO/l31Yo1xNBFLs/eyLE5XJyPOr+aa8uYTHO8USxSlAgXvx3/AG1/Z24unlEsk2likhTubjw76uRLNMQm11jX5VuC5WmLSFEij9Nzqxjv9dWFzC2023s8atLcON3IrfyZ4fdW0IpLm4gitdCxrDJo4kZya2Vs2W8c70OZZ4+oz6Ry9VXjwXjzZZRFves0WTjn31s54bq5mE1wIZUmlLhsjnx5fZW2jJIzbu6lCZb0RgV/ZpelTKbhW3rB+LdStrWO/neAWqypqmYsp4/O591WWC51xKx1OW7u7w/YPrL+f+5vZWRTIls4ViOI4Un0SsIb6uVzWxynBxfIF9mDmtp73BZryYSZ/wBeFWWr6Jx7MnH+4H1l/Ot5fBN1Cd5l+Skd9fvPdmGCOFo7cMMM+fnHwHhT6++2kZvrcf1qyvbtNV41usa6Rl3OPRFbSD7uO72g+spq6qcuGfYKs12gLWWC4kEXyIYFG7ufOtoxrZXMWmCTEzadJ4e3NQ7n5iwGLHjlavLqye0VJ1QDehmPVHgMU0jWUktxFM0EqQEHiO/jjhUV9c27JdOu7jjxmQ/yjFXNxdgJPdy7xkU8E4cquLpuMNoTBAP5vnt+lNHKodGGGB7620qgACaPAH1BW122RJFFA07giZdRL/Ox4fGtmPbPPBFEAQofnjhhvEVtPe4LNeTCTP8ArwqwvNoY/u4bdseJHEgY+yrraNyht2uEVEi+cqDvPrrYkDySTIiTFWlbUxbHjW0mt+DfuoscfSBOKsJ54LSSwVYsxaSXGcdbPLPHPKnWbBjIw2fCraKSBIdkRSxnexnURjGOHcM+2ttF/TDRAfV01DH/APb/AL8YDwxxx8a2QU9JkmD/AFcD9aT6p/T9k53iYL/S/lFdonvUs0m1LlND641SRMIfV1as99dvK9q+tWZ1yx9f31NbysirKuklSM0kUd7Jaqv/ACWUZ+8VuBey3EGjQIpnUqB9gqNRfXDW8RykBmGgeHr+NTXW++UmiETDUMYH/mrW1E7L0XsZVkAdftqVxcGeaX05ZZMsfCt1O4xkMrK+CpHIipzcXD3ck0e6Z5pATo8OFJFNf3EgixuSZVzHjljh+eae7TadzDM6hDokTkP/AI1u5bo3fHOqZlJ+FS3aOu8kRVxkYGP/ADWGeM+0iorvWokjQoACMcf/ABUzQ309sk51SRxTAKx7/Z9lQ2ytuVgxuWjfDJ7DVyTdyyT3CaGneQawPV3Co47fa94kScl3keP+mu0T3qIN1L0Yvr6Nvhu85z7fsqOcXLW06DSJYXAOPCui709pvd7vflN59LPjSXjXks9wqFNUsgOQfsqUdLmjt5W1SW6TAIx7/XQVXQAcuNXE0O1bqFp31vokT/8AzVpvNo3Ae2JKuJEyT4nhUgn2hNeJIukpM6kfACo4pL64eKFlaJGmGEx9n509zDeS2kzgCQwyDr+3Oa6LaXT2w1ajIkg1k9/E5omPaNxIjMzNHJImkk8zyp7VruZrQ50wmYaU9n9c1DIL6aO4iTd79JFDMvgeGD91TwM2+Fx2zSyZZ/aajmkvJrpoh8lvpQwT2VM0F9cWqzHVIkMwCsfH/wAVbQRPuOjdi8cmGSpi13JcSSjDPLICcflVlHFdyQvZjEUqyLqx92PhTXUV0+8ddMuqQHees12ie9TtrGNI5H21fI0e4E12Z0ebKFeWnHrrfrI8l0qaTJeHIT+VcY++pbSCaaC3fJkikYaFY/R4ZPH14qK4t/kp4oNy2+9Dn8fbyq6W0+Se4cyTGfkGPDC+PtqyhspJLSaxUhZnYZH8vg3tqZrWSWKWWLd3JnfIbzPrHCorVukKYUCY3Dvy9arg1Nak3Ohh19MDKQM/zCjfb2W2SUBZFgfrle4sOPw400aMEhLlo0dusMnvqT5RfS8fUK7RPeonWrerUK3TySwRamM0DSaRN1uXq4Ut7ZjRuYNzol6uoZzgeHtqeWwmmtI5eM0evRvW7+fL21Z9CQQw2Dao0fqlzjGn+tXKWxaNJJ+kEyNpfecOC+HLvzRjmLTo0WGDEa2HnS5uLiS3hI3IdwJFx3rw/ME0by3mmtxpCSbt9MkwHfg/+agFqpggtTmIq2mb1sM/kRxq6yDcw3Hbb9vlpB492MdwxUd20013Db9lHcP1vrAcPjxq5uIJZY7SdszW4bBk8W8R7O+rCSHUbfZ+RGrn5RxjBP8ASri/UZjljETRtwZlHeB3c63STSmJTiPfsM6a7RPeoYkX0l7/AF12ie9XaJ71donvV2ie9XaJ71donvV2ie9XaJ71GN7+WCMqVZYnUBvvBqS1uLuS8hkXTiZ14D7AKjmkvJrpoh8lvpQwT2VNIt5NbiftkimAV/b/AEpIoWjWNBhQG5Cu0T3q7RPertE96u0T3q7RPertE96u0T3qGJF9Je/10sMty0Shw/ybjjj20JG2rc3AHzJZEx8BTDpUq2zvra2Ew3ZP51HdC+mt5I00LunXAH2g1NbXl5LeRy89665HswBUU097PdtD2YnlBC+uirOhB58aizdSyQQtqigebKKe6nuYbyWzlkAEm4lA1+3NCC2ZdI48XySfE1Hd9Pmt5Y00LunXh94NMHv5brV/znXh9wFGKGbUC7OSzDOSc06C53JYemjDIprhNqXTs7BpA0iYfHj1ameC9ntROcypFKArHx9X2VaxW85t4rcjSscmNXqPiKmkW8mtxP2yRTAK/t/pVmqXT2q2nZCF1/UGmL7SuLjUMYlkXh9wFQQy3crSQHMc+9+UB8c1M2/NxLN2kkzgs3qpFN1M9tG2pLZphux+vxqV5bguksW7aEyfJ48ceNRpJe3E1vGQUgeYFOHL110iO7ltZiulmglA1D10LHIEI4giTrBuerPjmjcPdPdTldO8mkBIXwFL8ovonv8AZXaJ71XH+J/2ipJ7htEUYyxqKGS3ubVph8kZkwHq5EQYdHlMTavEUmi0uLrV/wAkLw+8ipbfotzbyRKGbehe/wBhP7ESbeSSNjqxrnAJxk+Fb24zgkKqqMlie4CujPDPaz6dYSZcZHqxVuk+pnncIioPj7KSARTXNw41CKFcnHjTtEHRo20SJIuGU+B/ZLZgNvIo1cnuwf8Ax/tXVrb6i9tjW2OqfZ+3pQimdd/uAgA1Fs48aKNYXdtwzqmC4+BNSXFy2iKMZY1DFPbXNqZ+yMyDDfcfzqKy+UkmkfR1F4IcZ4modcckzzPojSMZJNA4x+xEm3kkjY6sa5wCcZPhUJmDHeyrENPif2FrfZt/MgYrrVUwcHH0v2SXFy2iKMZY1DFPbXNqZ+yMyDDfcfzqTVsy+ZI85cKmnHj6VWUy2tzIbzso1UavHxp9dnc2un/nBeP3E/su0dZRHaD5abHUB8PHNRwy29zavKMxb9Ma6u0kWUR2g+Wmx1AfDxzUUE1tc2jTdlvkwH+P7H+qP1qTMUkehtPXHpeser/aklbJVFLHFQ3EYISVA4zz400gjkm0/MjGSf2NLCGVVkZOt4g4qX636CpkibU0LaX9Rxn/ANCHnbQpYL9pOBQ+sv5/7jXc62OCQka5Ygc66XM27h0ayT3CooZLe5tWmHyRmTAepo47e5uBB2zwx5VP9eqoJl1T9I7FYhln9lTKVkt5IO0jmGkqPGosw3McEzaY53jwjHu9f+2PrL+db64zjIUBRksTyAFdGkgntZ9OsJMuNQ9WKdtzcNbI2hrkR/Jg/nUcKxy3M8g1LHCuTp8aubwrKotuEsZXDqfDFKh2dewBvnyKmkf/ALUWY4A4k1ETDcxwTNpjnePCMe711JaxWd1dSRqrNuVXAz7SKWRoZICfmSY1D7qjg3UtxcSDUIoVyceNSzW8E7vE2h4NIEgPsJq3gm2fewNO2lC6p+jU0krBEUZYnuFTi3WVdywB3i6c5qdYba5uVgOJXiQYU+HE8fsqOeBtUUi6lNTRpb3NyIO2eKPKp/r1VBKuufpHYpEuWf2VLEI5YJ4sa4pVww9dR7wPI8jaY441yzGpU0SQTRenHKuGHrqPENz0eR9CXBj+TY/nTPIdKqMk1CWguooJm0xzvHhGzy9ddHjgnupgup1hTOkeuhfamMJOAAvW1ctOPHNG3eGe1n06wky4LL4ik+qf0/Zcf4n/AGipj80PGW+rrGa2OsfFzeoVx4YOa22b1RLpu3xk+hwHEVDeXZLGOEsSe8DNXN1zvpYmuHP85GfhVnc2ttbQT9R+lm8Op/b1eOfCif8A+6L/AKxUfSGRS76Y9X0u6oW2sVuJHgfcGEYCgcW6v9a6XdLOt3LcxdU27/Jxh/RzitNhLFHetEHXexnOjPhwNbUjWNLjaKTAykyYR8jhjhw4d1bKtdqxJHFIZWeJZNSuQOHhW3f3fwMVirIv0Tx4VZ3NrbW0E/UfpZvDqf29Xjnwq5RbEXxt1VX6RPoRM8eqMHjWyopZG3U17uZDr+Zqbhn7AKm/dmEnaHItd5hT/Nju8M1pnt+jyzPoDwaptC97cFq4hsklCdGjWMNC68tXPIqLaN/KYrtmLvda9LKdXLPwxW1Onrvuj7tYQx9AFc5FQRi9W3I2gzRyPx1kMcfbVvaT3XTY7mNz1kCshX2d1Xv7ysYFjKhRictxJxx4CtkPd3b7QBm3Sq6gaSR6Qx+ua2Pj/wDNH/Sa2Pv4Uk1XOg6lzldJ4VtFpLGC6KXDxK0lyUMSjkFGk4qzVY7e9m0Ykcz4Hq4441lwA5lhzj64qzDMUBvYgWBxjjVgmz13K3EUu+VeRxjBqS5sdrpLFCHkUCJd23EnGefxq1ja1juIjZCYQTSlF1E+w5raq3UUJtyyiOATFxFnHfwx41sh7u7faAM26VXUDSSPSGP1zVlswejcsWm/w15j7eArZ+5vUs5Yi5jXSCW4Y4A1tO0efpbRWZnik0AMp8DjhWzrze7m4fQd9vOMzEcjnnmv7QLiG1KzLolIACcFP3ZrYy3a28bdJBxC5bVgHJ5DArbM08UESRzqoYqOAKj9a2dLtF45rYz6IFiGkqxBwT4/sf6o/WrmHUUhn21u5cHHVxyqxi2cghjnik30acuHI4q5z9GX/rNWUdyuuL935K9zdYc624bqMS6bpwur5vVHLwNbDgnie8nmTVuzLpVtI+ea/tBbbtLeNLcNuY5NaoSp5cBWz/8A26flV99UfmK2n+8E33RxEsKt8wFc5FHS2sdIl63j1ql+t+gr+0rxQorrcaAQvJeqcVsId5uD/wBBrb9xIuqWOeYRk/N6ndWyr2JcXYNud787iRwz4eqtprtJBOtvu1hjfkoI54o3SFpP3Xfvu2PEmEHBH3flW2NpW/W6LbmC3PrxqY/lVnc2ttbQT9R+lm8Op/b1eOfCtotOuvdLAyg8g2DxqOGRJZTcTLGscb6NZ8CfCtwltDZq9mXMMMutSdXA8hUW0b+UxXbMXe616WU6uWfhitpptFN8tuI1hRjwUEcxWxbDpDXVg+8yS+d4VHAEjnW1bSyGi1Oz94YxyV+I+ytkcebW2PvFbVF3GJkWOHqNxXke6rdJ1Eoi2nuk1ccJvMY+6kjiUIilQoHcM/7YNjDHO+eIeTRw+41etcRrHN0Z9QVtWOHjSfRCwlvq5XNbHWPi5vUZceGDmtp73AZLyYyZ/wBeFf2bMvBDHPoz6+Xwragt+JGyirY8cnFQbnB1rAIseOV/2x9Zfzpp7vG7Tjyzx9Xro7RvU3LCMpbw96A97eun3mBptpFb63H9asE3W/2hJCqJEOZ4ccnuFXy313HDPeNqmmPoKeGAPyqw3l70yO5mETRtEq49a4raMbWsSRbiTS6zZY8OHDFQbnB1rAIseOVq9mtNqbh3VBJHHGrMuBwzmnMcUN1cQ3Dwsxfdq4HzuRqDXbB9pTDCQRtn/wDbw9dTSXLiS6uH3kxXlnwHqq8v34rG5toPUB6R+0/lWDxrbn+Mn/QK2vLa3jWCGd0MaAHJHNjnx9WK2ZK1uE3QDRqCcKRwzW097gMl5MZM/wCvCrCS4QvIciBAMsxJOAPsq4vdoaek3ChTGp4RoPm+utiRQru7dEmRBnkcf+a2l0fiy7KKnH0snFWN9HeCSMLEOj7saSDgYB55p3nIESrlieWKguZHim2SskbbqIaWPEY49/Hu4VtpX9MtER9XTUMv/wBsduMQe7HED41sgJ6SpMz/AFcD9aT6p/T9k/B+L/QP0RTJIhZGGCDGeNb22t2WQDAJDtpHqzyqVnt5MysWkwZBq9uPyo2kkTdGK6dARhw+ytIVsYx6BpZI7ZhobUq9fSp9S8q13kUznh8+QD7hRtGheSAnOmTW/H2njRltoHEpGNba3OPaaCXCOyhg46rDiOVI11C7OnosA6sPtFGO0hMak5PUbifWaWN7Qz44o/WXQ3j4/dTm0hM7yoFMrAj3vEfGgYrY3JzqjLagsbfU5fcKaV4Gu5JAAZDqQf8AzA4MKntVtzdw3B1HUCArezw9lMI45JhKOtMwJYeo57q5P7hqS5VH30ihWbS3Icq3xtTr168YfTq8dPKt9PA5lxp1LrXI8DjnTWnRv7uWLaNDc6aS2hcSMMF21u2PaaaOaMvGwwymM8aWWGCTeIOoW1vp9meVGa4inaTVq7SUYPq41bLu5D0ZtUWdZwf1500s0D639PTrXV7cc6VIkKIowAIzwrXeRTOeHz5APuFLbPDJJCsm8CuXbrfbTTQQuJSMam1uceHGi5tTxbUVw+jP1eVJ0mJyyeiyhlYfaONPbx2/yL+mpRjq9uedLLDBJvEHULa30+zPKkuij79UKBtLcqVbuFpNJyp0sCD6iKcWsLLr9MlWYt7SaWWG2ZXU5Tg5C+wchVz8iT0o5myrHVwxW8tYHV8adTa2wPAZ5Vc5gJF0czBkY6uGKWaC3feJ6JbW+n2Z5Vyf3DTkK56owNB9dXsd/AbaK5nMxUrrPdgfCiYYntJNOGmOZS/qGrOFqSOS3e2RsmTSWZXY94XkPzpJd21pNFFut6FLah4AeHt41MiRtZ71i8zhS28f1Z5Cre2eB7RLUdR01Zz/ACnniurbtZHdGN3TJ3n2fqeNR267KvGEShQYgpXh4ZbNSQXGyrvdN6SyYXUPVg0t5cQNJJjS0Kal6vhnhn7eFMqo0SuxYRKhwmak4N6X0D4Crhzbta75cTHi4l+zl8M1CdzJbPb8VlJaQ55dXOer6quIhE1oJiWnYAtvGPDh4CorKSJrWCDTjALZK8ser20GuYntZEXSZo9QL+rh8320LNYehW6oVOiPIf2er40tpbRGxhjzkhdeo+rPd7aQrbG03R1ZGp11fyoeAH2Zp5zE1tI2nfOAW3uOWPAfGljktGuk1ZwMoQe45qG4WB7mVc8tSlSfX84fWzXSXtjduza2jAKqr+IHL7+NCe7ga8crht3mIj1ZGMr7aihlt+lQr6MSJu90e7SfD40xhhNzvu1Gk5z9Y8x7aTNu92udQiywETZyNGeQqW7EbXMtwoEoC6cY5Y9XxpoHga7glcyPEMrpfOcg+FRR4bK6e5j3jxrk/uGuT+4a5P7hrk/uGuT+4a5P7hrk/uGh0yOZxjGA0ij4VJFBFJu5ODK+tx/+1b22t2WQDAJDtpHqzyoy3FszO3pYDjV7cc6EFxAWiX0RoYafZ4Uy2sLJqOWOliW9pNCaK1KupyvB8KfUvIVyf3DXJ/cNcn9w1yf3DXJ/cNcn9w0ODekvzD40sd5HI6K2oY1rg/ZQlgS4Dj6UkrfAmjO1qS5bWRh9Jbx08qE9zFMZQukMrSJw+ypYFikaKX01k1yZ96hLBbvvFGFLa20+zPKuT+4aE0VsVdTleD4U+peQre3ED73GNS60JHrxzpYbaIxRLyVYzQnuYpjKF0hlaROH2UwtlmGrnrMj/nW6to3RNRbGljxPOmilEmhuBwGX4it9BFcLJnVneynJ9fHjTyywPqf09OtdXtA51bhomxbsGiAVhpNGW4tmZ29LAcavbjnUPSYZDuOz0a00/dTmBJ+uNJ1PI/50lm0DG3j9BSG6v286ZbSFk1nLHSxJ9pNCZLUh1bWBh9IPiF5U9yYmMzx7tjpbivhilkS1bKHUoOsqp9S8qD3UDs4GNSh1OPDhXRDb/wB2xp3e6OKZrWF1d+bMHY/eaXg3on5h9Vcn9w1cf4n/AGip7rRvN0udOcZpBc7PihiPNxdaiPs00sU9zDFI3JGkAJqSec4RBk0+0rqLo+nUN0ZOJI7vbwoXiWu/cqz6YZtSqB4vUcp6utA3spha3EMxX0tEgbFGW12bE0OtlBa7xnBx9GnnuDpRBk0LhoejksylCc4wcVbQww7+4uGIjXVpHDnk1PaXVv0e5iUNgPrUqfA1bbPjiMrSHEj54R8Mj8qaZ11tyRBzdu4Vb7QkRQ86qUhMuOJ9dRS9TrjPyb61+w99W0IiM8szqCAcaFJxqP21JPOcIgyafaN1EbZE160zqI0moRc7NeCKYdVw+vT9Yd1XIupIrXc3DQrrlA14x51w5Vd2900duluE+UkkADaqjmjHSTM4SFYz6bH110S+teizlNceJNauO/jTTT7Mh0DhwvOJPgOpVpaFYekTDMivcBd3y+NM1rEJpe5GfTn7atbW42dGhnJ9C61aVHM400Y3niE+MiMyAMfsqC+uClskiBjrfgv21JdxN0mNR/wevq9lW8O0bHoouTiJhMH4+B8KuRYWJuorZtMj73Tx7wo76s3sojcyXnYx50+s5PdirmG9tzbXFum8ZA2vK+IPfUE13s5oLSZwofegsueWVpp3XW3JEHN27hWz7zcfxbxrp1+jqphbXEU2n0tDhsVJfR2OqwQnr77DkA4J04/WkNhZx3MTLnU8+7+Gk1eXFzZlFt20DdPvN4fVwHfVvDtGx6KLk4iYTB+OM4Ph+x/qj9auTLuo1hkK5Eob7/D2UTaXEU+Oe7cNRnE8e4HOTWNP318vcQx9XV1pAOHjXyl3bp1tPWlA4+Fb2aVI4/pM2BU1zbSJcJGpbqPkHHrq3uNOjfRh9Oc4yKkmAQlPpyaB99ItzcQws/oh5AM08u73emV48Zz6JxUv1v0H7XjV1aRMalB4imm38W6Xgz6xgfbRa1njnUd8bhqMEdzC8w5xiQavurdyXESSZC6S4zk8qLyMEQcyTgCibS4inA57tw1dH6TDv/8Al7wavupelXEUGrlvHC5rezSpHH9JmwKM0M8UkQ5urgj76WVpoxE+NL6uBzypt/cwxaMatcgGM8qjnnmTdysAhDDjnv8AZSvEwdGGQwOQf2D6y/n/ALiOyFrIsbh8TPwzp54H61HaWdv0q5ddenXoCr4k1dz3cTQSWh0zRekc92PHNW8W0bHogueETCUP1ueD4VciwsTdRWzaZH3unj3hR31ZvZRG5kvOxjzp9Zye7FTW11B0W6iAYrr1Aqe8H/bH1l/Ot4sLzuzBUjTvJoWd/adFmdDJHpk1qwHOnvI7Fn2chOZt4NRA5sF8KhhsLU3ckibzOvQgX61X1xLbFJ7I6ZIS/f7aQXOz4oYjzcXWoj7NNPLIcIgyT6qguLiwaGxmYBZd4CRnkSvdU9pY2KXG5VWZmuNHpfYfCla6iWGXvRX14+2o7eztGupmXVxbQij1tVzurTF5bvoeB5cDP1seFWtrcbOjUzk+hdaiqjmcaaeR8kKM9UZNXaSWzWpt3AwzZJyM/ZV10Gx38VqxSRmm0Ekc8DFW1wHEa3IG7DnBJ8KuRYWJuorZtMj73Tx7wo76tJbCB7trvs19HH1j3VPbXdv0W5hUMRr1gqe8Grboai9lujiFUcYOOZ1eFXEF7D0S4gXWy69QK+INRTJs2ToUrYWUPlsfS0eFPI2dKDJwKgnu9nNBaTOFD70Fhnllaktdn2nSpIlDSky6AueQ9tLdCJzI0m5EHzt5nGmhabQteizOmuPEmtWA58fGk+qf0/Zcf4n/AGirhb+R4bcga3QZI41s3927QmumuJdMkTT70MmOLeqttfvnda+kyb7ec9Hzfhyqz0WNzcbOgjWSMJjrP3Z1EHhW1laCSPTvzl8cesfX3VcKWVSbM4Gf5abcNqxFHvNB+bwz8Ks+j7rpO7bc7r6Hfy7vbU1xs3a1yHi1GPM2Ovn0dHt9VWTXNhPNbxRrKVi08ZfXkjlU6W0fR5RcSFXmXUvpnwNbLtdrTRqkkjsZol3fEDqgHuracWywb7+7rJ1n1NvO5dXnWyRJYXZn6S0kjNozK5U5x1quJrjZ9zLFDGVt9GjAyOLHLVYaoWj0PAAWx1usOIotFJbm1H/C3Z1+zOa3t5YXIupruJ5H6mng3BB1qtml2dcyWkSiQImjjJ/N1u7862iiQSxlZXfLY4/KZPf3Vst9nbQmu2uZdMkbTawyY4tjux6q290zdaukvq149DH/AJrZ3RJYYju+O+jLcM9XvHdW0em7ozbiLGrly44qRmuOiQx7RZrSXTlV63D7OdWhku47preFzJuU0omeA7zxqGBuys4t8R4ueC/rWz+A/hpe76tN0+a3kT5u6iK/rV/tB+OqUwRepF/rmtu/vDd77pEuvX6WPm/0r+y/S8dF3ben6OvT1f1q/nt/mMvSTGCRn8vurZ04vBtHfSlY4uHyQI9JcfrW1I7yVYnhupHYMfmniDX9nZrv5KPRKuW4aS3Fau7qM7yG1sgshTrcdWcfdVttCG9F5CZUMdmcYY/Zxz38c1cTXFhcSxQxlLfRo08Rxfi1bI6TE8cSzwK2vHWXx9lbO6Bu9W4l3u7+hw0/Grm+muTHdankaHXhBID6O75VvVG7upkRFH0Xbh+tLqyLe3UAkDP21s6cXg2iJpSscXD5IEekuP1/Y/1R+tXG/wD4X99/L55acDn6s4qw6Do1biTf7v6PDTn7auVdgG+VTGeOdZ4VY71A+nZ2Rnx1Ctvs6Kxa6kU5HdpFf2dt93C80iakkuM6UwPDvNf2hUyQOTbA/IrpUnS3dk1s/wD9un5VffVH5itr/vDd6tEWjeY7PT50d12e/l0+zVUv1v0H7dsbxgmY4W4nuwai13KW5/eDvCzrlS2o4BFbTgENt0/oZYTWh9LwBHca2eOm7OgTMe6KQHeB/e51tR5FDMkcOkkcuBq3jeGObfXCIu9PUU+JoK8ts8hs2B3EegZyOB4nJpP3po3u9O+/5m91+rjmtrfvLd50R7ve47PHHGfXWwNz/wDS8ybvXnTqx1ef24rbAscGP93/ACujlvOOPtxWx1DqWZ7bAz4EVtV3UFlihAz7DUYOAke1seoDe0NGMd2P2D6y/n/uNmnephYZs9b2VvJnVEuLMLGxPAkNxHxrb93b/KQb6HBXjq3eNVbIis5UldrpZuoc9QA5NbUjvJVieG6kdgx+aeINf2dmu/ko9Eq5bhpLcVqeW3YPHDaCJ2HLUWzj/bH1l/OjNNx46VUc2buFPeXs8T3rpoSONsiJfAePrNSQSuonjieBos9bXxGMVYWEOhr9oVHXbCoAOLNV2l3ds6ynXc3CcWLZ59+K2b+7doTXTXEumSJp96GTHFvVV+jTW7xPDIERIiG5cOOatoLaRXmuBFGiA8c5H5Yq8L7QuILnSm8RZjFwxwPro9HuY2KXDpHNOmreRjkeGKgtAYZdpSrnPooo+kfVT6JukyyNrmlz6TVf7QfjqlMEXqRf65rLEAeuts4kTrTJp48+oK2xJf3LWsgmZGRJd2Ao5Ej5321s2S/SFJSBugwA492keytqR3kqxPDdSOwY/NPEGtno6arqfO5iJxnJzx8Bip57i4jubyftWU8APoj1Vsa4hMS2WmWNWTGgEjh+VbT6EdenZxgLL9MknFWF1Z7Qme8+TQQ73gx4ApoqTU4LxpvGReLafZVttCG9F5CZUMdmcYY/Zxz38c1tdLp1iMu7lTUcZXTj9Kh2g3C1/fBmz/IeGqtmi2dZNxHK8hU5wCMCk+qf0/ZP8k/p+r6I9dYaFiD7POi1rYJAx5mNEXNLLPYpJIvJ2RSRXZP8POmh6IN02dSaVwc8+FL0nZ8c2gYXXGjYFMLWxSAN6QjRVzTG1sUhLekY0Vc1vzs+Pf8A/M3aavvrsn+HnWmG33a5JwoUUY7i13qHmrhSK0WtoIU+jGqqKRpLbUyHKk6eqawYWI+zzpYTZjcrjSmlcDHLhXZP8POsTW28AOcMFPGuyf4edaYbbdrnOFCimkt7FInbmyIoJr5XZ0T9bV1o0PHxrhC3w86Yz2CSl8ataIc45Vuei/JYxowuMeytFrZiBfCNVWmlW2xIwwzYXJpZTbZkUYVsLkV2T/DzrRDbbteeFCihNJYo8w5OUUt99dHNmpg5bvSun7q3UFpu4/oqFAovbWCQueZSNFJpZLixSV19FnRSRRjntt4h5qwUit3bWu5T6KBQK30ez40m+mI01ffWDCxH2edRx9DG7jIKLpXC45Ypja2Sw6vS3aKua37WEZn/AOYY01ffQE1tvADqGoKcHxrBhYj7POi9tYJC55lI0Umuyf4edPpiOrSMcR66uhtH0biVpWWFu8/pWgQrbRj/APFxGXPicflTG8to+IIZ4lUNJ628qVrlNJjTQrw4V2+3u9lOsybtCcsYMKZW+k1JbX1uhtovQWMAZ9eO72UvSoEURpu1aIBWYevwHqoRQ7Ot5I0GlW6Ru+H1dJxTR3ezbYJ9Fp94G9XIVHcTQJcXK90oBTHgPD203yR1yHUwXAUH1DP/AJqT5NvS9XgK7J/h512T/DzpemWsTRqcq+Br9nq9oo2ksK9Dzk4xqf2+dbiGEQW2c5hwjv6jj86ybeNePboFEzeon9azo6uQWlGN5IByDVoW2jmQ+kk2CDULWtukjR8hKFwp8V+j7BQuoYEmuj6bzAc/EHu9lKzwLev3i6AIz4jw9laQnSgww8dxgofWB3eygNnRjj6aNhVz4jHL2UXtbWKR5OMu8RcM3PV6qae1XeTyjExlI63gf6UY4YVnWTJljmA0M3PVio4xEeooHVCgfdmuyf4edD5NvSXw8a7J/h512T/Dzrsn+HnXZP8ADzrsn+HnXZP8POuyf4edEtsm3JPMmGOhDNZLJEOSMqkD7KEcVuUQclXSAKZraxSFm9IoirmlkuLFJXX0WdFJFGOe23iHmrBSK3dta7lPooFArsn+HnXZP8POuyf4eddk/wAPOuyf4eddk/w86Hybekvh40Eu7MToDnTIqsK3lts2KGQfOSJFNb82KGf/AJmhdX31ru9nxzuBjVJGjGmW1sUgV/SEaKuaLWtgkDHmY0Rc12T/AA86M8diiTHnIEXUftoG7sUnK8t4iNigqQsoHIDHnWu72fHO4GNUkaMaItLFbcNz3aKufurRDbbteeFCimjmt95G3NW0kGlkh2XBG68QywoCKElxYRzOOTOiEikMltrMZ1JkKdJ9VLJcWKSyL6LOikil6ZYpcafR3iI2Pvpja7PjgLDBMcaLkV0foa7jlu9K6furd21ruU+igUCt+tignP8AxAi6vvozC2+VI0l8LnHhmt9Hs+NJvpiNNX30Ol2Sz6eW8RWxW7NudGMaerjFEWlmsAPMRqq0vybeifD1V2T/AA86uP8AE/7R/wDx7/VH6/7yX636D/0Y+sv5/wDpR9Zfz/8AWp9U/p+z/8QAKhABAAICAgEEAgMAAwEBAQAAAQARITFBUWFxgfDxkaEQscEgMNFA4VD/2gAIAQEAAT8hphgzaLxcMVjP7o//AJ3379+/fv379+/fv379+/fv379+/fv379+/fv379+/fv379+/fv379+7slmir/7P79+/fv379+/fo8qR5X/AMd+/fv379+/fv379+/fv379xxOMM1/+X9+/fv379+/fv379+/fv379+2rSDWY1Pgz8Gfgz8Gfgz8Gfgz8Gfgz8Gfgz8Gfgz8Gfgz8Gfgz8Gfgz8Gfgz8Gfgz8Gfgz8Gfgz8GfQZGQ//AAfx9/WTV5rRChfAB6MIa1lO3SA78CTLpKfs65LD3gdqWl/D78cRrxcM6z1wb3KDCOucMKF3z6wV0cDIbLebriVNLgDN5DBng8zKeL6O5m7Vg6g3PEFWMzlLu0fV9aFpQYtzlzUwCuW2XEMPtiKpbkfkkE+ZstsHkcxZCLrw9sGSXjUu3D7YekFmyqgtC6gjZkYPQ8wNThlsKy6MVKf+fAPJ4Mvt3EtgE1HVptKwY9Y11Z3LosNroYSizo2W9U1eUrxd2ubM4G0xURxkaOzbi6vc9fdV38+Dp7Q971wx7uz0OoHnGr1r0oc51D115/ADSxsVLtw+2HpBZsqp+kFyva8XDHB+U5iDTGhUduiphteKU8NviQvZ8e8MzlL2maFfEuk4YzbtmOv6aotaVd5ljGHgBsraZeviWx/UB62AvgQi4ZPtYotd/wCIlDIsrTLUqv8ARBlxhk2oV71tGAGKyYinbZnMtp3ji48Sv6RS46ihqqwZNKrj6PPDRY4bp6HmNYwm/Oknyfc5o7zRlC34eMzB8JqaLsBd6mu3na/g5rqbcYmoCK2PP6lni7QoHl9jRrMsCkNSlrlw1zF4FlgEDg8dEuXRICbV7hIsNyaxg6lKGAQzeQwZ4PMJ5UXNzWXRip+j/iD0Tw6M7WgJenMd8SAvfTF+maI+B3K5szYNpxMaVk63T4rl904PCc2opsX2h7JH2LS8np4uIxIl5GlWzK2eaqVgrIA73HqoJ+YirVC5vBrcwECKLkBf8nmCujgZDZbzdcS8eeDCwbGmdQNbb4HYLuv3P2iMIrD+0xpWTrdPiuX3R2YEGoeXNmrZvZ/HwXX/AJi2Q8seDm4gMDi7rPknRAgWQd8oqN2RtUb3E4xLcLNCwobra5TM/XKMEX6Ec75fPFX5S63MJCj2BewV1Bs/5fBdYfblmHg6+USL49mGLyKf2S6gVzUXkijbmMFSVCCWM0OCIJS/qlBlpIQgmrSBmlO3Fyl5bfajMJCj2BewV1K7Yt8qJZ7pbbLZJzk8U6lzBV24wozQ4Iv6zwqrqpQsdoqZQnMgGvLxXcRBU6UFOZhpP3RWjQt0RcMn2sUWu/8AErOqAhsjjjg7luFmhYUN1tcowrBfP2p2RbAtEWHNUsvG9SiIxoNgnamSJXXY2SW8pg3KPnZjZIUe05QkInVsUxcNNupYaVpobHHEycgW7gDLVgGpS0VAWFTxhq/eAdKXAijJSLifJ9/x/WTTEQQrmRwohuHkSFo7doNUWzON5o3j61lhOY+ltUDUONOYqpZYA92RK9M+IJIsCEwu0A5/Euu9zQcgxNV3zDFORf8A/wBIC/SU/RStinIbxfvAZwlgrQ5FUvLKJxorRNqIxkrzAQUoOgv1mmqqjKJ9IHvKowsFEZqnnsIk2hTw8yleWYsW1O7Vo9cwwOsXrIdD2X6QVN8RtVB7MqfreCXQercsqUGWC6QFchbceJk+WGVQKtyOZcZNwI8xp0XQy8UAPKYmnVVDS3dKjgcNS+VZQSFbcN7axLWOccBmDc9Uro7cThUUV4r3qVHyZWK6Gxo3MWLandq0euZt4QIVBQ3GJsbBZF7Qus0IerFiZQE35Nwocu5/xP0S5Hkq0ociqXlhOBMekg7JvZ9IYJVgaTldOLMS16AjIXBErxMfIEbPiOKbrjZKld1vgK8dl4lVdBwC67yl0mmKKzKJ9IHvMIs8EDkunNe03W+92uxywWw0hDKtiM10hmUB1zvk5rGT8SxKFYWq9Fz5PuXZ4zfhgay8DmZYMAjLpUEXdwWV9r03A508gNrGwS6zl3g1ReFeYXyL9dG7GOdRd4xdfovulZhkrvEwabXRQUvfMNYCMBYeTDKS/qVmjtxxMQl5t0NDg7J1AsHbxErT22c1P0f8V5dlAEnON8DLRKaqpgJtvjxBT7bDAmwYTIKmK7XEhCuW9fnUdc18ajYjxyvDieB1Rv8AJmYLeOJkEVOWxtRseI31t6w3Cwhy+JTlp6huLFhpkXccFxM1A5eXS9YgiBhGZ4sbWG6nK/RwGg3jz4jYHBM5GwNO6zGpZqSYTWr4M/shMN1iEUvThh7mX5cxHCXjW/4+C6/88As1R2/ce1x2dgKLviA8AEKiObRY/MFTaxagD2N21KxTBWoMqMtpQPyWh3MDsXOeMRVarC7eOpbYEgwfOo2Ff8/gusdPIFLlQvr1meiyvltUdxWDEFtzwiqg95ikkUvAqHAtreoM6hj9ZtMTA5DiiB8W8rUJErfUi37y2QJBg+dRsKmTrqK5LaTpPxKBucuv6Dn1mX96e7w6E5tbuopqqV3wsCpSiOUyUzPCBebbw+rQR6C0wFILuuJUrut8BXjsvEOSsGFrUXoOKlYpgrUGVGW0NfBKwbDKrHPBNDnQK6zN+WZlBwgUhyFLqbolOe1GxXjqF9pK0T27sG9zDHs2xltjDcCxPUolq3a01ue1c7qkqK1nxC6ecChb95V9zAWebgTMAD9z5Pv+NS1HNZxfRS+il9FL6KX0UvopfRS+il9FL6KX0UvopfRS+il9FL6KX0UvopfRS+il9FL6KX0UvopfRS+il9FL6KX0UvopfRS+il9FL6KX0UvopfRS+il9FL6KX0UvopfRS+il9FL6KSq7CUo1fhAPLje+9mBfutjRd0EwvgogX7rY0XdBML4KIF+62NF3QTC+CiBdutjRd0EwvgogX7rY0u6CYXwUTBfvY0XdBML4KIQPW/YwwHtN0DWTd2ZeTMu5gTVLsBY+YA46Alrfhx/Wn0Uhy7G8ULtKULym4EW1bxQu0pQvLzAi2reKF2lKF5eYEGi3ihdpSheXmBBot4oXaUoXl5gQaLeKF2lKF5eZYNDY2q9KFozFizTeKU0tKU4eInGw3ilNLSlOHZE7yjdlKaWlKcOyJ3lG7KU0tKU4dkTvKN2UppaUpw7IneUbspTS0pTh2RO8o3ZSmlpSnDsid5RuylNLSlOHZEw2G7KU0tKU4dk+ikLN+Dq8T6KX0UvopfRS+il9FL6KX0UvopfRS+il9FL6KX0UvopfRS+il9FL6KX0UjZvsOrxPopfRS+il9FL6KX0UvopfRS+il9FL6KX0UvopfRS+il9FL6KX0UvopfRS+il9FL6KX0UvopfRS+il9FL3XtdvCfRS/WTZkPre/SMewhNEKUMkVxdq8SqO064gOBxjxNsFwYpd5G2JeIXr9fCAq2+dRWdtXAXGy0Yi+zFVBHqCPUc5nfi8ZJwNrLXGZingEC6Ahat8kHgOC7Ou5QWtwbrKpXYyVvKos2x+pZE8CZuDBGwwA8WblhTBvQzU0UnZNi1WqJePXP5iUvW1awkocs5uJgiTFo2FXvljOh9Z36Rj2EP8ftA2+DL4IuFpCTnu3D3TwN1gVOriCQW6ueZ1+6WB0Bysvb/ABOxXtYclnhcZo3i9+le0epsPbL5oRhLxKORY9wMc2BqCgSKgO7jbAYuUVz2XV2WPV3BPUdmbXuoBYXW9AbLkUSu3czfg3I9NXF4e8omwzPoGoO8yxnQ4VXXW69Y5svUhuy8PRjg9udzPV0PMMdjVnQX0MHlJaDZY1jRvEOiVJPCEVKXik2A7IFV2yG9jqI1auQXKdLoVjM8wjtEDVDVMuFFQvBsNa04JnCAAAAVQjC7Qu2bxxx1r9RNN6AbC8v8Knyfc1niBZuQeLuuoN9IDYekDd37R/ZxPIzF3x3CN7d4qDgFmdfuaOlMgaweXbesQwsPyWzyOWAxEf8A7PwpbSVnLPj+sC4cBXF3SMyVl1bIDTnPpLb8bbtqn6OQc90gNDHCi47zcbjdC2Wcm8S1UBX6YDNW89EwOhFjCuLbf7IfWNFrTgDbftM9CQZdP3gcwFtkJmtHNaL7kKmhcrnOy2SnMa4ZOxaK2xh4rmExgUDLlujqFyLaSAdwze5m+B+Q6avOHvNOxQuhIrG3O9TJJCoReT4UWbiPkYQdlqiDuPcAMq3FM3zjMHVRDWXCBet2V5mCyck7JRtWTkahB5XglF0K0e7/ANF5FNoNFoF/+zFSt6uxRzRh6y3Teq0AToM11cb8Ele0dog3MvQ6xRobc2Sz7TBfC7F5TmLEseJk6cCV+P8An8F1lKyjKHu2wfEziopnlHCS7TuN1rzDYZYFBWpilkMkXsrzL4fb3UXZZtDqHRKknhCKlLxSAB/XFt+DNtNwYpd5G2JXACsKSonJqFY9Q5raOrXiVSyEbr3c0Y6jgnXzwyDkQsIMwbS0l2dZHykXn0VW9l8zN05TkKq23Ng8KBpWaK5027gQzcruPrVGXodYo0NubJW2j3hRbrFy9x2RpX+oLMNRZWsagbM8lPUy0pdVtGnA4mKw01yQq2XbBHjD2DrZM55RqYdZRwvMDru7cSOy78R1/J7IdjVW6ln9jsRR72XPk+/4/rJgyMNeRbUq/ECNfcOtZynXValUPS1k2GRVbuicnP54KHQttmCgQD6cAbK95khbHcHJp6uZkWUZAAg4NV7x3Wv34BajuyPiYEJdApbxzGU8Hzhx3VsveYyl5DbeSjfFaj8Q8JA3zA9mZsSdRgABwaqKRZbGtlC1FLpL1AMFIpg2kIMfBApzU21spo4uETNNeRbUq/Ec6/oRywWfqcTZV7AcG5vOOYNkzVC06C+c9QYGQVC4FbdP5iwgM8taONxIB3C9FiJ1qC5OaLLA3jC2X6WZU33nBh5npYTClZW81FF3hxyopbhZuoYoYtBypDbqjUXEmG8NGaRYulnXrGbC7pvXG5kFDRc+y7xl7SgmXoJgGHNXCopmXaCdG3i4hVRaqcovtWBRkS4lbistfiXq4K40Yu45FJkbcHaNU33CJhBEktQpnWYwMyKTAqGjV01BMCBKCYO2WTdSgbrnUJ5h9IQmAEYCWRRze4XhccR8ETi68x20pwbLKutsAoCVdBUVXfNk3rlHm7kZ3W7zi5meGqVUO01WG/MaHgLaZRWTV2ekwtoDZNpq0cG7vAS5rnTilqrJr2MzZwkpFKNWNMXbNbhlu2QUAgniVS10cQchausgNXTOKTRYNfqWd8ssQtpw5Vhg+aRzi+WOeOln6OSgTKkoHqO+TwS7WNyzXYGvdlcTKIaIJk1WTXsWxOdIuixmrwzm8Sj5X1CwoarCs3qNbhayXguBerHcrR5/JMjQAGc3iXKAW+aoC8XbOi5yTi+sW6B6r8Sj65Yy34M3dMFtT3Kpxs8ZpjWOYmahpm1ttp2jDcWuxSKNos5WOYEmhjXrsDFYus1EJrK3M0JV2yYcQLMxdRhfCXWeNEzoteo+wyOc1mpkLpgLkqzG8frMDrJbrlosH9f9AexowTLxYqoGqNjQllWrGmD/AJLGJrbKUesywA/SEoCha0X6zJCMrFzAo801LKLEtbQpkvd8S1VDRJauiqt3R/z+C6x4OS5OBBF1frC2Bgc6wB+5ekOcbVOxyg37Qq/KIHhYIAoeYIEa9oAfpCJhBEktQpnWYd0HAQKczk5/PBQ6Ftsz+wAFuyo7p/M0uUM3zR0cTJNPexhAkcHcoNyVOrm4Efwuo6th0PaMtta1fKC/qMoALwDYL14nRQgWeCG9Zg5mqA5VE7OcTJCMrFzAo801OF2p47YjZSURk0a8CNR6SzUnYm1boVTfZKfOfKdhkVXdEy6LSsODZhbb6TeHDZXnOlVU1WgIycMsVu2C1COIOhg8YTxue7tQU3tt7IfX/Ua0gzRVVPk+/wCNS0P3sLVcLod06TibGL11hOa/3PUEOBwtXD+5QYzH2arBLaXNP3ivM5mTy9VR8D/2Z1FVj8jBPh2QHhGfA/8AYlGIZGaUu6nwP/Z8fyBcIBGxeoXeoQw9yU9aj4H/ALEy6urOe8V5jQMGUGxHeX1ZHpiI1Luf3aBWDa+H5h+RQADtzAjyGg6RHUTmILgXVl4ufA/9lWAiyJ1eQufA/wDZ8D/2f1i/iDHK89N3WyE+HIwdsPgf+z4H/s+B/wCz4H/s4g1Mfsny/wChcNLGf3JXepjUakp61FeCa3roXt4nwP8A2fA/9nwP/ZywtN6Lyl2vn+ZlIbxzZ8pq2hMexhzqItdQy+3OYi11DL7c5iLXUMvtzmItdQy+3OYi11DL7c5hUTS3fyr/AHLgauDZ+T1hctXVZWlqrqZP2l1r6XUPZ85JMHB41Ubxo+2jKawZfbnMRa6hl9ucxFrqGX25zEWuoZfbnMRa6hl9ucxFrqGX25zExsttNou8wi2sGX25zGU1gy+3OYCaLQJfeWG2C0CX3lhtgtAl95YbYLQJfeWA2C0CX3lhqotAl95YbYLQJfeWGmCgCX3lhqotAl95ZSXqjx8z4H/s+B/7Pgf+z4H/ALPgf+z4H/s+B/7Pgf8As+B/7DMWkV0UwZ/WheYMdPHIe6wSd8WvyEfA/wDZ8D/2fA/9nwP/AGfA/wDZ8D/2fA/9gKvKdDzBOfY4Dy3CGHuSnrUFtQqq/ZMwoq5+Ri1CtZfh3oqa7n7zsBafA/8AZa6PJj9kxlm9A9GMv3+yolJmFFXPyMeV6Vzrq3GYnS0dAT8D/wBhmLSK6KYM56dhezA5h/n3P60LzBh8Yka91mfxVY/IQ+PHNeqsEnfFr8hCMR2cX7J8D/2cQamP2T1HSexcNIH90F3qJ9WkgHzUUP8A9V8p8D/2frJsHxgL0Hq495Sd27ZWFcD4uHC9pmcM8p3ka1C7VYqFKxs9JXmUBotbPczxnHiMNZFtQsEcqFHiNsI3U7zDheLCop0fpsFQ2fCjuc8SamLnsudA57ChLvOCMT3cHKC5UykxxcTdBYYvjBMjTA9FMjBu1DUpaVgAYT2dM0O9z6ckarWJo5VC406Xu1KO1KXNaoVq4oguhqWNZ8DHrbzMVaZrTfs290mp88I7Q4su2+Ya0uN3ICDbqG/ts6lFwTkytljb7ef9koODyfQdJG7rxGUWCxcQqlbvH4lD6nlZSrgrL1TMrpdyhenR0EQLkAI5TZUNAZjISEl1NAfWbmQqNAZaOAOozTjBIZJeeP1DwMOVZk6x+SVn7zAK6t1xauVUxzjEzoYwfmXeHVsOw3Y2IZgg0ckw2VmEQ5j6DAmNHFnYUZ3NZRbVry+f3O7knubeAXrWI1ZEM1F2V9ZzFJrrNqf9PD1hTkluhpts1LLmOS+piPMo1KRhmNjGiXWE7nAyWxlguM8b3Dk9EKJi13qqnyfcpE1JqUKgqwXuEgaHIPEFD1OjkQEGitBxMNDGcCXRvPp4mUB8ZpQsXl4d5jH8Dc4UWb8NEsnnSpd4Jyonx/WKQEROvAjMGSFLLqNMYK9Z/VBtqp+j/iJTZQcl8BZP3cUu0B3qlscOL4qPEOaltDeX1L5IPp4rdorKCQRKZnc0K5r3m9LyEs02dlVUO3GxBYMQ3WK14uXHge6Gm8qhCL8DuOKp5mNTpkBQ1pyePyl9yuNDYDiLs54iaQPsklUBjFe8pchxQqtN1ZUozVsZIG98svkg+nit2isouvGiA5nTlz0n8fBdf+hUV4ldk1TtsYBn0g8K1oEjbDbQu5wBOhTUZM90ZgAk5qxFO6/r/o+C6we71abHq8Jj14VdHDmr3ajgfKOA5LEPxC9MYcARfLes8TPsWQrTN4SlENt1RoYEGVOrmZmgORkf9kAb57nW95tv1hqt566hku+hKHqTkABx5i3T6xk4K761cCkmb1gcAtWOJiLqYtP2QHlYkzFloekyQeFa0CVSWweEAU9C3r5jGgpIJS779dQ2w20LucAQu4byQQcNBi4j67tuTPjd4vYQJYRhdZOMWlupSQUlHdf1MWXAYLELp7DTk4jIAtuAnDH0GBMaOLOwozuAnMD2wL7VAy09wuPouUVUSyoej/c+T7/j+snbtDiC+U3W5XRuL7GxGVPavaChbXV8VKgaZG+dt6M4DvSx+QMuA4RoRwtnV8Sk7qQwU1Lg9PSWinAN6WmfozVrUzDgKK2Xd9wqIYLAooNAFBL8j8yCrEsfUi23gWovg4Kar9yxeKTqV3J6BYM/GnFcKNnm+oxQ2zM0K+Q/E9mR4cVZX4jJYR2Q8QWHVOmhs7K65nv5OyXk6KqoxatEKFcgJ5JTmJhFSjW/OYofGUlascgeAnjqNeCrqXAXtLBouwaq+LgLHKrhq3C3rVeZZq1AtuniUScpoYD4U1xB+QMoLbeDLtJKgtaNsoRc3yQinhuo3WArV7Uxd2/mNYoNxTgTNyJFgW6MrY8QUlPwTQaLe7GtZrx6l2PWKxUwtIcCOoqOd31HpFtDsbPOjQXKL6epoU2214hrAq0RoUA3YuYQBg5cWlpUxuOtuGQF44TEP/Vlqt0ZB7+krl1wMSzethrSaaZl11lb8IfJZHUUupZA7m94JWva+VzFJWlesyABlOtcmlN5O2dblSnaoOBbtVVf4Mzmf7FGiOToXoZmVrIPGeStGPmwg3pPdJYz4DF+DM0vrORVjw4L/UrRstRBleZdFG6vtCSs8zRlssTHNyu9MGA4tozFtGTBGrVUTArNWRJXyS02/wCud0T9H/EGviwgCX/Bb4j6MSE6rsc82VLXqDquOKXRfc/GXAN0usjho+yeVKY3ORHhemIQRM/Ba1YbFZejMrddFCZMrFYzA9a3xqOVKzeQckAOvGzVwxvbTCXJRWtirBwrmgyxERdVVjgO925BZMiGq8KbeFb4Vk7oEpgeDoPfVH7wVirrEZV0bP1WbfArpxzNkbOKrNTwdqbLLdDbp13Pguv/AE6K1HLvIv8AM4WG/bBW0PMUH+yRlIJZrzOG380KoTQb1H70RNUvtGV2/wDR8F1lVzIaz5GhxeZ7Cgw4ptX4lXvhqJdjhZ4vzPQpfr7mqg6mJ4rat+aY8LEWtGdsXxUPcy7lFMSjRoLO6wMcF1DuYWEMWUf5jfbTprSo07ODF+kwdS92JbEfunbpCqmlvpNF6jl3kX+ZwsN+2CtoeZrbjC2FCr8jEzn1JZbTyVuyKD/ZIykEs15i0xHMQZDJWXyy7f1HrK83pAmGDAnAdLGKviYisoDN7rRl5YVsCsRuxyKODjcPMNzZOwNq4j0i2h2NnnRoLjK64HWClAav9R41eT+E746xLg7UbXCzlRm58n3/ABJjRopiP1SU6VG560Y9WoLpIk6MBWNqP7prAu4wYhBD78TmCk4eiXPqk1WcbTugoY5qVAG8O3g5fmm0YM3eAJ7k+qT6pPqkwReYewZDywkBLIRjp+TQ1mqn1ScytHZO61UweQCaLq1OZWL6VTwLGXirlzjUt6oBJZvwi6CWPRn1SJszWB7MV8XPqk+qQgrmoqtuq5IY2uYs0HY9Un0SAcoQRfuh7qlcT+U9UC+yApM21fkgfiClLvIUMHbDfNfY4Go8sM2LxABu3iez6DN7CfVINFyiENLmlvl9ai1wYrmKB35kFCnpcocxQi/cHuqHpYMQOkiRCG2k3yDBPkFPJPqk+qSq4dNe4Van0g+pnezE+qT6pPqk+qT6pE6BztAtjbyGSwsclwILXdq9BbBiz8SOtPvIUMncbetCscQ+qT6pPqk+qT6pBdJEnRgKwerD0RVRgXoT6pPqk+qT6pPqk+qT6pPqkTyn7IAHKQHYk+qRqC9HpPqk+qT6pPqk+qT6pPqk+qRLoi7FfAFvtMeB/QVu29Yigd+ZBQp6XA+cJIXV0PfULQogInc+qT6pPqk+qT6pPqk+qRqC9HpOJ2KAnqAsQKk15nuRR4LBfCyiXWMU90Sv4lxfKHdNjSj4q5bunri9A/cpM1+iJzytjoJY9GWAYLMtKucS8qVkeGtAyjXWMU90SvxFRzaSKpOTOqlK1AK6LAjgcyqcQB4KW8GqfUudO4b9cHuhpKDkDpIHzhJC6uh76jJnAsp1QL7ICkzbV+SB+IAuQ3VNAC18E3jBm/wBPxL+823gKXfFxEKGVrL5oV1Alj0ZRKl8xAyHmVs+GMPmKh/JBrXNJrzKrh017j6pP1n8edOCRhlvpHrIHAFtlseDML6wMVpk2/8Ao8y4l14BRY9mSDCNbpbI7h2JXJ0ilqg6nrP6hw+g8JRtCCRLBawvBNDugsvJC6slItjgBU6DpfmV79NQGw2FRR7EgpTtzuyhKLxPQkrh5UrUny5WHv8AevMqlMJQo3nK2GTQLElWLXleIuTo2qxz48Alb9FNQCRCAyGpzR7a4Zmr8S91IZdaqXDfLuGvJCkdnbYy6DzDUKDQLN//AJTzq2ruG+fXLmC4HERbHNFOu4Au3RbfLhXKI05215eprcvJ6gRRNqONOgmWxxT+DS49JRzBzUpTg8bdEErharSmnb0TSCm4gvIuuDEITCqjKGKusMS4br10bwSllv2lVhFrEDAVdJjEx6CJVs8ASmXPjdlg+w6NaKSi9HCNM3tuOl5MbIBkplu4D0qW/wBMURYXg/DojYsRMRbAZOaeMS99CgvIQKcvc2tsK+QBXhaSIxy2k2K2GMW/x8n3K8g+2orb4Y9ZbUQdEIbEu6rUfZUYAhHbEt2Q4FyGnO9zFLYTG4c+rHjMMAGPHnErytkqbaGFpWwxi2fH9Y0phvA6SBZcTMtV/ayADU+VXzP0f83hRhVdivebqDst6VS15brERxg+ABDCduUR6K91YAilWzM9JNvQb42dOYrwisYGy5/1KPYkFKdud2UJavOe9sxl6BxicKmc2AJ5ZrriZuKugnbbObL15gSxcA2BsEvSNhkSNFQdEyDYRWWy8vniZI6iVVBOGHMSNaCFGLOHgx/HwXX/AKbJrIBcqeNRNP8Aer+pAMlMt3AelRAHgYXQP4SzK0F+pfpX/R8F1l4QPpA9k5T6GYUPAUc84mI6NXnIr5h7Z1twNHrmZtEXohgy7HuBkOqsHka48TorogeSnlxiK4C0cMZJSJTMWYsplc2+kPIkQN4X9kti+htN1JjeaXzAC3LRl7j9HmGH5ND0e4iowVgeGFbcBQEn1WUHASKq8XNbKD67LzFxAHgYXQP4TiUr5AA5WhUuFqbYV5d64gYA3MTLyaWZcX1EP1q4nTygNAW2t/ogcJx1UZua8hzS6egWacT+nisp+7lOjJ6LD0nwjdzYz+E+T7/izGjTTMfqkQxU01a2Ty7YTxB8BNStcKjsSDpvp7mL+trGqpsjq3XgEKGVWBxs6YLB0ono8QjLjzlHSeWJmLoVreKjZqKqrpigDoJh3iBlSuEjS+xYXGgB7RcmO3LypS8VYVR9M7RowZVdvlmEmXsxwD9Qdtzhl6rzlcHpvSpoKnRobTuHdZXh2yKnmxCFvQbTF/k3dy4ijKigUMF3qD1EDwOp+iRRpu36GVhecq8RIV7Se1YiepF3Z1my5tMp2ZYoBiuK23cIKEwJnCqDyCQ5fgA4IJt8ad8GU0GswquE4/YyzigjzT1uO4lbGkVYlcjjbGoFIa+hqgFne5kJhFU2kbK7xH9oAbcot+8Q3wZCZ0LaXFqTcS6JriAb3reVKv8A8KqP6EG8SmgGaxbbH7rWh3RFF9ErQ8ylVTS3d83dypUddC6AAG3RLko1JRSNpXC1p6FRdXF3nhDxPqkWyjmLp0nAP3BWZCWHPHm6hhXDoL0Etprwc6mQZubLpHYXYdOpuxdnAo0VV7NGhxxKOUP7MMKqY7V51DKZhQYRjJ0KPXEdo8Q/IZrkaShWOIoq5w9K/uBHpjWo4ybc1gt8SlTlahxFnwAXthdeYJotv6NnKwt42KxzD6pA4gLBY/uY2J2uJpeb0t09bZgNxDUqIORVbHjmHqxuwsAFusJ2/mViIZqHs0Uvk/mAYuYqW01TkBb1mZ1OugZuq/Cb9vzKYqFlUDBeS5caqo51ChM0ULsxLXh0/wCsW5HoxLy7AsCKp+kHHEtoDEVKpAZVoKvEKmHFx6ATT4YcRRaEwVemNGqC1xiWstdlV4issOWuJima1ICqKEN4cz6pCpL0ek+qT6pPqk+qT6pPqk+qT6pApXfh7gG6RvYaokf0IN4lNAM1i22dWJCWrFNNYukKqspQaJ9Un1SfVJ9Un1SfVJ9UhUl6PSWtxhVaDREvOuIJAEsH+F/cwHWUc24rBc0NRDL6+hzjK49pg7bhnVqmc+0yWUZXVAC2uW4cL0Cckx25oNwKtrgVqMbkQqYKBLrFlMBSZTcTajtZbxGhgW15T34l2kCLX0QXBEDJS1XLMDYAfzl2fqI7OvQUYDjqpdZJeG8hU8qI+OYUAOeHViQlqxTTWLpNMCIA1Q1mBr1YXlylPM2pf0RTu+rhrVTDEVKgUcCvAQhJWBRsxVgeFEr28k7LHddXBDTrjg1YOlZoRZx9FhMXh3FGSlAseTyXKbNO2rAAfiXXDtr3H1SfrJjxRbwRWQEuqXRS01mmmKF6WCyHGdZnLnXcx7ixnvODgcp/gUEL2dQ0AvEv0+CH7mLGmH51fSpI/mVUzAXKFrcWTPmK4GBM8rQC8ZY0sNEvg/gz9jBdUKzd5cf8uDLCsbMrzSI/y1vz0M8aVfmGiR0t+Mq5oMDLl5ZgQtXVpTXFI3gA2xtBqFOMsqAiWp15Q0dy7FcunZ/AoIXs6hoBeIZXp4aehc6/ivotbCKrPJDJNIgRcvDsCFq6tKa4pB9AyaHBTiXlo4XHISaL3ODCqpn1/CFuho2gTe2RoirFUJqW0i5rNNMBqho2gTe2Rol7i7HULoRU1mmv4+T7kFsEUGHQ/wDIcoMbUFwYWjiAWXGFguh6IUg2RwMMINpaXGJ+jkbWh6dan4T/AOGlGO0tiDHlnwXX/oyefJyCujlaIjqJJ4L4isgJdUuilprNNMwsEAbV0qltcWjoEgztLw9O6qKl8JKhZgomHI8RpFl8bg3S+FD/AJ/BdY6Trmq5BY8wPWrcqSPpdzYhdQGnN2B5Co+jYatztAPVinMo8DsavPdTjWlGC80n9QpR7HBCksvjcG6XwoRftygL17Jl/DcYyc2T9wyLIivtWgHqziUfUeKBpvcLVDiatWxoPER8dqgNsssk9KsQc1XYRO22QhbgKPBlNKKexmNkATaulUtri00qPdUvD0zbVS1DoIjrBRGtjEDvtSqD0zMS+1xXWCiPYygIGqJaKbwXmqhlVlaA2wSbh6PUoPChG5PFm+lKGa1uIGuqi7eTwVDQGp7isCjXrPk+/wCP6yYXc9My/pGAOXSqL0qOTBBsPanz4iN00zivyBOIB3nBHso9osD55upfWKy5gFYtvZ0MQ9niPMMDe/VAVbbjNuqmLME8OQKq8tbX0nGSRhbPyMyPl8pZNJ0PrLH1DGdVq21qcYQLZUwHBzXmLA+ebqX1isuYmqptY0Gw2zChbpXE56cjqDCxK67jAuWj8TB/DWGzgNhorctaXiLY4FX21bMCRJXZkwGDglHeSSrR0K8+IVK7RqgClrco+41yDeIWutSgqFJQ2yALu74hvEWZ3j3Veg7hUVWzFybxJkNvF5qY74zkSNHNjm4QJ2S1bFuRziBYVKrzpvmW93QByviDBvGaSlO7dx6SlI2FlZbLI3C26oLV0wUmLuWz5ntCNEBQhUN4izO8e6r0HcdDVMev7j9kDYHBa65WDwzlYyrBVRasxLhCUqZk/wCF+IUA07cbwtoW6FZna8Bxne4KhY4Y16K/MSgNZRht63pK3X8fJ9zulNayN2NXQTjqVTCPGu2rlq6x+8clSr4KPIzcr37cjMv+xvBKmn9L5WhsyYptlScp9q7NF0YqfH9f4FUcWgNWDoV58TFpgk2i+bn6OVKXThyXovMzgWYdkOn2EXFvk3mboGnUryYNcIawMguqNLXnxN+pI5AXJZhG6FWStR7o9osD55upfWKy5noTuYFeysTtVAJHRwzFbkUgC0xOyYEiSuzJgMHBA/MAZKl2vPiGC/fR8IGceJaNP0vR2ODqAxsPyjRsbGxcjouNz9yk1k40hmD7oAUH/PEJdcHa4NXLAjJgoXA2b9NTfpGJOXCqL0qGL6SAti/hMG4uhyn7/rlYetXARIb5Y1Q1n/l8F1j4BQXZ0p5ambpr3klO9GOJaYA76CesHa6mgwfAeVlA8zKQgSmAAZzMoeIFhbiNFZG4qKi/mOHv1gIkN8saodK0wk5OG1qiNlAAh0rwY9Za1i8HvIKO1EoUTKjQDwArMeqEeNM+NCAwgeH+NgIuogw2Q/hQq3mfNRnPO73DF9JAWxfwh5B/I6a09oGhXkrircstveplhoZFDVviM2+kJKfWrjXulfwQO93xqOqxpVM3Kn79BZOwLDTTmL90Kwn7GI/dDFj0lbDVnCAuPk+/43LQ/WxI2FgDscQj6CHgyU8FS/i6ubvIWfh4mfacz4mFQPU8HH+I3isV+6mL6ERM+hhtZAhn3bZeRaPzLFEvokWoeIFlcwHtY8y3mmWTgra941blaKcplfWDt1kL5hQPVcst0iCPDyLZfB7hjt6xf08mT+5m19Ajil0cLx5mbWey7XjbJv8A3DRGwtGzJ61rnufA/wDIeNscWUrXLMmlbkf2PmoDztAnpinhuGa16qBt2cmetSkmwPAZWvEz/aHB5xLXoGDfG57Kjk9krdgKHtKIPfypLtzs3cpu4FXPjU91wykBwBwYiJn0MNrIEGHTAtzaVPGpdSnrHU3o8E7i8o2t/wDOWu1fMbVY/MZJl2b2oKvLLXoGDfG57Kjp2kw20rXEHsepMqCe0twu/dKC+8RuILG7X/QE030Bj6HwcRJgmBe0vTwTqmADpo40GpXJyfi1f8J8D/yKWOIsW/CDcHHmNCwpte9VW4/tuGctnJTTx5hfdrSi3TzdHTuWvi2SXYsyBw6eZyCwJirFsIdPXcouOvsVbKd7zx5iigh1dvysyryd8xg3ECCixU9S5gPhzIMJ885oxuLT+QPWnKc3tnUXQ1TeVBq1znjoITnR9NEAiVeIKelBajh5lvhWnVQW0ouX/wCysB+d1kN4TOnruBpKy4xvt0Hlx5n4/wAqi/JWXHmctYCTGCNPbfL3heOsV98r2duPMdJqLDxbnO06dwqYjfCAN4F4MvecWCJfRhXqN+suYG/MrnCGSwPiPdEUs3aZ2h5eI7ixDmaeBVZ58QDA4pUdqxOF328T2fVTxy8OS9dTDhVDLYKt2b9dRATqrb7sUtH3Z1AjiLf8DcvN8nUScKb1LM5PvmfA/wDJ8D/yfA/8nwP/ACfA/wDJ8D/yfA/8mASd0h7GD7xekrVxVVtiEfQQ8GSngqAuIGCTVaHvuPqQRuDSgtekH83JZ6hfeLuiVzOWyehPgf8Ak+B/5Pgf+T4H/k+B/wCT4H/kRV5ToeIVdZ2B03V5gZoQQc+UT3OV1BtfKSxQ+8XuszmBb+ml+yoS6jB7rL+E7vh+Iu+pXM5bJ6Es85fjgq09YEgaIh+pYsfezuszmHumP+ktTzNAAWrfLAuY5er2EgwpKxRqjT3TwA/fth7ockYtAoweONQFxAwSarQ99xDECXZwDWPBDrXha9G1K1qNjRyanzcMx2Rf3YX3mUxFHsxfIRUhZrZL6OeoIr6lqJj7Eq+G+Qhqp4ZmM6wH4h3QBxhoyteJY/8A1XwnwP8AyfrJ/Q78vNTJA/VTGi/zP1oCohbnqV/HoPLqEevrSmlVrLhA81Zt7agHxS3iGCBQXyL3NXVzHqpxMxfDNu1X6nmOOL4O1cRb9qLTbUdR4tcrGtZaK8Mv5F5ZKaDp2EoICFUsGsqLGIq7FvhpgEtFWoxY0XlqWrn/AOJEp5lCILIG5TyKOc9TQ3829B5dEdAtjMB0ZxFjWT1hZUbnlzLp2LECsuvZmASrWk5l1it1AtZqqrtiKRNepWlc3M491JLVKGSzFS5RQFymgNleJXtYC9S02rwYuoTDViOXg1+JkhUWdhpwY55l5/ceHjaVxHoycWqZi3FxLVU23L10FmpdNFqPMVGavaS0Bse0Xwz7YCxNBvcEFSgXuhBwTUtud9i068cctR1GLfDTLG/9bd1mvaPL9XvmtTLH6xQxxVhwhgB88yF48CorxY47hPaL1vqXr4xZ4EC1Hn+Pk+5UJOlKAz3521CSPdSetQUSC4ADT0n9ivOtnV8ywxq4l3k7yYioX435XEsbZiQLqlz97xAVfMMFF0T5rLwTYAJH03ue7KDtto3U/R/zYI8tbdWcXOSW5JDSOhmK2ykgPqS1jVlH5XNKUzcBV7eDmFLm64eWY1GoQ9aYjcD+Qbn07lFsbApdT8riWa3RjW7GJnsAD4x03xFi9+Qstxc5DIYoKZpF2vBCq0pQdI9fx8F1/wChE4jM9NG0z08XLj6tEdrBecADM/DYAwyGlitbjcFOqjDAtQ9xUZq9pLQGx7RfDPtgLE0G9zDHCWqVSyxNH/P4LrGMHE51i+Dyy5cIFgAuiks4jTawElVDkU8j4malo8jaOW8AMb08GPBKJpEzXtMkD9VMaL/MKUy7gFsGmVRJ1VYNnLVz1pruqKkYCrxLLGhf4jlhPCLWhzfAM0IfDQcBYtd1MmLjkg04Mc8waG7FSug3KKtPCpKG1OrZQsaOCsXL3ykqUgUwaHL4IqM1e0loDY9pmFkTQVarw95j3U+0VROnggQ8QYxaZAO8yhjFA7eqWYbwS6icRaaFTHPeuJfCTmGgvBBanfY9OvHHLUBV6K7wptGa/ceP8x5RrZvrMs+ZR6owKFmKnyff8f1kyqmUBp4f6lTMWdiaemMlEfs2Gsw5ro9pd9Al6vHnOefSHjEGKlaKTfL9XMQTRC+BMOSbIS/H6psByPgZa8K7alMXOuw2qGeDbMw94jucMbj59I2sgNLZKvs0+e4iiJ1Lyirc5G3UrNXYCittKzSxHQzoaGP2usEuLGdNow3wYwX3H6tOThFx60+Jl6GZQrTHd+JeX4LAHmqDBgyq7j9PIuush+N5eIU+4TDcgE2Bv/YYE1h9PB1cOof8LM98XFXIWXvEqjSZjBbAbd3tK7+/wrHWaODO5hOJwKhstly8ai3LrZbZ6AvebjHbbmL1kYJj5txbg8w9Y9bvxPa77TredV/SM9r8PKXi+E1XGB1FDjat/lAt6iqwvFKDFhxzBSc7FX1ljM+K/Aw56sxPMn1aqrbT9zMzj8EMYUcMDxFY+rQ2VDfBjBfcHWecHIKXTumYzoq14ZK44RDWA2Zp7shsVu4B9DAn9H9I1deU1atXltYmvIqsLxSgxYcc/wAfJ9z6Kfaj/QlvohvaPwgr+O9nQ7hV6YjYUL/bFGSKy9T0yzPmNobrJgcFzeVE5wKKzpbnx/X+BSNg/uKq+MrnwKHU/R/zYA5MVgl9Jca6Xc6VWJfJOQrcoZNhbkyymLmykGL78OO5kO1hlZX4IzCuUZKU7Ctcy+jBVJiyo/pmy4oN7H5Va48Rfgt2f0GVxYmv3Un9z2g8NoN3hQAWIVlyfxUbSki6Gz+iGCiF8t+CJhKvgr+Pguv/AEaqAVKHvMQRBkSD3QYmEmkBYzuv8gnG1NFErRmveCk52KvrLGZ8V+Bhz1ZiO8fG7XJ3X9/8/gustHxbZaIrIYFfPmfCo3xcDaHJap+YPVXKiBHQ8bZgtnRAaBRgKrBKmYs7E09MZKJfccZVUsz9QGELMdpWzJfpEwKr0GAlIrykc2YLdVkWfPiKVlZZ27lTwu1hiatIr840cB0Rbg8wdY9bvxE53tVBLDXHfQdyrv4IWOxYzdr1NUpZXYuBcsdwUnOxV3N2MekAMrJmdCLYRZBIr6Dg377ZfhZQHNExmxLIJcFlYt3X9y9OczvcBKL0XjcqbPSp7c+JmZx+CGMKOGB4jwSSYziX0qPYG30XH0Xn3lXxkgVYnb/U+T7/AI3LccXjE5JFI7kbdE6eqmfrYtXK2T7KQX53l1rU3zP6z4RF6JpbGF66czd0YL1U5jaRa+Q91z7KTpKUAWtrh2s5EGBeyzP6r/QgxJFVqaKszhqOFQpFzhZj+EuWorifZSLMFIADY5dk+ykhYiQC1taHaz94Fp1HMVVlTyj3lzgzAdBDRcsgqDystzU+QuqyqotVW0kvoMp8cEBNC3mpeCZKE7BvE+yltS2mLW1oe5jTgNPc3AQyUbg6yqVJZ/6/Gp/YL1gGfo4uGK4jKN8l6iwdRdDXsMdMmaz9lxwqFIucK81RpsF0VxGUfNe5acwONN2H7LlTqwoDQt2RwqYRc4/sF6wDPspCdOEezbMP1dHRClawrXN5grzOHEsavyL/ABCv29R8WenkPPUzgYcDzbDTWy/xM8nMLMYEzRrN89QzVVazhaV6Wf1C/IdLjl0cbH0xBvKobDWAegYhghewdhq7vOtRWD3Unk3j0L7jqim14rwDe97MNn8Ocfen2UvspLFThj8FXnyZ8S4g3XNrdUxd7OXxKVrYRHGBXkNtcTBUEoV6NJ5Db4liAwB7jdHd58WzUbJ+iduuqz2RcwqlM6/6AnnMqT7b3pLa9MV+ZUZTEf3ftYT8wHLogcWEp0xX5gEXfHpL8GE/MrRkJANBV4PBj0cxcQABc0IqVb0r8xy10djgFg3xVPrmVH3AiOBQ9J9lJ2L7Hq8z7KX2UvspfZS+yl9lL7KTt+tErKBT4etUmoGl6AB6DNnQWvUjmfo4OGK4jKN8l6iwbTdDXsM+yl9lL7KX2UvspfZSdi+x6vMqoYAj3S7gTHwND1Mwwd6dL8rhSrgAHVrqatpbesHM26J09VM+ylpdHX1LXFdyH2RbHISqhAgpVwADq11MuqCX6rTaFtMWtrQ9xQZKKB5FjgatUdiT+4WYoszixPMGWGfo4qGK4nKE8pbq2JaXgg6GuJ4S9O91QbTdDXsMZb6Ar8rhSCXJPqLrxHT5ms/Zc7OzMni2BCHEegq9RXr2DL7M9l7fbyn2Uv1n/wDP/k+/+z+j/wDjvguv/wAvwXX/AO35Pv8Aj//aAAwDAQACAAMAAAAQmPKHONEFFENFGODGGOLBBFNRIOGLCJFGOPCFMNJAAAECMBNAAA+258/+67//AN+e+wi4YA8kYwcQ4wwQE8EIokYs4wJv3GbBgs8FEQwM4iAAEkgIMgABAIocosYs48U80UyFO4YJrVF6K9vo0DJRPPtR6+KwMI2jo5kAh7C8l+wAAAOipwQAAAaVOphbLOPJm2RwNDtgQiw1K/v6nzj6ZglWtBTg+/MpoWMPv39ufdeIAAADriAAAEG0Sxns4PxoZbvM4AOHO5EUbIR9Agc/X6NYFH8GgSEUa0pEcsS0oMwqyAAAF1igAABNoMdz2EnNDScH3AAMKjRJuagNM0GtCYqHC05VYApoxFYDgFg7ukxjaiAAABu1gAABM5RBrRkIIpTPqcwF7phTBxQQzJTFd3zjF+WrD5QJjCh/gSAiwRRQhCCAABhambAAAHMcdlUSjKqtjkWwMePqOu/4vBMmViKyePrwKtvwlreSTuIteLoq/e84QAAJKzCAAEFsBKvtOCBUufAxIGE8qIpiPKSCf0oG4+dj1nYgAk8dV8rgHwnfM4OKCAAAHmbqQABFnyRpH4m/jZAhtSAAAAAAAAAAAAAAAAAAAAAAAAAAAAAAAAAAAAAAAAAAAAAAAAAAAAAAAAAAAAAAAAAP/8QAKBEAAgECBQQDAQEBAQAAAAAAAREhADFBUWGh8HGBkbHB0eEg8RBg/9oACAEDAQE/EKJQJy5uwutGN9i+CedErmj9UYWpWz/O9BwZPbHKiQGK3oEEAixW/GdKJR7PySB68UJej2JHx1wvRY32K904fLr3UA+uy+6MEjIOiUCcnsHvhrSNZcwe+FCSRyz7ZHI0CwQx5tHmgGQ6bhvprRFFiAfLXqrgES1vHxNAg25K90C6ME8xXujF9dijvFGCjrtf2KJS7jwAfmjHNVWfUjwSPigCbaDyUKAEJbnzRCbwexR3ijAB5cj4Nc9/R8U4fLP1Rjmj9TSLXLP1NMErofIY/mGBmCfF6Fxqt36RdASAxjsyv9oAhFiGOePP8GzHJA8z4pg2tK1RX708USD67ED5osDWdr8zownLA/NGEdVsT8TWLjlvNAxGRX70o0HNbv69U4B6DySNlOk0ASgNOzKHx2IogUW5z9ivzckfD6USTcfa/ek/8BVKFq/FGSToR2II+fNEPmi9bzRk933S5rNAkBiH0vVCoAwW1qAQMBzmlK/bbniK/dyT7NEPfcPYcdGQuXdEPceb0ZJ1C7UYF8gAeF5mgVzRUAAAHEF6XgUZeq2qWDkFQu+mwQoiiwWz+zpVlYLYsUAgum1AUbiXvkJFrGBxsMIRV2++QbBMYECbgwhFEiSZ3OAcIxghN0wGKBZM2yg2ALBpJiXJiKAxZtEhLuvlZDyVJMmb3mWVEkkrCzKZYHQRAGJBYDwnFHGLUgRcAd0saCCtdkiiXYzsJbsI6mHkoSIjXBIGZMBk2Q4BRkFyCUAoCg7EE3BUmF14RC6nnxRxM418m2IbuDwoy00AGaMEIdyCcMqU1eFIAgqEAAGLxig4gT/MRp8380IWi2f2etESBGndFh96ABAWED+DK0qGxr2ZZ5gIFL0dqMjWZ6hGpjmCohqsScyT5L52oGXq+9QA0XmZ36UracPnGgSEReNixzQUAEWH2+aUnzIujInkv3tFv+GAWeCX9UgPh4oh8xaoUDuAGcy56xjrRnjiFN46gyIi6Pp8NZd1R55PwlprUAGX650FE9D7Egd9tLURAYy7kj97UQUjAFeQnufysnHzZLf3Rggdfp4eHXqTJHbYHYx5dqCB8fL+PisOz5fxV0aD0PoViT/lz8L/AF0Z6h8AleY8UTIi4EbEnfYd5kMjuYf7lUyPXxC+YtHmYjDcyHPOFYpxJfSOLpTkM3M86W7UULZJXUYmkEDJQKMk0zJMOwq5CukoQZKNFrBSRGFkrkLIUaMmgQsB3BYYLiRcBYpqnUEAF9HPUoWDKBiIBgizHUkjYjXNGKbEkxwmFdKBIpBmiWySuFrjIUgyUKvelgBBkhpLMWQkRirIxReAw3GMBBshSCZQ1VjoFDsFJQyviuMMRUiKE+5WzQFgMjEANGpIHwPJyBkESABQOaBugpmBsyEWBVyoe5rEvpZCLARSMCER/B8q2T80hYwXlCPzp3qTV7OhSHgLTvVyPLD55P8ABSD/AMkHyVfLxU4lmXrIXMAxpUvPpJBtlrSEK4mOojmF6kB5YPY90Ujt6MdJnM+axkduggffeiRd3b56bUKDsvE/hI+qwDp2DKG8nKJwEgTbYizs+rVKIxQzq98zlsL+BsT5wL0VTBVpQykfU9I/4DKFACYcy87eVsfB97UXYey+3070btI7sDnSrEg4PZfYo3PD4APyqgA5Zj64qFyOnr4t2ORoEMDYS9E+dRnQkgVyuzf1QoGxW5VF4e5VGBq0u/ytnRKPnYqkWAMX8Ly7XpogtOwf3w1iRl+ffmibFw9g97aY2NGFzD7jfCoNA3b4X8UpGv0T8GhO27+rUTDp4CWsmQCAHMrBvRKroS3JlGaUUm4sqJJBJYMnJBmVCwyVGpEkkiSTYJse2CqQAliTdgMTB1uheiSWZnYkfFB6RaXMsgBzhCb0VEgRIBiZDADnApNpQqJIEpYMmWumUUm0JhUQxKwGTMkBzIFjeFopAscSyxBxbgFjCoCgkCtJyZUwc0pQqIiElJgplMQMFNFgMGJME2JiBgpoEh0IiTCAxMdl/MXNASjo+XRMHRPuVt/Kfrux8T2oFpYtdj9TtrRIAfXYie9+gohRjOw+aN45AP34omxGP6z2jzSRDLh8UwkdHPqjcOK+TsqbAd7bkHsE/wBTHAXL5BoBB2M85eNaLG25I9Bx0q4Dcfj92/5zyF80ZjiPxR72+7T9CnI5vdP1Rx1/34e9DHX5vRDbx+gPQFNEcwXqgESKIZPZ7EeqBQHOM1CVwtrUgPAeC/e9Gxdv1+zvRvQJAHG9AAJsAfCR7ITWK5h8AcmrjzvBoyXn9L1QlrkL1Qm2m35HSiVuKgAIopKbqUsshEwDIAbMmaIfWmVyWYJhgEJoklmjIs5DIslOCYgJMFJLNZ4kFkkwGDYGwSAIAlkxO0zaQvEYsSxgpNEpRmJOJcnFt6uBashIQGgwWHiQ8AQdUTS0RGrqjmBsIhJM0SFjObrksvqkCITI0Yom7YlsnETIrVJWoYDTBJaSIFgoQQmdkV826CkhklxMoiDTL6zK6S6hBEyiygMi7e64CQ6IUyiAogDbAGWIgLIACGScyUP5AJMUMDGe+fWkAhyLfzgdGSX37yfJvR49ijabfcUdeR9UZM8VYnz5JP3QJZOu/wB1BHhY9ZvUBbc46su21vBoQdfUv39aUBK5d+6MjT9fuev/AGRTFO/DQIGFD8MIeB7zoBZk72NXwMXx6l2NMkkjkIenRDIdfSB8/dORp7SfbLShBHlgPY95wECdj6Ag+/8AAhQnV8CfMGNaDb7DQN0ZPncD6fnuboGXwPodrWpi2b3JI9zhRnRPdr2vAzmmOoNyDsLcNXGr9PODyoEMuzJ8v7+qZB3ie4vcdKNAWC2c7xRvlHoWdvqgEIxC8svY/wDDiSSAm4ZgJvBFk1ggDQ7gxMIBEglNMCAtCDFAkkkFJhAKknBRSaRAdAwm5hgkMIwHcgpE4WYYQgC0kBlgoHcjNDByKIkGzYu5Jvo0dXJvQkqn5BZIQxIBumLXumJSgMIuASTLrcZkSiekkhAhhsAZQY1IzIMVmAgAwxHyIIWEIEoQSGFmJBnMCrYEAKCIQLQuGy1MRYqQVT7CcLCJLUD0zBFP4ovyeRh/IBFhRBjAX65kKkYzLzhzIfycH37EFdIZpKMn3Zf6dfNFkaz5KNFj13C5pRu+WXwPFA0Oh7z6cViOu2Gy8mgAI6DzWhQDgj4cb+aEAAabEkDoH3pBwZ81NDAOwW99Inr5oggumxJ8S+tXMz9j6PnT/gT8+id0qAtr7fgEY0BQLkrxf4FBgjMR2BPxREE8uB4nzRjQt2R/nbOsCyey+6ctFuxPn7qTztQJ5o+ftEokDOPD5LzgKMu5HdyOzU5UAhZ+P0ORUucZe/rkURAdPJfwOtAszoT4BPxVg6P0pASwlbB7H+xRgarYRtvRTWj74fJ8UXDGdgD8/dRKYei9vmMesdl9z/yUMvTXPF6gPED8nRgro2fdGCBqR4BCkADy6rEjIkeCR8VNo9g9ur2noe9EEEqUx3lvbxgaJAka90AT7W9qIkMvoH5olRjw53tRgnIfn382q5p6Buaq5o9j/PI/iGWCLx92oCQ5a3f1FKP9GVHxSmQe65q/4I3+xsBjn4q85vsimfXXxVjGp7AhbP8A2gUcIP8A3SrtPwH7omy4Jn0uGrGMo8X3jtUgHR2+6JgyyAd36igkfAyCeiEa0g4MtvYNOgq4e/OQM3TckeIXU1cGT9vQef8AgEmKAXFAWDt7+KDEEY8+aUc6/tNAHP8A2lEaC1NrEcgxQNkkomx5GCFAsg4C6AoS7rXUAwkrJEkLowGAISgnqhAPRCGhRILGx+I2tRgrL/PyhBOn0/VAYcs/VAyOg8YUBaab0QVY8/aDJ1K3t5RoBgLjt5pkC59W/KBADWd18Ubo6+0d06OL12v+/wDCrQ5Kho43bZlMBgAqI4DyhrO7bODAFIBTdDxFyJuZbeSBCAVDAAOEJ1lklsQSUgAgJu4u2HGIvEoomUxMKASYAQCJHx1NySS6hZ5Q0cTLlkgQhFF7DuoaJEpbYwQAkABUINWixzlvowEIEKhB5DAcTLbdmAwGYESBhIE5l+0AACBRtFu9jGAgwndCcSZcpLd4TGUYM0JUjiXBBbbsYWhCQxQmGOOIW7wnCFrIQ0JxJxJZf8Fgl3FQN9r0lGT2+quS7853/g2Z5K90bkniK2O9FATrtB+KOa31V04fnwqOD5xUHAX+3+0xRmu+VIAOj8HumCAen5vbWkgBybeTvQ7h+/vmNAyTy690YGn6vcdf+Ei6GHbZ/fZY0bEsGxBDy6FXItgGPEUSXb0uaRrSgMlsm8nqaJnxsSd3RJyLYk7ugQDILcfmjJehHkk/nSLVc4k31FSL1J8r6oyecMT41oz1LZPyKMkemwVcAQ0PCHnOlADgtn9+86YIE6bMbvtVr4p9i99qIBLTYugEGhcOY0SYrz5JYfQrrSAXlz9z/wCHEjrJmCwVmzAVhJKNSHnEzZBQGhEBJhm6km6IpmESgNEiE5JRoEyjLAeIAIkB5oCYBZaFSDAAXJYMxA7g1F0EADMi0kmHgGtU0GP+WQYrmLQiT2Gb3oghnHG4AMRMMpAKsYFYJSyAIADJEEprCxLosGVZsMyOIZEuSQbGZEVxKDbEMBLQpDACbqDYuMmMjBLDC1O8UVxjNsdQJYhaUQiQ3/MidVsqZjiQR2NIBGZJ7lHYjiq5HkAD4/hpLkvxpn4pKBg13Px7mjPc3x5j4o5i87j4rBzBfvijgMvef1lWI5k/ngIdqEh1f5QgADgR8hdEYypQB37sl7wPmuAXPdCgI7ALf6j8ou7TYk/PzVwm5/X5v/4P/8QAKBEAAgADCAMBAQEBAQAAAAAAAREAITFBUWFxgZGh8LHB0eHxIBBg/9oACAECAQE/ECYEyBf3hHaCfHJX6roEyu1XmUAsE3B8r9iYYPlc2QhCsfEFkSEw+OrOLHitlPKe8EpXlcgFc1wJpEp4Lkek4Eyu0ficTF23iUCYK8qJiBeuSuLdboc126CUO3ri2CUAe1X7lBlNZ36cgYKB4E7FLPD2DCMzQkbVMTm5J8J+YLFeqrgyKMAsDtj8RMlZchjgOAWGMOae4DLwXL+QC3h8cWDIHcA+4BVcTsGYIJNXvyAX3B+JwJki78+w+8eSN4tXarzAnxyUOZQ5PtV5lCKZx4K9f5BJBOIGppBMibm9F9ECEk46oz+QQmDUFHP/AKIVhMQqt6wWB3dOcETBmCchJh3YbxsSwWh3QiXgKCppZBbeAvOGEA79BerokrTAfLYIQDaDoNqVgeWHYLJXbQUINDsFiwtcsZQRGb9gzWZwBL4D5EvVYLFOlJ7ygHwGkhcLlx3lBsVmCGQboteC8fIAQAuIOoL/ADKUCWX6/PEAILADYsduggbg/X5MC5JtfNsTCtPeLIqXmNCvkfnAA8CAxxx5BACPblAYIwIO0hACAAsL+wAu4kncmAF3F+Yr3F/dDACWHsvuEKub2S8QWCzGhLgJ3a+V8HMA5Np/UESZx5T8CCbYAFCXypvxCLrNEXgYABUoGUy88R4mia8wAnqxLxOA0HgNgAOBBAQtBGhCPmCQ5JkneR/BZfCG6zgJ+87YqkP8AfG9sKydIIOhA8Expxxm+i4mAgACsGgLB3EEpyWjczbwGirZMsS/J/wQ4RRnMkF4ih0gsFe3qn4gFIxcyMEiyaks5/4EhBoYDqZzeaCD85zj6axMlSXFIQnj9fmBIQpAXADYAevMECFgtIEkSbW8ipcZwWcR7xYIIEEGk9HXeGZmrJzITj95XwQAixpt6AD/AIJPbZeJnPlwTs9bOBElQkkYBBDt0BAlX/HlypN2AxKADR+wErJrOUC114SFNW8cIFStfp5A3MIOBtCOCAJVAqoVgGeIpkAfyAbLSHsX8ygg3s2oh+BApDcvJ5q3LQIDktwnmA9ABWDPneS9+4kScz6W0AkFi87OByYKa/tBXV/xRJiLuTI7BjWBMSoSSeQBsBudCtWzbB3GJQHDeb5U7ZxJvsRfr1DIQVACzm2ML84WQUEhkPtdYAQnOXIrmKglVaP8QEEU03L9Uvh8AZkfTyN4cIKtM1/Z3qAQhdwB5BhACacEXz6gSZj1KgAm2gJWkufBgAy0msyT5AvgEVg9T8UAxDNds2ZD1NQDAF3POfvYrTB8y1tz4UW50L/yLT8qbQrDq2ySI33iUNmzAY7kHGBQw9n0v8AGiRnyE8hYL55kgtSBIWAYH5iZ4wSTLOQIfbYqMciBmO1ip1UnwYpKpdq3ndcNgSwBu5KJ5lpAkgLl1uwzETO0EzY4sBzgmRUnrSfEsZwBEBX3H4yIgiBGJlggdLseS2WjUBHChCvLlCkHW03yjy9Z2/8ACRwpdOtuxlKsThj7FwOY3C5Z9LN4CJgxnp8FvAOYXLPowEqtXJCEzYA5TR2hyF92vuqrPKC0FUyWLXTmYJtFP0D3BDhY+A4FtwkbB8gwlTRN6PAs3QAT44cIxWL29lrZFi1Lc2dtd0AsDFcv4TABILCuSu32WMFgm7qxKnxdA3CulpJ8ukAt9tA8kQSPAnZfYBELoABBJH43b4ABRXcl4CAwYF3LXiAE5UXL+RIt2eE/fMJAYgHcA+4KZiQBOwfMEQSUlsyfEBhS7lHHMoASQqPiAAEEAdYHkiECTLPddwnACzVclDmCUYdHs4giBJOY2JHr/LchWEH0aUSdH9f5qE2M6AE+QumCGIqCeofkLmBMyw3IZGhlBNgw6wiYPtSO5wLXZ0DUThyG/o3rkr4QBv6fsEjcJ2IHLgyAmn6Wp4rRo9B0YAgVMgkbd2nAD54HTekWCh+PZf8ALQbkdiCOQIkIIv5ESJSS4a2ZgAkrkNv6YFmH8/IImDd6gSSs/T7MAMS7N+YocAqSxrVg+TCAY18fBAMFBfNYZ3DqfxaRbLsl4G0CjhB7BQ+CCSG1JG7lqzLOLHd+/TEwWMOJiBJLB9fmCCF21+ZwQq9m/M84ZWCJEmsd2SliRWBICT89JQAkHBsGvJcCwOSpuvJ6IIMy74VkMgy6eAuEsITWY0IR4ggiKok0vqczthC8ysuCGq/kALHpAeAINng0M93MXGOgYt5v+R2C4sbGd2EEhZOXu7YFbOZO5Z50w/yVbBaawLS6GSze+a7/AOQqu2QJgHtF4gPMOiBcr8ptHXc4kG76YIkNtgB4AggIA3LT5AM4nzXSVImQRm8zXXxCBevNd7YMjNr5C8QTn27xACPbl4ll/wBlPY2nRzBDaT5QE7lw2yEg7WQRBrF59AhAAkwPpPviBRo8gSTAYK/w2hnfjBCMlyT4OkrpkVAqiNyx3+wgQCXJpcjaUEAhVE3iSF3pgkGay49h40Acxx5Uck51gJbbAALtIYBeU8E/E9TpEoRYdgbUaxQYAeX8FZCKHAA26cGKF2AtaOSLzhyFr5UjhKcMIKmTUS7rACL36XiCVAAAIO1WA3BmcnE0ILlwY8uHAUAjTcG/Th4BaBwW8iCJmOpPIHzKAgZDgAev+EAxRcKeQ2cTRZ4NtXhDkSxeAPLggsC/ZBHg4zkJQd6uIYOkgQ7HAwlo0NI5BHeJbV8wR3EDJQP+SGC2AGyH2S/YlTuD6/ywEZrUEE5zQ6iWNDWiISzpgNokOEtgEolKxLc+YoXavZMRQ7aaP3WDQDcN6nl6KCEB0xwieYvDcgviJwrMDIgDcrTmOi9fIkQVJP5vLLCUAgiRN+QFbzLYxIDqXyG3/CygLSBuQPcEADcHRkVdBCf/AEacMwUAbgOx7gprPgE7y2hVG/0DxbrdFQXrwTLCRhAxJ6kPSCsVlySPXyCbu2d1ugJDIPNqNHxUwJATcWhAeHBEgKp+geTAANwU8fcoKfoAvsEILCDcHuCcsSNvgYmAFsny9GAaXkDcM6iQugTA4rZvmWhgTnZLn9Itv9AS9CInyhyzvcP+TC+ATTLkvRQCwNXLwoFCTdy/EEycPQfuElkDuAfZhMxNhPqC1PIuIIEB2gHQnwJDwyiYAZUeDa4D1hzL/pHqJSNn68h6rALCVK56dMUMSG5wUUVajoe38/wSomQRaw6wgpC9qv1PKDm27OmAkC0Rx/goJuBPBQzJ45LCKojVh9wOsTJehqp8xMneG5cQfB8kfIAq+l+E3jsKibSHvThHWFAH6d1iSiwTsQB5nApXPdBDOc8JxoLpn4gqBoSH3eAARVj4ArcZ7CAmfxL5Hb/iKcGDUOvgeYIIYNkAz7lADas/kAiBv4rBCaC4vfOd+kEgwClLt+sDJU/IAIS0e5jesAMPL78MEsB2+6QSyO2rzCk8Tvb/AGBBtJ8VhjINR/PyCQGHxPaUEkEuxvSu0FOoH99uCCQGyW39yiQSwHDA2iQgDD6BtSCHAxKDZS7vAsku04uqIUTJPaZLCHkxNurXuG6r7/JKAQGh3AI4IgLa/LsNFARTWcUyRoooYkbL+4awbQne+8QEE0SFClSdO48VhhIFhn710hqgnZO19kaWRJaR6m/M50sn/mwbD6ip7bSAXMWrV/VxFis/wCu4PxAkAOzDpZLjKASS8tjMcQKyr9pvEwfe1gFd7bBoJp8gkDuel8TSDY37PhwiEzfvisMTJxeldotEgOmCCJHtsAsyr+PxPL/gMKFIi98kH1A4g/Ca+ig8aA7ElHNzgjur7jPCHRe+f4ZAQBIjPleFAyukA4nvBsV5fAHpwJbvhfvNYk6skaqJMgNn5cCSDDj+ECWpy/BMSBm5Lhj0Snu98IZJvJO5B9La6ZnXgRuQeFq8IJZ9SeIcC98hdzgnXiTv/SEC+jEsAACNQ8oZLb3BKgIFj9nlZfABbWcH7PiA1NYutPzxBSJhSHHTS5QSSKDb8LfC0MQCQBNwGwA9f8Ck0kNti5wwArNwSdp1vnbAksWNUSfcACJJYVwOyQOEVAkspeVWBnbBJhIYLTk1goSXFwP4+0/1IwQBIBQEHYLu0DLgA2Ee4EgufSff+FAg2hbhHXG6UTCainoFySdJYwLWI4CXyAtUZdYwCC7V/kWse9xgMAC4AceyzrDQDp/SAZohG5B3l4gpBWWkpcTNuUo6h0PyCIFSJJO48OcArnlfPUUAoKbPR/8Ag//EACsQAQEAAwACAQMDBQADAQEAAAERACExQVFhcYHwEJHBIDChsfFA0eFQcP/aAAgBAQABPxCEgD6zxM6Kdhb/APngqVKlSpUqVKlSpUqVKlSpUqVKlSpUqVKlSpUqVKlSpUqVKlSpUqVKleNceES19T59c8/2ypUqVKlSpUqVKtlQUnHrwIHvz9v/AAipUqVKlSpUqVKlSpUqVKlQzZXjDnl5n/z/AMUqVKlSpUqVKlSpUqVKlSpUqVXBUDSq2joX2a13P++x/wB9j/vsf99j/vsf99j/AL7H/fY/77H/AH2P++x/32P++x/32P8Avsf99j/vsf8AfY/77H/fY/77H/fY/wC+x/32P++x/wB9j/vsf99jotIyxdFrer4fev0K/bDEfNfRmlRFQBzSQC2QLSBOhJmsB4Qc1Q9ZfPxiy5odCvB8YWA2OaMFt+4kMtYKFwRaaYTYKQRolmF9/PCXGmBfUuClqypCmp5pauG8a2bYIBA2w88ZC1JAoK3giALDOtL7oBCy8QPBlxQxtE73triThkWrvEGqFSGafOsDh7yUb1BM68I+kd5gEp2MZQ06jh6eLQVuPddc8Pahu0tXDbQFhL6maNkJDC4YL4V/9tWnhg6KD7NEUOL4TGnLBQE1a2nRYXN9RqiDQDc0Eni6xC7RYJ1g7Dh05I144ZsZ4HSy4UAMspMIOJvFuFAHH27MaNdgcreev/YrNu02DpQXB9QJpZ1gEQPrGUNOo4eni0Fbj/i739sZVSSSiI32UI3MHggd3eb3QDWNmHfK/PGJAyRJdDxAuaihl70QgCwz5UTRJQTCjyGJVZulnHSfUgZ5hrHzLJ5LNDD/AJ1DV5XmpfYMOT0gsvR6B48Fch9TeBI10RvDfj0UtOgGtwM1s+4hlb+cnmrgn2Po69zidt4uQmTZyDkdvT0MFMuLyRXYWQKXbKbT9oIu8iMfJE0/oGBW0Xr6kOj2Qt2ZNYXUrzgCGE440H9iOvH16lm82x0TKICAHiqw6oSo+awLlDyD5dR0IJpEAHoEugz2AA3WJJ9QTHgK4TCG1LVeuI4/G962V76DqnnO3j1CtVPN4riIf41C9M0bISH6wSZvSLXO6KwKFqZ2q3nYaRW6W7OGIEeDJOMOg8OnApwFnMOEKeihpUVr3FHyAd0QG1yzsIVtAD90B7MpmG3inbqaB4Ac1H3m0JY3aD0LrNUsKrI8DvE9gZfbIjkURUddEQrF9/PCXGmBfUuD7jJcqQQ0gCVw3lAUGgC5SSE2ZpcOTfUku1iTjhUYizmHCFPRQ0qr+O8JDYCBG9gf2ZviAlIP84fZsN/9kUWFaALfJSziN90K26m8fAp35f8AAUwyZwPYK/1HBBNGLTlgVb/IWENDl17VmK2cMpTe8ab6vwQVDcRPbICf1zRjn7I9x0xoQyuexeD7qfJjhpzDI/FK09IxBptznBKBeEIdhXrm4LF4JgHulncEmYR57TI/uMUZ2x0AJ6oY031fggqG4ie2McCMImH1EGWfXqu1FrRvRE1MLS1Q7wCo2Fesy9ltN/QMnWlKmBPqc90apajww7yBjBoEgdyl94nNW3mv8ckID57hyekFl6PQPHIEVawB2ei7DM4HsFf6jggmjPgotcT8aJuaExUmaVR1QhbTbMmz3UVFHmyGaM9kVBluMqUpveB7+/zSAM00h5dYK39WmoeQYpiyQ8G/CfqEeTn16Eej1oD8jPCKKSZUMNHfbCzK01VYhG5dn9Ab6RANae8pQCB3sxgiqX226JImlZrLO6bOwilpVR8zPLq5AJwekKSrrP8AB/tWeGK9MMUC9QIAi2hVxUxreykQtSTrTOk/DWYWKiO0e2ahdPHZqACuOAzX+VHQBcIaV0ZUDIAISCTUA7cT7EaVQfCnB/tHu2oh4cXx7iz3TikIo8GJ0KYCJ76zo7ofOrcgt5L9hT4Z301yeQQbzLFKO0e2MoCBqOayrLEHYOQnkmRPYM0SwvDN7fgmJEUlSWg5yBfJ4K6CoI8JcY6dHI6D7win1InxeZZV6oQHdwefpy632tL9clGxxZOFN+Nzxhf4o6hMkvgOY5ZK8aPrIAFKFSumSLBQpDfVWZBbyX7CnwzvprlOQRb3AKAH2y+9co2qNhD0/DzCJVnUu0J8J6zxNWBwunVuDfXznJyz1KqtBpXRnRaNefAniVNa0xxERUTXgFKb4uKGVfIiJQ4VETTq4bRAzAHCToo48gEQNdprW8kb8MDbcGle0AZhZuehzlDu2oh4cXx7nITYwu1RuDUUx7mVFVV6GQ0WzJK17zGsQKQlty6KfSj7ACqKbwtGhauqWKwgvlF1Z+gbnKJW66bOxwoMRQdkGGlGH5Cwzv1BFT0NNeIJmlEjy4uiGQid2Mgpda5cLm6oI2wTHs+6Y/lRWwLwiYvMEjoJbojYqfAAAxH6go+M59nfTioNLrn7QMMd+KX52BNqnTLVWu1tArX6wU31cnyNkz6yAxwkt6c6/PvdjilDvB/+35CnkO9kl8SmkPY2AVPCKSmYMX4VppnIigsqjWfYC40LwbK7RWqxqdy/GBu1aakz0HGSehB5TKj+UBsMgLkx40AFWToLc85sJi4QPtXTean+1XA7g1DvVUqDZJflAAJCa46YPTXr6siiDWtyGdnenLhFziOhLhnIkO68dokeIbL/AGJpgohABAD5iPviqHF+VCKdaOemKwvr+5u5oOMqX8KMqbKqATOq+32kQ6AihkHG/wAp+KEjwgmlMJB5LGZGxwTDZw2pB1z19MSnbgT+ubS6U77YchAvQ+HNhMMMNhA9h+xnzVydPV7QFLjzlO3Nh31ilS4bh56+8pEWRRiDi06S7EItPQjmCjDMv5TLThJaDrnr6YlO3L4YnBJNqd8JpTnhI3tsiF4adY1l8kXEXFx9FVLhvCJqHiAiRnxlwyI/QapCYuuaz4zQQuEX5UMCtZVEoWytFwCIGu01reSN+GLZegQa3QCIpHOq+32kQ6AihkHPi5xWOlVNQfKZ5Opbb5s69mq3L4wDwn9mLYtlM8xEXQvPBiYbOTr8KIicY0AVg9oT/NAWTsVGw3jW9dYBeagCCFzoaYkBaOiKEds8Fa3JqNGrEi8ztOJAoCKzdWofqG93G3tyvHmanP8A8/JkyZMmTJkyZMmTJkyZMmTJkyZMmTJkyZMmTJkyZMmTJkyZMmTJkyZN9waBDKa+dkd/SHBbjubx7IXe4Xhm1fRHvGAqs6bmbV9Ee8YCqzpuZtX0R7xgKrOm5njW0LeMBVZ03M3j2I9owKrOm5gT68HvGBVZ03MWvYXx2W7uAN4FwOJMiWIzxQpYuV7kQ+0IWro1rXbnMXIb38m1XqquO46z22V++a9fpkVR2y4Q5FAAHyXNwH2cs1ijQD5Lm4D7OWaxRoB8lzcFxHLNYogA+S5uC4jlmsUQAfJc3BcRyzWKIAPkuXx+m5SRuhkAsKuMr8KNo7imgvgmb2rES01inYPgTNLJybRrFOwfAmaWTk2jWKdg+BM0snJtGsU7B8CZpZOTaNYp2D4EzSycm0axTsHwJmlk5No1inYPgTLpGYbfMU7B8CfpksHv31vX3/8Ai5MmTJkyZMmTJkyZMmTJkyZMlA16el3X3/b/AM3JkyZMmTJkyZMmTJkyZMmTJkyZMmTJkyZJP78zweO7/g+f1yffjTksg/8AtXyZ1DhzAcLuOGLjxXKsMq3oo1cCHYBmNzT7GjUmA5Z7MOF+grcY62ZSJNV3ZufdhmO/HKk803RcPitDOdoN9JGmBpLefzHQ1wA85auf8bsFvh+M+ctdAyF2xgeg9Os84MGAuWnyQ3iWf7000JNUB6zzsQ8KGodvghvNOaHWK/DZQe8Xiz1jsVRv1aPgcmD/AHJ8W100Z8Zsl0H/ANq+TGyBh/8AYwf/ACJiYr9l9G4jxZhexbdzjjhBdUxKAj9a4S8s9ZlQrdOU5Uqb35ZNkg7vwg+ZOzeNrcLxNxShqtamXHh2EwWmaDfxnpDLN+KmwpLM7Xc7OCUuY03TOy0NKWJrzY6g6xQErU+pOhhFynD/AOUD8SiQc5ilUggVocKtxrbN7pDXrWGTbaXRrEkGrqF5iiXrHGeKo16h8Pb5wIgetaH536k8Z66+2B9kL99Rw4s8L2EVeWXKaJorfrAJ+usf46fke2oR60lPBKiSD33kKqTNUswlJRk2RHopk/tqBBSLoJuzC4pvWJvRrM3NC+SUD4BEeaPM1RBPajepXqJ+gbcBowpemgtNgA7k+Zxi5GeAfCY7zlV1jyg3TfrIpg8WxUQg0a1giA6AVtWUPKh90hVyH5AVYgfZTGk9C8xV+wfpT39IU7GFA3dJsMmYfJ0daE19uPMzPhZrzHV/SDqLKbddu+JVvox6BOQq4AUejq685xr8NMkEF6Rghc0yF58Vvhooat3heF+OiSBNVthjzWFnCoJ0U1PS5ucuxvvgbyj7DJcrCwB3k1PntrFOAmTAAXXA6F6m58c4Jpo3DXhl/wBxjeanoD2eMWvmAVKDCNuNbYdd7hUJwmrtpgDvyQAml2L2Ejge6SzISyKDo6TON0+0x1S9l83KKtZhnd9UEBsrU9QQSlgJt2qKO4PB9TdnCPB+o/2Iq7pjqcDQAV6lwAg2MlEoaoNBTmyIMJ4pUr29GQPEYkWjND3fOM+ezHBhsF7Fd5550qpERT0i7m444Qwy7ohq/wBhNLaq+KrF8CqGa84daqRWbqC8ZotxhGJJVdxpfHjPLLWXBJQoFB3ue/KSnip+85N5cpomit+sAn66y8wm7BBujZMAqwDMbmn2NGpgYJvD4AWlEuuY7BE4TOyFH7jWbWPEpsBCRFUbe4PQ5tUfRLd435x7/fr+IlL0nmGL4ZKISJFpRM3EXsomVEr9dZ6oDyyVhboeXhiCB3yVJHko8NLjPnsxwYbBexXedlDjSYUUNyxe45WkzpfX3bYKczpFbs0a6om3bHsZNhuFltDVMHDvN3umqI6I+cEcOwogJ0pb9sgIyQdSxq73UDWbFqnCPKEH3ATPcK9dffRSrgslfBJ7UOwdHf8AQG+qHQCHBMSrvfWdOxi/pRWlb0mnLlxDwUAspcCGHCoJ5GtjGtNBnqelFO4MVGy4844ka1QbFaPbWDOq1KAU4BUtrB/8d27oZAi0Mw+gQ4gjFV3E8MgOlUu0kqI/d8YCARPSKWjQgD27z48XHqZA+NNZPJzgsNvgD8rjvBE2IIUJBxTOjpxCLSwJAbtMi0GASFBQ+g456ezuRsLKax0yIw4JiVd/pi/CtqgEhKeXgOAZcnbAaG4FjrQ01mgsOBTSHyDZNjFzNsaNRASsSaFzrDUGVFNkB4Axk4K3Ud1cNFD4d5pSzZkPhHXWrPGeCQ1Ui0Qaw3VdeKcdgTBihKLLj9s1BStLQgUOOCbbsq22UcR7XIrDgx3phUqZWL3PtD7iBEAbOMObQX0WFSom9sED31tRcf6l5yMyhdhGC2ksE3t+EpAUU2DvGv0zaSGAkxfaZvEVMuoAgp+rje2Aa8KqQBStIOOFRIYCOdsW8uIh3+XTCRwXzM8omzWoqbAeCOHzTsrjtpCq9QAMc+3e+ywWgs6z2Vq9/wAeZJPk42S/HDYEFcAZrCWYfAMT9sBqgXco/oI2F4getHQtZ8NFagIons4KJi887LVRlX6jQD7jCHrogrYPYNm6a16EPfFGlvSgdJgjBNtpGwUDHHhjEWIiER2dQbQLThQhR6D7BwVFujwaBajgC5QFlHja1Q4hMfGDgx6+1K4020Gv6Qa6D/trRCEUaR0HhvEj/aoA91ADDkB/dNZ1zRW6KBDM/rSIQbAAuFoDghtjaZ4ABCbUFoHLDXxE0Atsg6Hw2S7vZCIBtAuITz9+FIAWm2F0CNdXIYbIoOkiFExkc+ddILB4hCmIqEDaXb6huURtbahsAyAQsS92FCzO/SHkIIQacOpiuQd4l1ACQ3C7B9p+ZAG4h03gPjEzdDguVO3kxTXk3rO6NII8Aby6TVPIfNeinQcA7IGpRugb8h9h/Y+OiIkKoA0XuHqvtGDbbcLuwMnbIySD7oMduZeknpxVPYk9M4WwyYICElJWVM99XFsT16gaOOOPoWDEVLFwAP7E3uumhnMLaNDG5mnUAZ+GVerXXbhqHX+k0iGp1g4uuiNMFUEpU0YNytXDbOxnAsVEQxwqJDARzti3lx3TyQnBbHDhUE8jWxjWmgzS0OakSTobR4DBnTbULZQILvV8568OFi3LFGUqaM2pgBIfDmyS5c3sFlNRQcvhe4KLfAOhwfIs1uMsfWJytuNwDkzohjak8LlBmgt2NBaBQec4WwyYICElJWVM7JWTAImLtNdFlyC0kwdA4T2fpnmG+CBhYChTgmDb4wtsIFVfAIZt1zMKqoxH3GFFT2zg+pp5U3rN89YjzAUNBFYY/szq57GukLDGeTrktUx2ii3rubatHHGVQgQF2/qG5eCOnTbs96/Txm3Vj1qQNaEvw51vMVgpTGg99Z33t31Rp98U6YAAdV5M2iKB7w0viO88HPKar8BR0mdGTT9CZPv+mn2MsM9RH2z54ohIRE/TTbK3oA0skYpGP6afr31/aV+2SjUtEXxdN3mJXOFr9VT7/ppqtN8AxGxetJi9rkzQAQOkcY8KJLlVRR45F1aK1lFDb5waquUIhz5FUZACq8wOSXZrAVGxNYDB2JtZ2IZTcZ+mkCgFYNZQDlN+P106YBXrXcjr9jB/aA8nA0pZymd4VWVIKhdX+nTp07a0JNMe0QnnWdXHq/aVysO7fIvj6ebiojj1+k0w1RrZ2AK/A2/0adOnvu1voxP2YCqRwsVPMZRR8iePr7zXpnIXhoTpsvznzz2pSlLfXPnntSlKW+ufPPalKUt9c+ee1KUpb65889qUpS31womrQKKyrCtOt5CBqDEa2MpOm5LldsMIhNDR8zNFIWYeF6NGpj8YLdDwMUV4SYd8UavJvy71z5JbEpSlvrnzz2pSlLfXPnntSlKW+ufPPalKUt9c+ee1KUpb65889qUpS31zVQNEu0LbhtfGfPPYlKUt9bnyS2JSlLfXBynBo8hNnvCuHBochCnvCuHBochCnvCuHBochCnvB+HBochCnvGmDg0OQhT3hXDg0OQhT3hTDhochC/ONMHBochCnvPEht9A+f8Aj+1p06dOnTp06fidnviR+JjkNRXr/SL9saQ3j3+Qhj1AQyp0uL/Y06dOnTp0unDbfT8/LuOggY91SQxK5wtfqqffIH0oVcj/ANGXiHSj1EXBTbCRnq/eLMpOXToKrqAujh+mnfRBEvaYT5M1EXNu4zsfeeALHMo1FETT4y8Q6Ueoi5yjTKhh+xd7rBodWO4kV+D9NPxOz3xI/ExyFSu/+Q6/tgJCePbMNRXr/SL9sfT/AJbGUM9uLDPVRcQga/TjEMeoCGVOlxcuIGgy7f4v6ba0JNMe0QnnWFO6m2PUV+2OSfZHVfB03eTPiAEcpNHPO63m15dvP5P10/dzyTcdCO0B84sqvyRU4EE9D7ZfLZRI/onLZpWeSiRooxtkIsdCnF3/AFV57bw2MFoWVCBVu63kxgYmL/7sDdlndEVomov18hizLj6KFPACBmCiTImTKEiIFXB3yOMAZQqScuckn9QWqqpA8wwlkf5WCqB9aOP58fEjrvkClXNXnJ9XNVVVP2cqm+sYaw2ciKlBckq0zRhh0FGucPRyE/8A2tgWH+N2c3TjBqy1nRJvxdHki4O6x6UChOHs6DkoUECBukCUnpywLJqpgy+Jt4udODCVzfqovTBq7Xfggeux5HDZzGwaerNeg2WW7OjLPFa8AMZbKr+LmzAjxrPDDmPFyJoiE8zNXTOq2FEPB6hc9CSYFpgNNg+RctxgWtM3Dte36MAK7cmv/wAGmxknazVyAIgLvGjH3xG9gPvpacH7hwbVisLdes5qX8TNkNt4rjzagcKoO00GvKDeO/w3JDYw9H0zetKDRFhHPgwxtt8JUU+j6W5aAGvhBAI9N70ZvRw2UShcFOQuFzRWPaIDJRnWFrkeXCS9Lm+bnRzykeJKlsvO/oGizQcLrjIWqpVCY0FUcp+tBoTuVa/trTRBvbznlzZfJSVpugvUSnWNWDYAfDrXMal2i9hbHVDwOb2rLPx9WgsP6TzmUISjvQS9HHY7LMijQI2nemJ/Xn/NHi2frB2a0yKBb8ERXsaycWb0Hl+qW8A0x8X7XAUCXRRO4uv5i1AViYCWtVgAG7wETlOu9JnstB8sKDpWXJgBzTUREwGQkbemEwT3YQgEd1vejNmkWYhhl4leJcmc5HhZUVoooRFzNeTUULdK3KcaZWMTEvUcIgLvGze7swi8umxsTE5Xv9xQiGoY3eLr+YtQFYmAlrVGs+6jIjwqzP7QmnVQKwV/bLqO7sL/ACsp3Phw7rA+Xa9XbknggSDRTRHi3ImNHjeDpLF+uHcrnqiNU4vn+ymqP2VOwHlCq0zeRIiVr0A8XwqUFzTfYyX4kBvWmMFt66dBukQrjEv6YI9UE2OrO4gEAKW40AFG6vnIK0dz2Mo7Jt4uHg8yT1fZ85vrPZIeQBDeQNdxFT5ULTwS6g04syxZCgHygiOpoM7syVPOh+5IdueY41A3hv6lPwYbSCKCNQkejTPhw7rA+Xa9Xbmum28t34AFocPdlHeOTXulNRTeSeCBINFNEeLc5LeE95xFXDs3g9UGp3yERIDQhTAWi96daywffGDyga9rVaPvHav43yP2JyARB2xQFDY70+M5qX8TNkNt4ritu1TSAYOPvPqlMlf/AG58TFkB0k1iD4H6P6A31/bNppRoETqenIJXvEnwRDXEo9wD1RRwarowG+M0dxBoJjHqy8JmnR+KQZ9R3iYlWrxw8lV3TqTGi6Qfausg6FZthYTfNgvym7i7JnubjOUqUE2tW45qrtiLSMUMPOJuSQVPkAHEE04ilng4XZrNskqlwval1bvpEBgPOBNYAipri2dIKpkk5Wgk1Alh2cRy4dhX1Egg9fRrEJdSNwa1rChGQ1Rl1eGz7GOQ9qqr4SfVHfGELne5XU1mhKCJle41UoeDDbumqzJdUETZB2E23bkq+v3PQWWymO7TjLoCTPhde4LKeLtBejUPQStaS3sIlzegDgBXB8uoDgd7Qg104gSD/F8SkGg7nDSFKv1cWfL0CIBPAHwyO0VkuY02ImNyv6g3ejMBitp0IhXAbC7SEYvqGHIIpwkozKdjTQYnN/h0UJngEjfSqzstuokza/BoqBi0VR3E6XSInhI7NhJUM+csvUbB6BXiYeo4dZAyOonjHR1yANHRL3x48zSLJ6vbQc2JMG0hBtlaamQtc1gN2d7NDzXYRdzxnSZMyO5LChpZmq8OqSo8oV8uEMTfgEV+2CFml1UXGI02RiE5xeAtoYqILgWe/oZBpNCQ7sH+ad6u/XCl62FQTzQOZb3weR6OdI8osLR0vFV6xH4uFTWPlQAG4tDw3n1hwr8KbydHvce8kQSAivveLZEYx3ANsAmEF7you1DZLp9Ef0giCo55IpI69f4DI7VtGlKGBXyFkCdtPbJQMNukPGH9fvdU/RFeIqgdMbPwYyOIAgTYMlpa+tIaReoljFWhYIwTEvCaOkChyI6qtuugx00h+tbkvmSOugnBQH3FsBQHpqbFlm6Lx2cL0HUPKCgj14TqDVNeTmLKD3xlbXviKOwwSqV8LSgtROJIx7SoHwEeUXYhQdgBtxgqA7IdUan9tNmWJ8hzQfEfXAP0rkfuMJh4TUI6EVFobsDCg2lwtTDgKrsTAEEmiUjZIqK2/wBmaZSLqtUaW4bAnHLb6Fc40UHr6NZdojTrYnOlgYY3udmjXCndDFnckoNgStJsoUYJRtwHElbEgOBQjdzxnHO/zQfcUxg/whY9Vmg0K5D8tnMXknQVO0yM969KIAV4GgAw7hdB2zq4Ij0ncONPzitE6Nb1Jk89sBNHwBKu5dcxzwD5Tmg+IwD9K5H7jCYYs/foQcaBHmTq850qE2KXdBHHhNQjoRUWhuwMCwRlOO1GlolTWM+9dfs6T6D64HwPyLR0sQHCJiVdcAwDdCaivcU7YQ17tOKCHFfwI1NS2IDglM2vwaKgYtFUdwtG462G2w2IkqmSBto2iRKVNiVjaW3g4oXYCuCAfqG1xC1IpAntX7ufiP8AGB4faNKQksZExjj3fkwFHaguh5kppp616CHtwL305EJgRJoCVXgFeBc9vNJuWIbPIZ+I/wAZ8uOQ7d95t8YdEDxZjjX4cPrPDXpk0KrNkL4z8R/jPxH+M/Ef4ztanwZsk+APnJV29ux8dERHYiOfW1sBhdHTQVPMz8R/jPlwtgZJDaaWzcmc7iGmpeQOnznoTC2yLW/6mQqBYIUntNikYzGpkOP8Y9QW+M/Ef4wzXd9VPMHVXdZ+I/xn4j/GbU7P2iSEdSjvWJ0B/L5R14zBfwf8YLVI+bG2JvfTeSjJMoaXAmwCzBPJWmKbsnKL4zo8c8eRnYF4eZn0QZINf+kGIlFDQpJNERGIkcQaACjWCO0+ZHwufiP8YCseFtBOChuYt7YbgQJhXSfOSrIUbrkL2x5y7Z3SscJ73wCkhdVQERG3B2sqCB5eZybMgvID6gfOfiP8Z+I/xnEWxpC3efB+2Wp7RIFCcQdF4c/Ef4z8R/jPxH+M/Ef4z8R/jIk08qkgKwHQZObZQaABRNIOFDFBSQ03YnBwZsPy5nJKx58hOgl4+FwVCNWpaGtFV+7n4j/GfiP8Z+I/xn4j/GfiP8Y935MBR2oLoeYErD+QD2EUorCus/Ef4z8R/jPxH+M/Ef4z8R/jPxH+M/Ef4z8R/jB0AdeP+MBrVQDZoE+TPxH+Mio1otJpz0pn4j/GfiP8Z+I/xn4j/GfiP8Z+I/xn4j/GfiP8YWDMG9E4vwF85enB6iECOtyZKshRuuQvbHnOj/6YARJvfTfMWo9mRQIRE3c/Ef4z8R/jPxH+M/Ef4z8R/jPxH+M/Ef4yKjWi0mnPSmEGaNOGByqrAKvjCx+ojYFFfgJ84dnFk9k+z1C3Xco0XoZy0eUgwUo3hPU4u105nUCQaJUTo8j1jQAPx5kCix76Y1OO4BQ2UCyCtefGJnDoKKjdj0L01iDRehnLB5SDNKso3E2IRVQNdbyn/FV8iHPKcwQIoOA8rNGCKw2oFKgZ5R85HoDo8vg3vc1gLRu9VARE3c6P/pgBAm99N8wxFpkWlwJsAs3gnkrTFN2TlF8YjaIvnxpXgFzvXp1lCuzZRfGMmToK6/d+DbqYQhlBgeWzFY/Fj8Y9QW+MdXMgyzZJ8gPnK5Am9thGbb8l1LnFJUFixN8CfOdRbOkpN58v75+I/wAfr9OUuEcjswAessKj0CcdxNEaszyz+phiXaFfiYHthnFTU8103nKWNZBfimdjsqUAl6mMA5Z9pFz4OO4bx9An+kvAOYnWZePaYBnoYKn1yLT4wGAQgtmxm7hV+6qrzSlNJzEtGt6i3Q4V7ycP/wDDEdU8AHthnI4OChkATvwHcb++Z0ZFZ0uXwZrbeEMvRNgCm6y6VqZ/jwPIcTuJ2aoBEGvp1ng6egC4+EVpvoutbf7EN0CU0mRooRD+BgPqKqYO4rBKd6BY+5nQ+mKjfaj1dDeEnrzF4PjCK7Y7I5PzfnTzivLntBB8hBLwTEZ6xO+7P/ASB5CfAiG3kD0KkIsWuXDIJ+11TeeDDyJSEDxd1eZZ3DPG+AskvW4d9SbZ7Csjhcg4aI3D3n2D/IUDF+NfkBOYYeYI4OlUeJ/sucVIeSAPV9aLluZn7iLkVfoZNRdqlC62Is95DsT+HX+X6YyIOkyDmkt4Au8bWDv5TuG7ZCwtRlDT+wSBHHelU9SIGuQXLTCIWirqWlP1DDuZlnTNHQjlJvL4/OB5doVfRidbh0LtwgA3qQxMjwYgNrTYxGrFztHl1N1Jrqh35Mi9+DeSZqfEKY72lEmc7LSl/SetnkiI1Aml57z5X5Cge6wNQ5kPCJh25NFd/wBEGYuaqObU9QpCAZXGoceCq7wkNouQhTJJQRbwHiTANDYp80ZeqGWazXV+5UOf/kCOIRlJd2qgFar92JaNb1Fuhwr3lDSIWh52xBjjJbxVlyxVKbYvG2IwfTt6sB1vpRm5d6FZhPGR4ky1CAT691KoEDED2n9my8NKqaR3gW2mgYptSfI44yv75pUozUhuG/7c01RrNB08os9Z7tL9AV8VH4yHYn8Ov8v0z2bg0Ppg/YxaoO7/AGImPif2ZvGkFdHb5XMNL22QYX2yVRQYwn38b9KH7mXcu9a+tXZwOqGRO4glsA8AkVrW8VuZp8qbbFBnZ4z4pp5rxhvT8zGs/ZgfUu393NXEuGOgBxAj9M06VktTdNN9ypaJP0AFUrGBtQyYBKl9HGM9KZrLefg2X7hV6xcKs11IeRNTDJMRCgAaDE8fkrvgoNPtA1m+MqEpQm6SAoOuZ7NwaH0wfsYZnYsQpbiAFfGJfUU0bTQlxZhVuRfgFGKgjOzmL6of0pv2HxgNbG4kgCSI2sveKOnCNALwIuFh2jx0rziy+phNssPYxPhT+uHwc2/sF/kwcx5ICb6DR8/qG3xC1IhRvsT7OfiP85HFqKEEcDodyxQ/Vk5RXjg+aJDRgdKCHyRwf4/BkFzzoN5SCaeXcbYptSLnYEOo2gPSawax+P5viRKVRVOaySjcQJjsFIGh0xN0p1GVFEwBtx3eKb0G1XH96OXKoUotSlrKXa5B4XMhhUPYAXbgmQ3tMFlNIQUZ6GuBAaz0Ymut9za3AxTRAReQ2GfDQQfsuRmIqS6CyiIkrpzwhKFcvlCowyeEx0bm4hgU0cTo+r4CAUEm7bkshvofc353X3n5r/ONtXcCp/MzxVDfPYit4MSOyY+PzWAr4k1Jm2fMkFRitJ6KOLfaWbsojUM11gjKuwCAF4Gsv5gJ8g8gBUMOmN5od6lRQV85zDUCtFlSm104NnCXE9oHZiRHcGqtT09XBgQjVwu6pRIGCWz9Ey2bySCC0W6BfGbaR7Dah3QAUZQz6+/JkAQ7NI4CXGnjwNgEgRoMBabcaFB8DPOfeEKGxnRVYmFhsyhxBYIrY5qK8vQB1Kaau7gIw9mjOABb4amH9/PXSo2EggQBn4j/ADi/e9CooB27NfJj/QG8HJ7KgemTqp03ltTiDotOErJdeY5fT5Mpkb6M32zi/dwLBF4cKSPvNwIG2mNTgKQXNadoAGViSJdx+QeUnc88rz9D7nLrH0cIFbwymsJFDKpAoYxhNreIGkV6Bmzd5BMsN00x0jiqE6tSVN7KJ9nPxH+cclUEWaCgrzaYeS5MByE9NRGOCF2QQytY6E1XQjOjmatoSOoAcqXPN21ogNw3tIylwyGDgQKgebCBdHLHnm80dFpG+Fhg4rI5o1zoCIcCjdiapri9oRZpZ2COUbQk8hza1GeBMzrk4+RGxSVFtWwbjw6AS7SXfHxDd4Qg1UNtgTeguJkZFL9QQO5+utml4CuOlyhdY6fAE2wCwV7D8R/nKqNabQ699C5+I/zn4j/OfiP85+I/zn4j/OfiP85+I/zn4j/OdoNjB91ZrSayWgo3bODU21EETAWm3GhQfAzzkQd3l2IRBSNOuQdI4AAb8Bn4j/OfiP8AOfiP85+I/wA5+I/zn4j/ADn4j/OVUa02h176FyyI3I1KMRD0PWbvdDUdSseMVnBtgW1NwVPjAPtVIDIi0kTQMBjH5slYCK3sZXs6u58B1vfNxHtVYhES7EwUG2zfaAvE3gZHjEVNYs0BDzgGW23Zqqar/wCs4mkPWRJoEJQGaiCCr45jd28wItvaeUD0a5O9xyn1CBJB+qwfNqjBBEgNsPweSmkjh0L3uOfskUOpS1KK7uRB3eXYhEFI065cmzF1YAgRdMJ6V/qI4fJX6YUmfC84RKIUjSZ2pnKREAIsAbcmskgkfYQIes7Vq1j0AKVshl+9g7CgFYINox+Qbyoha2QAXTkatmUkK/2r41mwB3UqIusV2Ztc4iydIWZ34f2z8R/n9PtFX3oZvRtfQbVmbYvMUC+knDxkNoaDEyrJ2x7rFkF8Jb65dS8eZNYmEFLSAKDNF/QwwUYt9UXCtXgzK4RYVQrauH7wMB6ZXvQjlBNi8wjQ4D4OACeqAHGG16Ci/m8Cui5HN4RwtKWIiKI6f0hJI4BVsqlHjb/UAkwgIIbnBAUQX9aeObkeo0OlDPGWzGAghLcW8mneFVWpILAA2qoAeUxluCW9NOZQFr3rLeB05KUAKDRuTeKiXXlATgRVGOoxKew4xS/f9BDBRi31RcK1eDMv9OY2SCF7K+h/Q7qTDI0JXoY4MS+HphhdtaDgAbVUAPLjvMEt6acygLXvOtihi1k1LUNdDHsX7poUmpHpMeQHylvpk3Z07+moGMMKO6JClZcmBxTpEufRnjNYEIYUd0SFKy4Wir+aPWqKnj9Q1RPoAgd5VYLHTo/qGeLopyCoWHlMMfG4CkBQY7i/fBKsFBoQgu7tNDkFkvhy2MjIZAFKjbOhz9IIYWFKgLSO9qm52n/ghfUORBAuyPR1hv8AszaieTHKNgE1Qe9mMQ2bikUqsQhd6Lm2LzFAvpJw8Z5bGkQOQIUGHcrJVNYapo2VAdTEAsWIJopBBtgFrnuZsQfDPv8AsTVf7HNobatB/oMpcs/sERyl0LzB0pirx+si0PnEEkdUBSvoUK8uQxk2e2BQCOy9ynotNBCt9IRbTHb1QgRVXwAYBC57mbEHwz7zVWQ54q6vqzaGZCCNNtKRaTmWZcrLIr1ChXRclYE6TT4FrVOLzLyU3FPYGCimQUiGBUfQFwPZ5VR+3ISzZrN2GTrxDBFIcN8UCJqMdn0c89qTIHIEKDDpjfp9YK1ADYgHUzaM4sOWzTY5uZx6vV6qw0FKgHXABWzl15CmINOIoKc+gGwGU+cfxV8GqPoBc9+cvTW/CmblnXwpJXbIFU5hUxORSP8A7JPW877XGgIeSCbF2f0BvpCIR+oHwBX6YcM/XDr4d/XIFDdrELv+/Xesvp3MwGr12Xm3Pak4UPooZ6zBnJe8tnSqMGTmHzlZtkMQlYsjjs/FnnN100dsLPTxNHcoRdT9/F8x1izAicmUU2kS0ik6PGbiTz40LQ5SCbVuFdndheXdiTXnNC6Oq1lYOvPgTIM5L3ls6VRgycylmuSI2EVieI5HgI+Zca8AXTzka2Cmntg7AntOdXL4OgA1LKhdDjLFeoefVXWZiucfEXmG49gaalwpA5cAMT0Pfg598hiFHJos44yxp7eAY85Q+cYAI97pOplXw7njgiSuzQQ7tgHeT00p5e+Mph7wPG5HguQGcRsAAEEyqx46U4qDe2eT3cQ8OsPSCBWMy5wpBMQOg8+MObRdRfZLHm2LnTiR3V1RAb8Zq6axKMAMMA8AxNeydUB4nc8cESV2aCHdsA7xabHXQPvlPhxrlGn/AGoPsy7MrFZ+WaotQGduK7qk+aiEvvriYYefWIXSCRd33jLSul1pD6mbpue+PAqs0E/VcAgmBctZJKNOz9Q1muXR7okNG/jHeadFCeF2mtmSZ877EH7szdPy3kgODodUHxngihwxfseZ5Gs9+zZeMToewGE3x/RwwCIJ+s9MbJIqjDpvdd+DgHrPbpfkvb+kG4bBCSHx4nLvPsNAC7/k/fFjrcXSpwCV1AMAfsTpj9L/AADxlauoJd99F00HBTq9ipuoft+CG2VD8hRrkGcl7y2dKowZOYOu9zsHgPaeVncP4TpKt7qPXaa84V9x86gM3QNPOcfEXmG49gaaly9IsxZhD7maDkgS3+PWGfU7swwjHW74PrYXbCD9zimvsOeVFAwu6BojVZ3AAzjqzbT6PrWAThKYwGgAk/rZnRGMaDRsJDrvWG6orPoUGh4Z4rNnmofEVw6J6th38Hv64wML/wBBppfWG79jxX1ePjLmfLSr+Wr4c6fhKSH5kf2cuPKb/rmuy0Ktw9FIAbrhNObt4XXjWiSrYR+IB7e+S/dzqPcp6Tp3rHpdYZUz/osEkBTeswVSI9ueYDOr27z4+pEP2EdLnznT8JSQ/Mj+zi7wYJvOmEqTzj02Opjzh0QS6PjIkvSYbrgYAHpZWAHaohbuMHZ2vYE8rR1T67RfSwYJRGifJ+iZoAvzK68pWoau8Bf4xD+oOxdG1d4wML/0Gml9Zf8AdhYCfPRQNlmeKpUFlrtbWK8Dev6NFnQtRFfefW2C3L7g+MA2/wBXzx8iYq05nKyirSvhLcK1KQkFMuCVp8uUHN65Q+AP1zznbn7Af5MD66MNXwYD5P1DcvFHThs2Ocfr5wGEz6oBlEZMXHm43py+ksvsYZnjwH1rubNghCQaAwQAOJkfnCw0k+zIUaVWW0idiM8YKvA731b6O7LivSpoGwQQkE8TIJk3u7ZseCGap/xw2AdAZx8jkywjx6ga9aZ5KW0PErvaXNNluj0LXj1lJPOG2+CkO7yEJejofNphh3QCtJeZOsBCtdMjvH3piPMS+10h41C6dw1+gEbdijmlMCfp01ovDvWhEd4Dvd1jRnyHG32vdXd5G0YzDeN9NYIiMtZt0rVKPSYdeDeBvN14M+MbUUyb0DuZWkCbBERaa101zIgUDCZDLPQxLuiV+ozoHcb+CUJWs0QFautdNYB27vUAJAPGCrwO99W+juy56LEEIXygr8MjbtFpajv6D4xTp11r6lt3vNV122SCSJ0IcO/vtrswPKLoytIE2CIi01rprmc4Py+0vSNpddz6JN6OJfyjN4/hgEI9PgnrjnCR5RDfbkUvSD2NgQJEAffPvNXTYP0Q+M4iSIYCkjQgDV7vCoNE8SNh11qa1+mkxemgCzeloVh+zljwaSbQ2ACeRhEy2ur3GNvAAJh3D7AFSSOu/EZ8AkRCA4WqHiTaO6k8kmZYhE5ANt+DnC+B1Ddx68MO/gYdbULMdoA5CKdsJQ+D/MvVQTaMBqPLITC+D908nVkeMSgOFYARhEBaGtpdE6o9d28H0c/LlRHvEmpJoeE03gCzeObBLhj0AEz3eO6BlICJyI3nYLtzJ4jWaP7kC7L4UqR228qJvEuHPpCN4ChFoTeVLoU+lYWrwbgkx74dGPRQ2XwIzxsCPk8N4XgHMx95VsSM4ehA6NjFkrVyi7zahoBll4J3UbAvIGtx4pHVLUnkL4lrgQQEv5iGdL0LXHYzNY+QmGw3vTiGbivbUIAdEsC5ngoNKEyKx/oEdoTNnfytj6M8NMdXQG7rFK+X+xp06dOnTphPPJkRUnwcK5UKNaVMKQg+cXHm43py+ks5RO6YIgc101zOJCWCSoBoUJmslebZRaetnPI4sx6x8wn+vTp06dOk06bT4/n4cw/mciKDuipvIyrF8R2HXx9MLumAN4/Xulu7mxfaAHGyrg0MB7NTbzeJ78ZVc16/aiZrnWuYvpNy+RzJjlj5hOeD9PP5l/BRkHg2n377VXatcirtAU42Vef6w+fDVTRFvXiZSDqW+5Fdo9nqZP8ADGK9B9UI4q9ocMScDWjkXfPDZNnT1q4nXy3qYggkofhnKJ3TBEDmumuZ4o4gQFfEPg0ec0ImLPxDXyR+ce3aBYUVqK6VvuaKyXrkJc0U4gWFUrbevcLcCyA6FBI1q3tvbnt3nZNFUeQnjFXfSd7dlPkT4yZ0IlLshy3dN3dueg1lh5s+Az4zxul5t+Hbx+X9dP01twenQNOxexwFzPQUx3mHEt8ZMbe63kRfYy7xlN+EXlEB5UM1CB5FwgpoBfrj/ehOBl2GTwAxR4bN0A4dLL3WfSko06N+7OycPcfOq9VzjvH2PBeQAeVDzlX1USS9F4mvnPOD9MdCL0R8GRKX8xFX6SK+uMeHSw/KvW0EfIYXzKOeqLF6sYC+MRcyLaWJpvjCpi6Qeru9IfADPUdELYAigV0Vl/jOL4BeUQPKhnV2oBEuxPE6yucOvHYRP2jwpm7YwZ95T4NPe8CaQUUHhHJV8tAHSF9UviY+N1HZmkQK5AXAxowgQC41Fw0XLdQNO9pKAY+uFlKEmTLwnPIotvA3nFerJ5zh0mqL5RhsVAYWGSJCQRqzoOQ4GS9wQfrDB7d9AAtREHYWubbqZCzLiSJpLjyuAN0Iqxqboc28q8hlw9AV0DgmFFjqZbMIR15w0iQrSMZVqPWzA9ZRz547fLGAvjOSD/tp/p0r2ZoRenL0G/uzZzdtSiQYJA5lsGe1D5A2WnZNYldYvziURq262yNxsizaMSRNJf1DBXhkHLAe9REV3iMbhW/SbMOxqUdI3AIjvSOOaePKoGp2DwqHnE9sDSEPpJTrZ7ww7Cnw83G31ysb88L1Q6nmXKr9FxuY0ssLOGGcSb+GjR31NsPOBNE+1VQ7es14+4sD8hJqyvf6IIkaQJms2wFKFjMFmfJi4Choi6dZ8SKm2KoPxjkxCKnaYT6ZOWI3v79aXRYZcbNot7BNB8uKiMVL6TR+uA9OhC9X/kxANObu9RX7YMUiPh42IfrgILCXFSEQ21yL5JWkNvoNHdJbidmBSQUSaBS9jMb1S1N0UgxnQuFg20GoGlDRO/2psYCZsavYkEh8BvIYP6YXlK6Eo8mLLbTGIzGxeugwYVVGGLFwRKkuPK4A3QirGpuhzbyryGXD0BXQOIf27nArYAKD/Ym7CCeeiLXmdQGGzlirAvVRiecTVv0j2JdGBcOmKDawHbwVD1hiijzTWnBZGAFzPQUx3mHEt8Zyhv8ANJ9gcHsZ00PFewaFMQ0dOTaG11u54aTkSI7xHiWblxp5+JZSbygw90YCGLcEUELi6yQ7nCNtQXyjDYqAwBtjUFglTwDa5EGR4IkkC6nlwgKKCXl+DYV5j8OK9oY+F6cZrHlcAboRVjU3Q4JG58ScEI06V0DkrwbocShQRQxT7exGmBNg2gDnibP0sbYFSCYfrFdvOtOm0VcAuByWChtdcM0QoUrGMq1GrZnbp8H025DoAJds8a3P3k6iItSPoyjW+ggAHoFcNF/oDfV9AP0mga6FVAVZ3CFOBHENTWj0kyB/BKD+8+2ezNxUBiaRSuuNptjk71wUBehvLxbJL+8+2fDeFcL0ef4uP3h6F9kr0Pkz2wdNS6ubcx8wsGJZG6N13wzUChZdcY2iHgjGFBMDaf8A2ACJvGy+tz2527l2nc9MmDfwNeCBO576GO0cH3I+WBk793s5bPQbjwo4mt4BXCyDvPGX/cHX5gpAYRxHdzoNDwQaXSl/byhnQCCBeIxDBKgG9qhaE8M/cat6H+I84I9e4p4M9l1M6eYodIufeszjbs22+7uH0GaOVci82MTwmA6H/LdDJr5Dm0Xc9BB+2MnfPG6ipPAG8Hs1u/2a3Pv6M8SnxUfAeB59s1LfST/7Q+eY1OTc0g4keY7vleFR5tVNorWg5Hr3pwx2NCdSZ85xbaLqSL51kkSO69YjSG+MUWPEx53ddEDfRY3ih8tL9I+WNO5k1+difgNMDKOQL8F/I+2fIgg2orG3ey4LXitX/mjmtCKDoRbf5ArlMEB5tVNorWg/qG/FRR4+RxzPA74Dr/7O+2BJkN90nVnrfMmoz3kI65L64X9hcDm/tqyMfVHTqKCCdyrrNegOQ0BbJ4/Wem+FyC/+PjV7n5Rf+lP6IMUuPO2nwdL4zfMrIyQOAdkm9YvEvfiWaHsBxyLJPYizZqvLthgjVitpVcXt8YD4YXjXxZ54pjnsfl7YpvRA1vP2WoLP291h+QZCHxfnuN/6SnH8iTNFO+W6Xj/LMFoJJHF+w+nWDJ5LpWX3s+meCWii1esFCMUhXhJ/am+62frnbThYBy39TXAeTKcMfAZDgXZnrQQBpR0DbrGR696cMdjQnUmfOcW2i6ki+dYBik8gw0g1PH9hN2JTuXZXCr5dAK6M2Iv2mNlVj5ZABvdb5CvLRAa2VnsYDFnpyA26PKBc54dFIMFA/q4QpwI4hqa0ekmbIzU2GweDrfExetrwtX1gGusVGqgTDlo3XXZcsGFrX1odbx+Tc2WxC1AgHArSPKSbVRSVDhAB0Ab7g9kt/jrc/wDpgLHogPavM8JA3i3l5esgc1xOKhORI01nAfyOJATIDoU1kevc3DNhoTqTI98ClriSm5yVDJMUfNS2trbtL0g1xcNMKYjfOsWobh4Lajr1g4VWVrf1roO7W8OJmaRdRuNAzaQxRY8THnd10QN9DX42VcIoY+sth8lXv+vO9Vk9bmjfQXgfV+ob3cbe1I8eLq9xFLF2JpE6M/ydxEBL98n+/Vzyp9h/TIHKfnUfJArRtW4ukP3fjv0DJO+1eCEkaL33n+bSoyL92eahtPm8z5v6ZHbgXN0QlCr1VXP96BraRz24sA9xmJ0StQk7dCU3FMU4ZBA9E6MfoNDWD5AAwaQn6ZAnAqRDFiAj0Sn6ZFYE2blBKFXqqufVl33aZ+7F+J2hXU77OmHrDJOgCB6wqPEyIIrNCheVmL1/GNfoSZ87klSIy4hGtcXLsUwXVZjS4Ow9mwwoMYev0yWj7aPQEqlXyq4Pj4efRA/fD3vFF4NQPUz6mvcd1dvpmrPn14BL98/z3KW0fscGC0Ov5Efvga3qpz1Dn+MXmCmpesdPrinDIIHonRixX6wLBPkAnjHttQS9ov3YFVAIU43/ALMfKLcrpFibE2eME66ggeidGas+fXgEv3/TJpvzaXTRyvqunXs0gEfvuaR1lF0CJkQ2N+qhj0USrMQGwBt4FDytz0YH41SZ1IJykuzoMQSIjw3oILZXSBiBUzc9XCD2iqswhNwSgwKSXZS24HciUMnhyGweoaE6XATDXXqmUF2lU4T6eJPnKCdWFbR3gAMbFZtsXnccyHiEb8br2frkyVgHY89EjZp0hviA/wD8eGgUqNe6VYwZFM7mI9I+xXb1za+N/QKnsq6+Q8BVBqjZOpsbuGBx9Aa3X+Qwu2fYvJNsehAFBj7ZyoxTwmhQUTAjEFnG9rrfCQFEwK3HYh7RWpDg0mI5AtPfJiXUDQomF2X5G4pN4Va2GTMtuaIEZA9pp2SAezCiXSp9hBg6kpFQOA640c/TJQN+vtc19v3/ALGTJkyZMmRizGomqrtV84cqQUwgQENENZ8YJnSEIfBn1tbjeqfuz/PZJbR+xwYLQ6/kR++BZeqnPUOf15MmTJkyUDfr7XNfb98EOg2kQCghd924XqlWQiDgE13Inhp5cj/2ZE3heVQKSlZ8ueo1AWmqNFN+8/ydxEBL9/0yWIjt87Gn3c7WMJ+o0+2CZNKlwAgPjIm8LyqBSUrPlxBWCiDiAqV7ls+2jkBKpV8qufEHn1yonwmBpeN/xIR+TJRS17cjk+zkBMKwRC2sKUjvP89wFtH7HHn9NCXQ2hZ6M8uA2VUZfg5oa2GpqzxbuTAsvVTnqHMtdre12mn75KB4S7RbQVdpcfgCmpesdPrhZBX3LKo/TFA+rRRPF01OTPnKkupCr85Z/fm+Tx1P8nz/APwTJ9DQZs0N/9k=;" parent="1" vertex="1">
          <mxGeometry x="-550" y="830" width="480.26" height="70" as="geometry" />
        </mxCell>
        <mxCell id="cj13jpOk3JOB_9JHsXTW-79" value="Deposit" style="text;html=1;align=center;verticalAlign=middle;resizable=0;points=[];autosize=1;strokeColor=none;fillColor=none;fontSize=78;" parent="1" vertex="1">
          <mxGeometry x="-140" y="10" width="290" height="110" as="geometry" />
        </mxCell>
      </root>
    </mxGraphModel>
  </diagram>
</mxfile>
